<svg width="20" height="20" viewBox="0 0 20 20" fill="none" xmlns="http://www.w3.org/2000/svg">
<path d="M9.99972 17.9389C8.95977 17.9389 7.97954 17.7399 7.05901 17.3418C6.14346 16.9437 5.33489 16.3939 4.6333 15.6923C3.93171 14.9907 3.38188 14.1822 2.98382 13.2666C2.58575 12.3461 2.38672 11.3658 2.38672 10.3259C2.38672 9.28595 2.58575 8.3082 2.98382 7.39265C3.38188 6.47212 3.92922 5.66106 4.62584 4.95947C5.32743 4.25788 6.136 3.70805 7.05155 3.30999C7.97207 2.91192 8.95231 2.71289 9.99226 2.71289C11.0322 2.71289 12.0124 2.91192 12.933 3.30999C13.8535 3.70805 14.6646 4.25788 15.3661 4.95947C16.0677 5.66106 16.6176 6.47212 17.0156 7.39265C17.4137 8.3082 17.6127 9.28595 17.6127 10.3259C17.6127 11.3658 17.4137 12.3461 17.0156 13.2666C16.6176 14.1822 16.0677 14.9907 15.3661 15.6923C14.6646 16.3939 13.8535 16.9437 12.933 17.3418C12.0174 17.7399 11.0397 17.9389 9.99972 17.9389ZM9.99972 16.6701C10.8804 16.6701 11.7039 16.5059 12.4702 16.1775C13.2365 15.8491 13.9107 15.3963 14.4929 14.8191C15.0751 14.2369 15.5279 13.5627 15.8513 12.7964C16.1797 12.0301 16.3439 11.2066 16.3439 10.3259C16.3439 9.44517 16.1797 8.62168 15.8513 7.8554C15.5229 7.08912 15.0676 6.4149 14.4854 5.83273C13.9082 5.25056 13.234 4.79776 12.4628 4.47433C11.6965 4.14593 10.873 3.98172 9.99226 3.98172C9.11154 3.98172 8.28804 4.14593 7.52176 4.47433C6.75549 4.79776 6.08375 5.25056 5.50656 5.83273C4.92936 6.4149 4.47656 7.08912 4.14816 7.8554C3.82473 8.62168 3.66302 9.44517 3.66302 10.3259C3.66302 11.2066 3.82473 12.0301 4.14816 12.7964C4.47656 13.5627 4.92936 14.2369 5.50656 14.8191C6.08873 15.3963 6.76295 15.8491 7.52923 16.1775C8.2955 16.5059 9.119 16.6701 9.99972 16.6701ZM8.69357 14.4981C8.53932 14.4981 8.40995 14.4484 8.30545 14.3488C8.20096 14.2493 8.14872 14.1249 8.14872 13.9757C8.14872 13.8264 8.20096 13.702 8.30545 13.6025C8.40995 13.503 8.53932 13.4532 8.69357 13.4532H9.61907V10.0273H8.82045C8.6662 10.0273 8.53683 9.97759 8.43234 9.87807C8.32785 9.77855 8.2756 9.65416 8.2756 9.50488C8.2756 9.35561 8.32785 9.23121 8.43234 9.1317C8.53683 9.03218 8.6662 8.98242 8.82045 8.98242H10.2236C10.4127 8.98242 10.557 9.04462 10.6565 9.16902C10.756 9.28843 10.8058 9.45015 10.8058 9.65416V13.4532H11.7313C11.8856 13.4532 12.0149 13.503 12.1194 13.6025C12.2239 13.702 12.2762 13.8264 12.2762 13.9757C12.2762 14.1249 12.2239 14.2493 12.1194 14.3488C12.0149 14.4484 11.8856 14.4981 11.7313 14.4981H8.69357ZM9.93255 7.73598C9.66385 7.73598 9.43497 7.64144 9.24588 7.45236C9.0568 7.26328 8.96226 7.03439 8.96226 6.76569C8.96226 6.49202 9.0568 6.26065 9.24588 6.07157C9.43497 5.88249 9.66385 5.78795 9.93255 5.78795C10.2062 5.78795 10.4351 5.88249 10.6192 6.07157C10.8083 6.26065 10.9028 6.49202 10.9028 6.76569C10.9028 7.03439 10.8083 7.26328 10.6192 7.45236C10.4351 7.64144 10.2062 7.73598 9.93255 7.73598Z" fill="#735BF2"/>
</svg>
