<svg width="28" height="28" viewBox="0 0 28 28" fill="none" xmlns="http://www.w3.org/2000/svg">
<path d="M14.0006 24.09C19.5734 24.09 24.091 19.5724 24.091 13.9996C24.091 8.42682 19.5734 3.90918 14.0006 3.90918C8.42779 3.90918 3.91016 8.42682 3.91016 13.9996C3.91016 19.5724 8.42779 24.09 14.0006 24.09Z" fill="#735BF2"/>
<path d="M14.0082 11.1416C13.3278 13.1396 12.6474 15.1377 11.967 17.1357C11.2866 15.1377 10.6062 13.1396 9.92578 11.1416" stroke="white" stroke-width="1.29465" stroke-linecap="round" stroke-linejoin="round"/>
<path d="M18.0902 11.1416C17.4098 13.1396 16.7294 15.1377 16.049 17.1357C15.3686 15.1377 14.6882 13.1396 14.0078 11.1416" stroke="white" stroke-width="1.29465" stroke-linecap="round" stroke-linejoin="round"/>
<path d="M9.2207 14.1387H10.8816" stroke="white" stroke-width="1.29465" stroke-linecap="round" stroke-linejoin="round"/>
<path d="M17.2598 14.1387H18.9207" stroke="white" stroke-width="1.29465" stroke-linecap="round" stroke-linejoin="round"/>
</svg>
