<svg width="16" height="16" viewBox="0 0 16 16" fill="none" xmlns="http://www.w3.org/2000/svg">
<path d="M2.66602 8.53341C2.66602 7.88073 2.77439 7.25981 2.99112 6.67064C3.20786 6.07794 3.50889 5.54345 3.8942 5.06718C4.28296 4.58737 4.73536 4.18518 5.2514 3.86061C5.77089 3.53604 6.33338 3.30848 6.93887 3.17795V2.40532C6.93887 2.2007 7.0008 2.07369 7.12465 2.0243C7.2485 1.97138 7.39127 2.0049 7.55297 2.12485L9.28172 3.38962C9.41245 3.48488 9.47782 3.59778 9.47782 3.72831C9.47782 3.85885 9.41245 3.96998 9.28172 4.0617L7.54781 5.32648C7.38955 5.4429 7.2485 5.47642 7.12465 5.42703C7.0008 5.37411 6.93887 5.2471 6.93887 5.04601V4.28926C6.47787 4.40921 6.05128 4.60148 5.65908 4.86608C5.26689 5.12715 4.9263 5.44643 4.63731 5.82393C4.34832 6.19789 4.12298 6.61419 3.96129 7.07283C3.80304 7.53146 3.72391 8.01832 3.72391 8.53341C3.72391 9.14375 3.834 9.71528 4.05418 10.248C4.27436 10.7772 4.57883 11.2429 4.96758 11.6451C5.35977 12.0437 5.81389 12.356 6.32994 12.5818C6.84943 12.8075 7.40504 12.9204 7.99677 12.9204C8.59194 12.9204 9.14755 12.8075 9.6636 12.5818C10.1831 12.356 10.6372 12.0437 11.026 11.6451C11.4182 11.2429 11.7243 10.7772 11.9445 10.248C12.1647 9.71528 12.2748 9.14375 12.2748 8.53341C12.2748 8.06066 12.206 7.61084 12.0684 7.18396C11.9308 6.75707 11.7364 6.36547 11.4852 6.00914C11.2341 5.65282 10.9399 5.34236 10.6028 5.07776C10.4824 4.97192 10.4067 4.84844 10.3757 4.70732C10.3448 4.56268 10.374 4.42508 10.4635 4.29455C10.5495 4.1746 10.6664 4.10757 10.8144 4.09346C10.9623 4.07582 11.1051 4.12344 11.2427 4.23634C11.6624 4.55738 12.0288 4.9437 12.3419 5.39528C12.6549 5.84686 12.8975 6.34077 13.0695 6.87703C13.245 7.40975 13.3327 7.96188 13.3327 8.53341C13.3327 9.28134 13.1933 9.98693 12.9147 10.6502C12.636 11.3099 12.2507 11.8903 11.7587 12.3912C11.2668 12.8922 10.6991 13.2856 10.0558 13.5714C9.41245 13.8571 8.72611 14 7.99677 14C7.26742 14 6.58108 13.8571 5.93775 13.5714C5.29441 13.2856 4.72676 12.8922 4.23479 12.3912C3.74627 11.8903 3.36268 11.3099 3.08401 10.6502C2.80535 9.98693 2.66602 9.28134 2.66602 8.53341Z" fill="#5B5F67"/>
</svg>
