<svg width="17" height="16" viewBox="0 0 17 16" fill="none" xmlns="http://www.w3.org/2000/svg">
<path d="M14.126 4.32976L13.7675 4.74089L14.126 4.32976ZM11.7619 2.26864L11.4035 2.67977L11.7619 2.26864ZM11.045 1.45455H3.4V2.54545H11.045V1.45455ZM3.4 1.45455C2.6017 1.45455 1.95455 2.10169 1.95455 2.9H3.04545C3.04545 2.70419 3.20419 2.54545 3.4 2.54545V1.45455ZM1.95455 2.9V13.0999H3.04545V2.9H1.95455ZM1.95455 13.0999C1.95455 13.8983 2.60171 14.5454 3.4 14.5454V13.4545C3.20418 13.4545 3.04545 13.2957 3.04545 13.0999H1.95455ZM3.4 14.5454H13.6V13.4545H3.4V14.5454ZM13.6 14.5454C14.3983 14.5454 15.0454 13.8982 15.0454 13.0999H13.9545C13.9545 13.2958 13.7958 13.4545 13.6 13.4545V14.5454ZM15.0454 13.0999V5.15203H13.9545V13.0999H15.0454ZM14.4844 3.91863L12.1204 1.85751L11.4035 2.67977L13.7675 4.74089L14.4844 3.91863ZM15.0454 5.15203C15.0454 4.67915 14.8408 4.22939 14.4844 3.91863L13.7675 4.74089C13.8863 4.84448 13.9545 4.9944 13.9545 5.15203H15.0454ZM11.045 2.54545C11.1768 2.54545 11.3041 2.59317 11.4035 2.67977L12.1204 1.85751C11.8224 1.59769 11.4404 1.45455 11.045 1.45455V2.54545Z" fill="#8C919C"/>
<path fill-rule="evenodd" clip-rule="evenodd" d="M11.3695 2H11.4538L14.5 4.65584V13.0999C14.5 13.597 14.097 13.9999 13.6 13.9999H3.4C2.90294 13.9999 2.5 13.597 2.5 13.0999V2.9C2.5 2.40294 2.90294 2 3.4 2H5.63043V5.47193C5.63043 6.0829 5.63043 6.38838 5.74933 6.62174C5.85392 6.827 6.0208 6.99389 6.22607 7.09848C6.45943 7.21738 6.76491 7.21738 7.37588 7.21738H9.62409C10.2351 7.21738 10.5405 7.21738 10.7739 7.09848C10.9792 6.99389 11.1461 6.827 11.2506 6.62174C11.3695 6.38838 11.3695 6.0829 11.3695 5.47193V2ZM10.9225 9.82603C11.1694 9.82603 11.3695 9.59244 11.3695 9.3043C11.3695 9.01615 11.1694 8.78256 10.9225 8.78256H6.07741C5.83054 8.78256 5.63041 9.01615 5.63041 9.3043C5.63041 9.59244 5.83054 9.82603 6.07741 9.82603H10.9225ZM11.3695 11.3913C11.3695 11.6794 11.1694 11.913 10.9225 11.913H6.07741C5.83054 11.913 5.63041 11.6794 5.63041 11.3913C5.63041 11.1031 5.83054 10.8695 6.07741 10.8695H10.9225C11.1694 10.8695 11.3695 11.1031 11.3695 11.3913Z" fill="#8C919C"/>
<path fill-rule="evenodd" clip-rule="evenodd" d="M9.92164 3.57812C10.2098 3.57812 10.4434 3.79542 10.4434 4.06346V5.17974C10.4434 5.44778 10.2098 5.66508 9.92164 5.66508C9.63349 5.66508 9.3999 5.44778 9.3999 5.17974V4.06346C9.3999 3.79542 9.63349 3.57812 9.92164 3.57812Z" fill="#8C919C"/>
</svg>
