<svg width="20" height="20" viewBox="0 0 20 20" fill="none" xmlns="http://www.w3.org/2000/svg">
<path d="M9.55339 1.42871C9.17594 1.42871 8.83529 1.65507 8.68908 2.00306L7.9878 3.6721C7.90792 3.86222 7.74441 4.00319 7.55882 4.0931C7.36816 4.18547 7.1491 4.20231 6.95378 4.12024L5.30019 3.42546C4.94902 3.2779 4.54347 3.3575 4.27412 3.62685L3.62587 4.2751C3.35653 4.54445 3.27693 4.94999 3.42448 5.30117L4.11542 6.94561C4.20037 7.14779 4.18915 7.37837 4.09594 7.57688C4.01039 7.75907 3.8669 7.90652 3.68134 7.98449L2.00208 8.69006C1.6541 8.83627 1.42773 9.17691 1.42773 9.55437V10.4459C1.42773 10.8234 1.6541 11.164 2.00208 11.3102L3.68134 12.0158C3.8669 12.0938 4.01039 12.2412 4.09594 12.4234C4.18915 12.6219 4.20037 12.8525 4.11542 13.0547L3.42448 14.6991C3.27693 15.0503 3.35653 15.4558 3.62587 15.7252L4.27412 16.3734C4.54347 16.6428 4.94902 16.7224 5.30019 16.5748L6.95395 15.88C7.15126 15.7971 7.36673 15.7978 7.55922 15.8913C7.74601 15.9821 7.90694 16.1357 7.98739 16.3272L8.68908 17.9972C8.83529 18.3452 9.17594 18.5716 9.55339 18.5716H10.4449C10.8224 18.5716 11.163 18.3452 11.3092 17.9972L12.0218 16.3013C12.0956 16.1257 12.2308 15.9878 12.405 15.9108C12.6149 15.8179 12.8588 15.802 13.0704 15.8909L14.6981 16.5748C15.0493 16.7224 15.4549 16.6428 15.7242 16.3734L16.3724 15.7252C16.6418 15.4558 16.7214 15.0503 16.5738 14.6991L15.8824 13.0535C15.7973 12.851 15.8002 12.6222 15.8943 12.4237C15.981 12.2405 16.131 12.0939 16.318 12.0154L17.9962 11.3102C18.3442 11.164 18.5706 10.8234 18.5706 10.4459V9.55437C18.5706 9.17691 18.3442 8.83627 17.9962 8.69006L16.3209 7.98615C16.1341 7.90764 15.9952 7.75739 15.909 7.57398C15.8172 7.37863 15.7979 7.14793 15.8815 6.94893L16.5738 5.30117C16.7214 4.94999 16.6418 4.54445 16.3724 4.2751L15.7242 3.62685C15.4549 3.3575 15.0493 3.2779 14.6981 3.42546L13.0525 4.11689C12.85 4.20198 12.6213 4.19907 12.4227 4.10505C12.2395 4.01825 12.0929 3.86827 12.0144 3.68133L11.3092 2.00306C11.163 1.65507 10.8224 1.42871 10.4449 1.42871L9.55339 1.42871ZM9.99916 6.77249C11.7733 6.77249 13.2054 8.20463 13.2054 9.97876C13.2054 11.7529 11.7733 13.185 9.99916 13.185C8.22503 13.185 6.79289 11.7529 6.79289 9.97876C6.79289 8.20463 8.22503 6.77249 9.99916 6.77249Z" fill="#735BF2"/>
</svg>
