<svg width="24" height="24" viewBox="0 0 24 24" fill="none" xmlns="http://www.w3.org/2000/svg">
<path d="M3 16.9719C3 16.6387 3.088 16.3213 3.26399 16.0196C3.43998 15.7116 3.66311 15.4162 3.93338 15.1334C4.20994 14.8505 4.48964 14.5708 4.77249 14.2943C4.99248 14.0806 5.16218 13.8009 5.28161 13.4552C5.40732 13.1095 5.5016 12.7292 5.56445 12.3144C5.62731 11.8995 5.67759 11.4753 5.7153 11.0416C5.75301 9.85363 5.90072 8.80082 6.15842 7.88315C6.42241 6.96548 6.81211 6.19552 7.32751 5.57326C7.8492 4.951 8.52174 4.49217 9.34513 4.19675C9.52112 3.5745 9.85739 3.05281 10.3539 2.63168C10.8505 2.21056 11.4476 2 12.1453 2C12.8493 2 13.4495 2.21056 13.9461 2.63168C14.4426 3.05281 14.7789 3.5745 14.9549 4.19675C15.7783 4.49217 16.4477 4.951 16.9631 5.57326C17.4847 6.19552 17.8744 6.96548 18.1321 7.88315C18.3961 8.80082 18.547 9.85363 18.5847 11.0416C18.6224 11.4753 18.6727 11.8995 18.7355 12.3144C18.7984 12.7292 18.8895 13.1095 19.009 13.4552C19.1347 13.8009 19.3075 14.0806 19.5275 14.2943C19.8104 14.5708 20.0869 14.8505 20.3572 15.1334C20.6337 15.4162 20.86 15.7116 21.036 16.0196C21.212 16.3213 21.3 16.6387 21.3 16.9719C21.3 17.3741 21.1586 17.6978 20.8757 17.943C20.5992 18.1818 20.2158 18.3012 19.7255 18.3012H15.8411C15.816 18.9109 15.6431 19.4766 15.3226 19.9983C15.0083 20.5263 14.5777 20.9505 14.0309 21.2711C13.4904 21.5979 12.8618 21.7614 12.1453 21.7614C11.435 21.7614 10.8065 21.5979 10.2597 21.2711C9.71911 20.9505 9.28856 20.5263 8.96801 19.9983C8.65374 19.4766 8.48403 18.9109 8.45889 18.3012H4.5745C4.08423 18.3012 3.69768 18.1818 3.41484 17.943C3.13828 17.6978 3 17.3741 3 16.9719ZM5.25332 16.5759H19.0184V16.4628C18.9367 16.381 18.8298 16.271 18.6978 16.1328C18.5658 15.9945 18.4181 15.8436 18.2547 15.6802C18.0976 15.5105 17.9404 15.3377 17.7833 15.1617C17.6199 14.9794 17.4785 14.7594 17.359 14.5017C17.2396 14.2377 17.1391 13.9423 17.0573 13.6155C16.9756 13.2823 16.9065 12.9209 16.8499 12.5312C16.7996 12.1415 16.7619 11.7204 16.7368 11.2679C16.6991 9.9982 16.5545 8.98624 16.3031 8.23199C16.0517 7.47146 15.7185 6.90577 15.3037 6.53493C14.8952 6.1578 14.4363 5.9001 13.9272 5.76182C13.8203 5.73668 13.7324 5.69268 13.6632 5.62983C13.6004 5.56069 13.5658 5.46327 13.5595 5.33756C13.5344 4.85987 13.3961 4.47331 13.1447 4.1779C12.8995 3.88248 12.5664 3.73478 12.1453 3.73478C11.7367 3.73478 11.4067 3.88248 11.1553 4.1779C10.9039 4.47331 10.7656 4.85987 10.7405 5.33756C10.7342 5.46327 10.6965 5.56069 10.6274 5.62983C10.5645 5.69268 10.4765 5.73668 10.3634 5.76182C9.85425 5.9001 9.39541 6.1578 8.98686 6.53493C8.57831 6.90577 8.24832 7.47146 7.99691 8.23199C7.74549 8.98624 7.60093 9.9982 7.56321 11.2679C7.53807 11.7204 7.49722 12.1415 7.44065 12.5312C7.39037 12.9209 7.32123 13.2823 7.23323 13.6155C7.15152 13.9423 7.05095 14.2377 6.93153 14.5017C6.81211 14.7594 6.67069 14.9794 6.50726 15.1617C6.35641 15.3377 6.19928 15.5105 6.03586 15.6802C5.87244 15.8436 5.72159 15.9945 5.58331 16.1328C5.44503 16.271 5.33503 16.381 5.25332 16.4628V16.5759ZM10.2408 18.3012C10.2722 18.8984 10.4639 19.3729 10.8159 19.7249C11.1742 20.0769 11.6173 20.2529 12.1453 20.2529C12.6858 20.2529 13.129 20.0769 13.4747 19.7249C13.8266 19.3729 14.0215 18.8984 14.0592 18.3012H10.2408Z" fill="#735BF2"/>
</svg>
