<svg width="24" height="24" viewBox="0 0 24 24" fill="none" xmlns="http://www.w3.org/2000/svg">
<path d="M3 12H21" stroke="#735BF2" stroke-width="1.6"/>
<path fill-rule="evenodd" clip-rule="evenodd" d="M2.19922 5.99922C2.19922 5.55739 2.55739 5.19922 2.99922 5.19922H20.9992C21.441 5.19922 21.7992 5.55739 21.7992 5.99922C21.7992 6.44105 21.441 6.79922 20.9992 6.79922H2.99922C2.55739 6.79922 2.19922 6.44105 2.19922 5.99922ZM2.19922 11.9992C2.19922 11.5574 2.55739 11.1992 2.99922 11.1992H20.9992C21.441 11.1992 21.7992 11.5574 21.7992 11.9992C21.7992 12.441 21.441 12.7992 20.9992 12.7992H2.99922C2.55739 12.7992 2.19922 12.441 2.19922 11.9992ZM2.99922 17.1992C2.55739 17.1992 2.19922 17.5574 2.19922 17.9992C2.19922 18.441 2.55739 18.7992 2.99922 18.7992H20.9992C21.441 18.7992 21.7992 18.441 21.7992 17.9992C21.7992 17.5574 21.441 17.1992 20.9992 17.1992H2.99922Z" fill="#735BF2"/>
<mask id="path-3-outside-1_4962_32430" maskUnits="userSpaceOnUse" x="4" y="3" width="16" height="18" fill="black">
<rect fill="white" x="4" y="3" width="16" height="18"/>
<path fill-rule="evenodd" clip-rule="evenodd" d="M8 6C8 6.55228 7.55228 7 7 7C6.44772 7 6 6.55228 6 6C6 5.44772 6.44772 5 7 5C7.55228 5 8 5.44772 8 6ZM18 12C18 12.5523 17.5523 13 17 13C16.4477 13 16 12.5523 16 12C16 11.4477 16.4477 11 17 11C17.5523 11 18 11.4477 18 12ZM11 19C11.5523 19 12 18.5523 12 18C12 17.4477 11.5523 17 11 17C10.4477 17 10 17.4477 10 18C10 18.5523 10.4477 19 11 19Z"/>
</mask>
<path fill-rule="evenodd" clip-rule="evenodd" d="M8 6C8 6.55228 7.55228 7 7 7C6.44772 7 6 6.55228 6 6C6 5.44772 6.44772 5 7 5C7.55228 5 8 5.44772 8 6ZM18 12C18 12.5523 17.5523 13 17 13C16.4477 13 16 12.5523 16 12C16 11.4477 16.4477 11 17 11C17.5523 11 18 11.4477 18 12ZM11 19C11.5523 19 12 18.5523 12 18C12 17.4477 11.5523 17 11 17C10.4477 17 10 17.4477 10 18C10 18.5523 10.4477 19 11 19Z" fill="white"/>
<path d="M7 8.6C8.43594 8.6 9.6 7.43594 9.6 6H6.4C6.4 5.66863 6.66863 5.4 7 5.4V8.6ZM4.4 6C4.4 7.43594 5.56406 8.6 7 8.6V5.4C7.33137 5.4 7.6 5.66863 7.6 6H4.4ZM7 3.4C5.56406 3.4 4.4 4.56406 4.4 6H7.6C7.6 6.33137 7.33137 6.6 7 6.6V3.4ZM9.6 6C9.6 4.56406 8.43594 3.4 7 3.4V6.6C6.66863 6.6 6.4 6.33137 6.4 6H9.6ZM17 14.6C18.4359 14.6 19.6 13.4359 19.6 12H16.4C16.4 11.6686 16.6686 11.4 17 11.4V14.6ZM14.4 12C14.4 13.4359 15.5641 14.6 17 14.6V11.4C17.3314 11.4 17.6 11.6686 17.6 12H14.4ZM17 9.4C15.5641 9.4 14.4 10.5641 14.4 12H17.6C17.6 12.3314 17.3314 12.6 17 12.6V9.4ZM19.6 12C19.6 10.5641 18.4359 9.4 17 9.4V12.6C16.6686 12.6 16.4 12.3314 16.4 12H19.6ZM10.4 18C10.4 17.6686 10.6686 17.4 11 17.4V20.6C12.4359 20.6 13.6 19.4359 13.6 18H10.4ZM11 18.6C10.6686 18.6 10.4 18.3314 10.4 18H13.6C13.6 16.5641 12.4359 15.4 11 15.4V18.6ZM11.6 18C11.6 18.3314 11.3314 18.6 11 18.6V15.4C9.56406 15.4 8.4 16.5641 8.4 18H11.6ZM11 17.4C11.3314 17.4 11.6 17.6686 11.6 18H8.4C8.4 19.4359 9.56406 20.6 11 20.6V17.4Z" fill="#735BF2" mask="url(#path-3-outside-1_4962_32430)"/>
</svg>
