<svg width="24" height="24" viewBox="0 0 24 24" fill="none" xmlns="http://www.w3.org/2000/svg">
<path d="M3.64453 10.1058C3.64453 9.1493 3.82387 8.25261 4.18255 7.4157C4.54692 6.5731 5.04792 5.83298 5.68557 5.19533C6.32322 4.55199 7.0605 4.05099 7.89741 3.69231C8.74001 3.33363 9.63955 3.1543 10.596 3.1543C11.5582 3.1543 12.4577 3.33363 13.2946 3.69231C14.1372 4.05099 14.8774 4.55199 15.515 5.19533C16.1527 5.83298 16.6508 6.5731 17.0095 7.4157C17.3739 8.25261 17.556 9.1493 17.556 10.1058C17.556 10.8573 17.4393 11.5718 17.2059 12.2493C16.9782 12.9268 16.6622 13.5445 16.258 14.1024L20.1522 18.0137C20.2717 18.1276 20.36 18.2614 20.4169 18.4151C20.4795 18.5688 20.5109 18.7311 20.5109 18.9019C20.5109 19.141 20.4568 19.3573 20.3486 19.5509C20.2404 19.7445 20.0924 19.8953 19.9045 20.0035C19.7166 20.1174 19.5003 20.1743 19.2555 20.1743C19.0847 20.1743 18.9196 20.143 18.7602 20.0804C18.6065 20.0234 18.467 19.9323 18.3417 19.8071L14.4219 15.8873C13.8753 16.2516 13.2776 16.5392 12.6285 16.7498C11.9852 16.9548 11.3077 17.0572 10.596 17.0572C9.63955 17.0572 8.74001 16.8779 7.89741 16.5192C7.0605 16.1606 6.32322 15.6624 5.68557 15.0247C5.04792 14.3871 4.54692 13.6498 4.18255 12.8129C3.82387 11.9703 3.64453 11.0679 3.64453 10.1058ZM5.46353 10.1058C5.46353 10.8174 5.59448 11.4835 5.85637 12.1041C6.12395 12.7247 6.49401 13.2712 6.96656 13.7438C7.4391 14.2106 7.98565 14.5778 8.60622 14.8454C9.22679 15.113 9.89005 15.2468 10.596 15.2468C11.3077 15.2468 11.9738 15.113 12.5944 14.8454C13.2149 14.5778 13.7586 14.2106 14.2255 13.7438C14.698 13.2712 15.0681 12.7247 15.3357 12.1041C15.6033 11.4835 15.737 10.8174 15.737 10.1058C15.737 9.3998 15.6033 8.73654 15.3357 8.11597C15.0681 7.49541 14.698 6.94885 14.2255 6.47631C13.7586 6.00377 13.2149 5.63656 12.5944 5.37467C11.9738 5.10709 11.3077 4.97329 10.596 4.97329C9.89005 4.97329 9.22679 5.10709 8.60622 5.37467C7.98565 5.63656 7.4391 6.00377 6.96656 6.47631C6.49401 6.94885 6.12395 7.49541 5.85637 8.11597C5.59448 8.73654 5.46353 9.3998 5.46353 10.1058Z" fill="#735BF2"/>
</svg>
