<svg width="24" height="24" viewBox="0 0 24 24" fill="none" xmlns="http://www.w3.org/2000/svg">
<path fill-rule="evenodd" clip-rule="evenodd" d="M2.05069 19.1376C2.13863 18.7152 2.55226 18.4441 2.9748 18.532C3.39721 18.6199 3.66835 19.0337 3.58038 19.4561C3.52972 19.6994 3.59007 19.9488 3.74585 20.1404C3.83609 20.2514 4.0373 20.4375 4.37081 20.4375H19.6292C19.9627 20.4375 20.1639 20.2514 20.2542 20.1404C20.41 19.9488 20.4703 19.6994 20.4196 19.4561C19.6088 15.5617 16.1739 12.717 12.2071 12.621C12.1384 12.6237 12.0694 12.625 12 12.625C11.9304 12.625 11.8611 12.6236 11.7921 12.621C8.99788 12.688 6.41522 14.1033 4.8512 16.4358C4.61092 16.7942 4.12565 16.8899 3.76721 16.6497C3.40884 16.4094 3.3131 15.9241 3.55342 15.5657C4.83533 13.6538 6.69679 12.2636 8.81921 11.5651C7.52584 10.5952 6.68748 9.04989 6.68748 7.31251C6.68748 4.38321 9.07065 2 12 2C14.9293 2 17.3125 4.38321 17.3125 7.31251C17.3125 9.05095 16.4731 10.597 15.1784 11.5669C16.3647 11.9574 17.4777 12.5651 18.452 13.3664C20.2384 14.8358 21.4804 16.8854 21.9493 19.1376C22.0963 19.8433 21.9202 20.5682 21.4664 21.1262C21.0148 21.6816 20.3451 22 19.6292 22H4.37085C3.65487 22 2.98522 21.6816 2.53366 21.1262C2.07976 20.5682 1.90374 19.8433 2.05069 19.1376ZM15.75 7.31242C15.75 5.24464 14.0678 3.56241 12 3.56241C9.93223 3.56241 8.25 5.24464 8.25 7.31242C8.25 9.31653 9.83028 10.9585 11.8102 11.0577C11.8734 11.0565 11.9367 11.0559 12 11.0559C12.0631 11.0559 12.1261 11.0565 12.1891 11.0577C14.1694 10.9589 15.75 9.3168 15.75 7.31242Z" fill="#735BF2"/>
<path d="M2.05069 19.1376L2.24649 19.1784L2.24649 19.1784L2.05069 19.1376ZM2.9748 18.532L3.01554 18.3362L3.01556 18.3362L2.9748 18.532ZM3.58038 19.4561L3.38458 19.4153L3.38458 19.4153L3.58038 19.4561ZM3.74585 20.1404L3.59067 20.2666L3.59065 20.2666L3.74585 20.1404ZM20.2542 20.1404L20.4093 20.2666L20.4093 20.2666L20.2542 20.1404ZM20.4196 19.4561L20.2238 19.4968L20.2238 19.4968L20.4196 19.4561ZM12.2071 12.621L12.1994 12.4208L12.2119 12.4211L12.2071 12.621ZM11.7921 12.621L11.7873 12.4207L11.7998 12.4211L11.7921 12.621ZM4.8512 16.4358L4.68507 16.3245L4.68508 16.3245L4.8512 16.4358ZM3.76721 16.6497L3.65585 16.8158L3.65583 16.8158L3.76721 16.6497ZM3.55342 15.5657L3.71953 15.6771L3.71952 15.6771L3.55342 15.5657ZM8.81921 11.5651L8.9392 11.405L9.24602 11.6351L8.88173 11.755L8.81921 11.5651ZM15.1784 11.5669L15.1159 11.7568L14.7514 11.6368L15.0585 11.4068L15.1784 11.5669ZM18.452 13.3664L18.579 13.212L18.579 13.212L18.452 13.3664ZM21.9493 19.1376L21.7535 19.1784L21.7535 19.1784L21.9493 19.1376ZM21.4664 21.1262L21.6215 21.2524H21.6215L21.4664 21.1262ZM2.53366 21.1262L2.68882 21L2.68883 21.0001L2.53366 21.1262ZM11.8102 11.0577L11.8139 11.2581L11.8002 11.2574L11.8102 11.0577ZM12.1891 11.0577L12.1991 11.2579L12.1854 11.2577L12.1891 11.0577ZM1.85489 19.0968C1.96534 18.5663 2.48489 18.2258 3.01554 18.3362L2.93405 18.7278C2.61963 18.6624 2.31191 18.8641 2.24649 19.1784L1.85489 19.0968ZM3.01556 18.3362C3.54612 18.4467 3.88668 18.9663 3.77618 19.4969L3.38458 19.4153C3.45003 19.1011 3.24831 18.7932 2.93404 18.7278L3.01556 18.3362ZM3.77618 19.4968C3.7377 19.6816 3.78347 19.8696 3.90104 20.0143L3.59065 20.2666C3.39667 20.0279 3.32173 19.7172 3.38458 19.4153L3.77618 19.4968ZM3.90102 20.0142C3.97056 20.0998 4.12038 20.2375 4.37081 20.2375V20.6375C3.95422 20.6375 3.70161 20.403 3.59067 20.2666L3.90102 20.0142ZM4.37081 20.2375H19.6292V20.6375H4.37081V20.2375ZM19.6292 20.2375C19.8796 20.2375 20.0294 20.0997 20.099 20.0142L20.4093 20.2666C20.2984 20.403 20.0458 20.6375 19.6292 20.6375V20.2375ZM20.099 20.0142C20.2166 19.8697 20.2623 19.6817 20.2238 19.4968L20.6154 19.4153C20.6783 19.7171 20.6034 20.028 20.4093 20.2666L20.099 20.0142ZM20.2238 19.4968C19.4321 15.694 16.0766 12.9147 12.2023 12.821L12.2119 12.4211C16.2711 12.5193 19.7856 15.4295 20.6154 19.4153L20.2238 19.4968ZM12.2148 12.8209C12.1435 12.8236 12.0719 12.825 12 12.825V12.425C12.0668 12.425 12.1333 12.4237 12.1994 12.4212L12.2148 12.8209ZM12 12.825C11.9278 12.825 11.8559 12.8236 11.7844 12.8208L11.7998 12.4211C11.8663 12.4237 11.933 12.425 12 12.425V12.825ZM11.7969 12.8209C9.06769 12.8864 6.54517 14.2686 5.01731 16.5472L4.68508 16.3245C6.28527 13.938 8.92807 12.4896 11.7873 12.421L11.7969 12.8209ZM5.01732 16.5472C4.71552 16.9974 4.10601 17.1176 3.65585 16.8158L3.87857 16.4835C4.14529 16.6623 4.50632 16.5911 4.68507 16.3245L5.01732 16.5472ZM3.65583 16.8158C3.20572 16.514 3.08547 15.9044 3.38731 15.4543L3.71952 15.6771C3.54074 15.9437 3.61196 16.3048 3.87858 16.4836L3.65583 16.8158ZM3.3873 15.4543C4.69426 13.5051 6.59234 12.0874 8.75668 11.3751L8.88173 11.755C6.80124 12.4398 4.9764 13.8026 3.71953 15.6771L3.3873 15.4543ZM8.69922 11.7251C7.35783 10.7192 6.48748 9.11572 6.48748 7.31251H6.88748C6.88748 8.98406 7.69385 10.4712 8.9392 11.405L8.69922 11.7251ZM6.48748 7.31251C6.48748 4.27275 8.96019 1.8 12 1.8V2.2C9.18111 2.2 6.88748 4.49366 6.88748 7.31251H6.48748ZM12 1.8C15.0398 1.8 17.5125 4.27275 17.5125 7.31251H17.1125C17.1125 4.49366 14.8189 2.2 12 2.2V1.8ZM17.5125 7.31251C17.5125 9.11683 16.6411 10.7211 15.2983 11.7269L15.0585 11.4068C16.3052 10.473 17.1125 8.98508 17.1125 7.31251H17.5125ZM15.2409 11.3769C16.4504 11.7751 17.5854 12.3947 18.579 13.212L18.3249 13.5209C17.3701 12.7355 16.2789 12.1397 15.1159 11.7568L15.2409 11.3769ZM18.579 13.212C20.4004 14.7102 21.6669 16.7998 22.1451 19.0968L21.7535 19.1784C21.294 16.9711 20.0763 14.9615 18.3249 13.5209L18.579 13.212ZM22.1451 19.0968C22.3043 19.8614 22.1134 20.6476 21.6215 21.2524L21.3112 21.0001C21.727 20.4888 21.8882 19.8253 21.7535 19.1784L22.1451 19.0968ZM21.6215 21.2524C21.132 21.8545 20.4053 22.2 19.6292 22.2V21.8C20.285 21.8 20.8976 21.5086 21.3112 21.0001L21.6215 21.2524ZM19.6292 22.2H4.37085V21.8H19.6292V22.2ZM4.37085 22.2C3.5947 22.2 2.86805 21.8545 2.37849 21.2524L2.68883 21.0001C3.1024 21.5086 3.71504 21.8 4.37085 21.8V22.2ZM2.37851 21.2524C1.88651 20.6476 1.6957 19.8614 1.85489 19.0968L2.24649 19.1784C2.11178 19.8253 2.273 20.4888 2.68882 21L2.37851 21.2524ZM15.55 7.31242C15.55 5.3551 13.9573 3.76241 12 3.76241V3.36241C14.1783 3.36241 15.95 5.13418 15.95 7.31242H15.55ZM12 3.76241C10.0427 3.76241 8.45 5.3551 8.45 7.31242H8.05C8.05 5.13418 9.82177 3.36241 12 3.36241V3.76241ZM8.45 7.31242C8.45 9.20937 9.94614 10.764 11.8202 10.8579L11.8002 11.2574C9.71443 11.1529 8.05 9.42368 8.05 7.31242H8.45ZM11.8065 10.8577C11.8709 10.8565 11.9354 10.8559 12 10.8559V11.2559C11.9379 11.2559 11.8759 11.2565 11.8139 11.2576L11.8065 10.8577ZM12 10.8559C12.0644 10.8559 12.1287 10.8565 12.1928 10.8577L12.1854 11.2577C12.1235 11.2565 12.0617 11.2559 12 11.2559V10.8559ZM12.1791 10.858C14.0535 10.7644 15.55 9.20963 15.55 7.31242H15.95C15.95 9.42396 14.2852 11.1534 12.199 11.2575L12.1791 10.858Z" fill="#735BF2"/>
</svg>
