<svg width="65" height="64" viewBox="0 0 65 64" fill="none" xmlns="http://www.w3.org/2000/svg">
<g id="logo">
<g id="Group 3">
<path id="Vector" d="M27.7011 12.4876C27.6837 12.4309 27.5951 12.158 27.315 12.01C26.9347 11.8082 26.5529 12.0245 26.5282 12.0375C23.9646 13.3948 20.0437 15.8989 16.6164 20.2626C15.4071 21.8013 14.1181 23.4417 13.173 25.9458C12.8682 26.7543 9.74281 35.4642 15.0312 42.4495C17.3959 45.5735 20.4182 46.9975 21.9715 47.5869C28.6592 50.12 34.6545 47.2109 35.7432 46.6579C30.7714 45.6461 27.0159 43.9128 25.4046 42.2594C25.0983 41.9458 24.5583 41.3376 24.1722 40.8382C23.1183 39.4766 22.4287 38.1527 21.9744 37.0828C21.8495 36.7896 21.9308 36.4571 22.1733 36.2452C25.4772 33.3695 28.1119 30.8901 31.4725 27.981C31.7033 27.7806 31.7904 27.4671 31.6888 27.184C31.2141 25.8543 30.4578 23.8772 29.9091 22.3762C29.7189 21.8565 29.0308 21.6997 28.62 22.0786C25.3074 25.1387 22.7786 27.7327 19.4645 30.7928C20.2324 28.9304 21.5113 26.4117 23.651 23.8046C25.4975 21.5531 27.4224 19.9214 28.9887 18.7877C29.2428 18.6048 29.3516 18.2898 29.2674 17.9951L27.6997 12.4861L27.7011 12.4876Z" fill="#735BF2"/>
<path id="Vector_2" d="M25.0254 37.0869C27.5687 34.9371 30.1134 32.7872 32.6567 30.6373C32.6828 30.617 33.066 30.3295 33.5248 30.4689C33.7904 30.5487 33.9486 30.7534 34.027 30.8623C34.3972 31.3747 35.2725 32.8685 36.3743 34.9095C36.4673 35.0459 36.6066 35.2985 36.5471 35.5685C36.4919 35.8182 36.2931 35.9663 36.2103 36.0287C35.7879 36.3495 35.0214 37.0013 33.9965 37.8795C34.6106 38.7984 35.2348 39.5185 35.753 40.0527C36.5689 40.8946 37.6997 42.0516 39.388 42.6976C40.0368 42.9458 41.1866 43.2782 42.7398 43.1606C42.3406 43.5424 41.6351 44.1216 40.6088 44.5266C39.2239 45.0739 38.0336 44.9984 37.6576 44.9636C36.3061 44.8387 35.38 44.2958 34.4872 43.7616C33.5654 43.2085 32.0818 42.1517 30.7158 40.2646C30.1918 40.5564 29.8129 40.8467 29.5603 41.0601C29.5313 41.0848 29.1205 41.4724 28.5209 41.7874C28.2742 41.9166 28.1392 41.9572 27.9896 41.9514C27.7167 41.9398 27.5193 41.7787 27.4206 41.6959C26.612 41.0122 25.172 39.4604 24.8875 38.3644C24.8352 38.1612 24.828 38.0015 24.8265 37.955C24.8192 37.582 24.9325 37.2771 25.0225 37.0869H25.0254Z" fill="#735BF2"/>
<path id="Vector_3" d="M64.1561 13.9231C64.2345 16.3299 64.069 22.1801 60.0915 28.1289C57.48 32.0353 54.2675 34.4218 52.228 35.705C52.1626 33.455 52.3804 30.1612 53.7957 26.4755C56.5045 19.4248 61.8698 15.4357 64.1561 13.9231Z" fill="#FF87A4"/>
<path id="Vector_4" d="M60.5181 34.7283C60.5181 34.7283 60.4005 34.6136 60.2409 34.5265C58.075 33.355 51.8678 37.8595 51.8678 37.8595C48.5275 40.2837 47.1935 41.6816 45.3644 43.1609C43.5223 44.6488 38.141 48.9994 30.7274 50.0736C28.3918 50.4118 23.311 51.1086 18.2854 48.3403C17.2286 47.7582 14.4806 46.1629 12.4715 42.7776C11.1317 40.5189 10.6425 38.3385 10.4581 36.8404C10.432 36.6256 10.1344 36.5936 10.0618 36.7969C9.32873 38.8117 8.05419 41.5336 5.80704 44.254C3.86329 46.6071 1.82663 48.1908 0.274817 49.2099C0.049812 49.8631 -0.217291 51.0012 0.289334 52.0362C0.289334 52.0362 0.385143 52.6837 0.872896 52.8274C4.66169 53.948 9.38244 55.105 14.8726 55.9208C17.5639 56.32 24.9673 57.3086 34.6658 56.9181C41.1285 56.6583 49.8195 55.7365 59.8358 52.9725C60.1218 52.8942 60.3425 52.6633 60.4107 52.3716C60.9202 50.2014 61.8624 48.5392 61.5241 43.592C61.3528 41.0836 60.8259 40.5886 60.5922 37.9117C60.4789 36.6125 60.4862 35.5136 60.5196 34.7283H60.5181Z" fill="#735BF2"/>
<path id="Vector_5" d="M55.5468 11.7938C54.0574 8.82949 50.9378 7.77415 49.1944 7.18478C49.1944 7.18478 42.9175 4.69085 30.2025 10.4684C30.008 10.557 29.9165 10.705 29.9165 10.705C29.7772 10.9315 29.8468 11.2073 29.8701 11.3002C33.0201 23.8787 37.2894 30.0918 37.2894 30.0918C39.1519 32.802 41.7881 36.3019 45.3359 40.1008C45.3649 40.1284 45.5711 40.3215 45.8817 40.2925C46.1982 40.262 46.3651 40.0239 46.3869 39.992C47.6164 39.0136 48.846 38.0352 50.0755 37.0567C50.241 36.9246 50.5575 36.6575 50.5938 36.2627C50.6184 36.0087 50.5183 35.7938 50.4428 35.669C49.5486 34.7617 48.5528 33.6091 47.5947 32.185C46.2925 30.2485 45.4608 28.4093 44.9236 26.9315C44.4301 27.0404 43.8509 27.1275 43.202 27.1507C41.7924 27.2001 40.6224 26.9272 39.8138 26.6586C41.9478 26.7036 47.1984 26.5047 51.6723 22.8872C53.1922 21.6591 56.0549 19.3438 56.3176 15.7277C56.3597 15.1572 56.4105 13.5169 55.5439 11.7938H55.5468ZM48.0592 16.3461C47.7253 17.76 45.317 19.1783 41.9536 19.9172C41.4673 18.8197 40.9926 17.5597 40.5948 16.1429C40.3945 15.4287 40.2334 14.7406 40.1027 14.0874C42.8013 12.8128 45.3301 12.5559 46.683 13.3848C47.0242 13.5938 47.7355 14.0278 48.0258 14.8712C48.0258 14.8712 48.2523 15.5288 48.0592 16.3461Z" fill="#735BF2"/>
</g>
</g>
</svg>
