<svg width="42" height="42" viewBox="0 0 42 42" fill="none" xmlns="http://www.w3.org/2000/svg">
<rect width="42" height="42" rx="21" fill="#DFEDF9"/>
<path d="M11.7315 29.7485L30.2685 29.7485C30.9839 29.7485 31.5638 29.1686 31.5638 28.4532L31.5638 13.5467C31.5638 12.8314 30.9839 12.2514 30.2685 12.2514L11.7315 12.2514C11.0161 12.2514 10.4362 12.8314 10.4362 13.5467L10.4362 28.4532C10.4362 29.1686 11.0161 29.7485 11.7315 29.7485Z" fill="#127FE5"/>
<path opacity="0.7" d="M21.589 20.4861L31.0813 28.0675C31.7787 28.6245 31.3848 29.7487 30.4924 29.7487L11.5076 29.7487C10.6151 29.7487 10.2213 28.6245 10.9187 28.0675L20.411 20.4861C20.7555 20.211 21.2445 20.211 21.589 20.4861Z" fill="#349DFF"/>
<path d="M21.8765 23.3693L31.2178 14.3818C32.038 13.5927 31.4794 12.2065 30.3413 12.2065L11.6586 12.2065C10.5205 12.2065 9.96198 13.5927 10.7821 14.3818L20.1235 23.3693C20.6129 23.8402 21.387 23.8402 21.8765 23.3693Z" fill="#52ACFF"/>
</svg>
