<svg width="42" height="42" viewBox="0 0 42 42" fill="none" xmlns="http://www.w3.org/2000/svg">
<rect width="42" height="42" rx="21" fill="#FFEFD0"/>
<path d="M13.8928 23.4019L28.1071 23.4019C28.6942 23.4019 29.1702 22.9259 29.1702 22.3388V9.22648C29.1702 8.63935 28.6942 8.16339 28.1071 8.16339L13.8928 8.16339C13.3057 8.16339 12.8297 8.63935 12.8297 9.22648V22.3388C12.8297 22.9259 13.3057 23.4019 13.8928 23.4019Z" fill="#6FBD53"/>
<path d="M30.7915 33.2932H26.9588C26.6865 33.2932 26.4654 33.0721 26.4654 32.7998V26.0694H31.2849V32.7998C31.2849 33.0721 31.0638 33.2932 30.7915 33.2932Z" fill="#3B384A"/>
<path d="M15.0411 33.2932H11.2084C10.9361 33.2932 10.715 33.0721 10.715 32.7998V26.0694H15.5345V32.7998C15.5345 33.0721 15.3135 33.2932 15.0411 33.2932Z" fill="#3B384A"/>
<path d="M11.8107 29.7212L30.1893 29.7212C30.9484 29.7212 31.5638 29.1058 31.5638 28.3467L31.5638 11.3929C31.5638 10.6337 30.9484 10.0183 30.1893 10.0183L11.8107 10.0183C11.0516 10.0183 10.4362 10.6337 10.4362 11.3929L10.4362 28.3467C10.4362 29.1058 11.0516 29.7212 11.8107 29.7212Z" fill="#85D26A"/>
<path d="M13.0632 25.4863L13.0632 26.3548C13.0632 26.8883 13.4957 27.3208 14.0292 27.3208L15.728 27.3208C16.2615 27.3208 16.694 26.8883 16.694 26.3548L16.694 25.4863C16.694 24.9528 16.2615 24.5203 15.728 24.5203L14.0292 24.5203C13.4957 24.5203 13.0632 24.9528 13.0632 25.4863Z" fill="white"/>
<path d="M25.5394 25.4863L25.5394 26.3548C25.5394 26.8883 25.9719 27.3208 26.5054 27.3208L28.2042 27.3208C28.7377 27.3208 29.1702 26.8883 29.1702 26.3548L29.1702 25.4863C29.1702 24.9528 28.7377 24.5203 28.2042 24.5203L26.5054 24.5203C25.9719 24.5203 25.5394 24.9528 25.5394 25.4863Z" fill="white"/>
<path d="M13.5794 21.7744L28.4202 21.7744C28.8344 21.7744 29.1702 21.4386 29.1702 21.0244V13.1841C29.1702 12.7699 28.8344 12.4341 28.4202 12.4341L13.5794 12.4341C13.1652 12.4341 12.8294 12.7699 12.8294 13.1841V21.0244C12.8294 21.4386 13.1652 21.7744 13.5794 21.7744Z" fill="#D4F7FF"/>
</svg>
