<svg width="42" height="42" viewBox="0 0 42 42" fill="none" xmlns="http://www.w3.org/2000/svg">
<rect width="42" height="42" rx="21" fill="#DFEDF9"/>
<path d="M13.6286 15.7161C13.019 15.7161 12.524 15.2211 12.524 14.6114V9.60399C12.524 9.15281 12.8903 8.7865 13.3415 8.7865H13.9158C14.367 8.7865 14.7333 9.15281 14.7333 9.60399V14.6114C14.7333 15.2211 14.2383 15.7161 13.6286 15.7161Z" fill="#3A3A3A"/>
<path d="M25.249 15.8359C24.6393 15.8359 24.1444 15.341 24.1444 14.7313V9.72386C24.1444 9.27268 24.5107 8.90638 24.9618 8.90638H25.5362C25.9873 8.90638 26.3536 9.27268 26.3536 9.72386V14.7313C26.3536 15.341 25.8587 15.8359 25.249 15.8359Z" fill="#3A3A3A"/>
<path d="M11.239 30.73L27.6387 30.73C28.3362 30.73 28.9016 30.1645 28.9016 29.467L28.9016 13.4243C28.9016 12.7268 28.3362 12.1613 27.6387 12.1613L11.239 12.1613C10.5415 12.1613 9.97608 12.7268 9.97608 13.4243L9.97608 29.467C9.97608 30.1645 10.5415 30.73 11.239 30.73Z" fill="white"/>
<path d="M19.5274 20.9131C18.9239 22.6854 18.3204 24.4578 17.7168 26.2301C17.1133 24.4578 16.5097 22.6854 15.9062 20.9131" stroke="#3A3A3A" stroke-width="1.05" stroke-linecap="round" stroke-linejoin="round"/>
<path d="M23.1487 20.9131C22.5451 22.6854 21.9416 24.4578 21.338 26.2301C20.7345 24.4578 20.1309 22.6854 19.5274 20.9131" stroke="#3A3A3A" stroke-width="1.05" stroke-linecap="round" stroke-linejoin="round"/>
<path d="M15.2802 23.5715H16.7535" stroke="#3A3A3A" stroke-width="1.05" stroke-linecap="round" stroke-linejoin="round"/>
<path d="M22.412 23.5715H23.8853" stroke="#3A3A3A" stroke-width="1.05" stroke-linecap="round" stroke-linejoin="round"/>
<path d="M27.7712 12.1614H11.1064C10.4822 12.1614 9.97607 12.737 9.97607 13.447V17.0266H28.9016V13.447C28.9016 12.737 28.3955 12.1614 27.7712 12.1614Z" fill="#3A3A3A"/>
<path d="M28.9015 33.2132C31.7305 33.2132 34.0239 30.9199 34.0239 28.0909C34.0239 25.2619 31.7305 22.9685 28.9015 22.9685C26.0725 22.9685 23.7792 25.2619 23.7792 28.0909C23.7792 30.9199 26.0725 33.2132 28.9015 33.2132Z" fill="#0085FF"/>
<path d="M28.9016 24.8997V28.5978C29.5566 29.2528 30.2116 29.9078 30.8666 30.5628" stroke="white" stroke-width="0.9" stroke-linecap="round" stroke-linejoin="round"/>
</svg>
