<svg width="42" height="42" viewBox="0 0 42 42" fill="none" xmlns="http://www.w3.org/2000/svg">
<rect width="42" height="42" rx="21" fill="#EFE7FF"/>
<path d="M18.3281 17.9901C18.3281 15.8345 16.5808 14.0872 14.4253 14.0872V21.893C16.5808 21.893 18.3281 20.1456 18.3281 17.9901Z" fill="#FFB2A2"/>
<path d="M14.1622 22.1206H8.91233C8.42316 22.1206 8.02661 22.5172 8.02661 23.0063V25.2314C8.02661 25.7206 8.42316 26.1172 8.91233 26.1172H14.1622C14.6513 26.1172 15.0479 25.7206 15.0479 25.2314V23.0063C15.0479 22.5172 14.6513 22.1206 14.1622 22.1206Z" fill="#FF5018"/>
<path d="M26.5282 16.6736H16.8681C12.7562 16.6736 9.42285 20.0069 9.42285 24.1188V24.1188C9.42285 28.2307 12.7562 31.564 16.8681 31.564H26.5282C30.64 31.564 33.9734 28.2307 33.9734 24.1188V24.1188C33.9734 20.0069 30.64 16.6736 26.5282 16.6736Z" fill="#FFB2A2"/>
<path d="M12.7757 22.474C13.301 22.474 13.7269 22.0481 13.7269 21.5228C13.7269 20.9974 13.301 20.5715 12.7757 20.5715C12.2503 20.5715 11.8245 20.9974 11.8245 21.5228C11.8245 22.0481 12.2503 22.474 12.7757 22.474Z" fill="#FF5018"/>
<path d="M26.4834 18.0259H18.0225C17.6091 18.0259 17.2739 18.361 17.2739 18.7745V18.9528C17.2739 19.3662 17.6091 19.7014 18.0225 19.7014H26.4834C26.8968 19.7014 27.232 19.3662 27.232 18.9528V18.7745C27.232 18.361 26.8968 18.0259 26.4834 18.0259Z" fill="#D17D6B"/>
<path d="M27.5 12.5C27.5 15.2614 25.2614 17.5 22.5 17.5C19.7386 17.5 17.5 15.2614 17.5 12.5C17.5 9.73858 19.7386 7.5 22.5 7.5C25.2614 7.5 27.5 9.73858 27.5 12.5Z" fill="#FFB800" stroke="#D3A225"/>
<path d="M28.6489 28.8828H26.9665C26.4002 28.8828 25.9412 29.3419 25.9412 29.9081V32.1048C25.9412 32.6711 26.4002 33.1301 26.9665 33.1301H28.6489C29.2152 33.1301 29.6743 32.6711 29.6743 32.1048V29.9081C29.6743 29.3419 29.2152 28.8828 28.6489 28.8828Z" fill="#FFB2A2"/>
<path d="M17.218 28.8828H15.5356C14.9693 28.8828 14.5103 29.3419 14.5103 29.9081V32.1048C14.5103 32.6711 14.9693 33.1301 15.5356 33.1301H17.218C17.7843 33.1301 18.2434 32.6711 18.2434 32.1048V29.9081C18.2434 29.3419 17.7843 28.8828 17.218 28.8828Z" fill="#FFB2A2"/>
</svg>
