<svg width="42" height="42" viewBox="0 0 42 42" fill="none" xmlns="http://www.w3.org/2000/svg">
<rect width="42" height="42" rx="21" fill="#EFE7FF"/>
<path d="M21 33.9734C28.165 33.9734 33.9734 28.165 33.9734 21C33.9734 13.835 28.165 8.02661 21 8.02661C13.835 8.02661 8.02661 13.835 8.02661 21C8.02661 28.165 13.835 33.9734 21 33.9734Z" fill="#755BFF"/>
<path d="M21.0106 17.3247C20.1358 19.8936 19.261 22.4625 18.3862 25.0314C17.5114 22.4625 16.6366 19.8936 15.7618 17.3247" stroke="white" stroke-width="1.66454" stroke-linecap="round" stroke-linejoin="round"/>
<path d="M26.2594 17.3247C25.3846 19.8936 24.5098 22.4625 23.635 25.0314C22.7602 22.4625 21.8854 19.8936 21.0106 17.3247" stroke="white" stroke-width="1.66454" stroke-linecap="round" stroke-linejoin="round"/>
<path d="M14.8544 21.178H16.9898" stroke="white" stroke-width="1.66454" stroke-linecap="round" stroke-linejoin="round"/>
<path d="M25.1917 21.178H27.3271" stroke="white" stroke-width="1.66454" stroke-linecap="round" stroke-linejoin="round"/>
</svg>
