<svg width="42" height="42" viewBox="0 0 42 42" fill="none" xmlns="http://www.w3.org/2000/svg">
<rect width="42" height="42" rx="21" fill="#EFE7FF"/>
<path d="M11.8359 10.001H23.3206C23.4166 10.001 23.4945 10.0789 23.4945 10.1748V11.5376H11.662V10.1748C11.662 10.0789 11.7399 10.001 11.8359 10.001Z" fill="#96959B"/>
<path d="M10.9876 11.0137H24.1689C24.5629 11.0137 24.8828 11.3335 24.8828 11.7275V31.9991H10.2737V11.7275C10.2737 11.3335 10.5936 11.0137 10.9876 11.0137Z" fill="#9992B4"/>
<path d="M23.4945 12.6965H11.5881V14.4851H23.4945V12.6965Z" fill="#C4DBFF"/>
<path d="M23.4945 15.4907H11.5881V17.2792H23.4945V15.4907Z" fill="#C4DBFF"/>
<path d="M23.4945 18.2695H11.5881V20.0581H23.4945V18.2695Z" fill="#C4DBFF"/>
<path d="M23.4945 21.0481H11.5881V22.8366H23.4945V21.0481Z" fill="#C4DBFF"/>
<path d="M23.4945 23.8267H11.5881V25.6152H23.4945V23.8267Z" fill="#C4DBFF"/>
<path d="M23.4945 26.6055H11.5881V28.394H23.4945V26.6055Z" fill="#C4DBFF"/>
<path d="M27.1242 28.6414C30.8918 28.6414 33.946 25.5872 33.946 21.8196C33.946 18.052 30.8918 14.9978 27.1242 14.9978C23.3566 14.9978 20.3024 18.052 20.3024 21.8196C20.3024 25.5872 23.3566 28.6414 27.1242 28.6414Z" fill="#755BFF"/>
<path d="M27.1298 19.887C26.6698 21.2378 26.2098 22.5886 25.7498 23.9394C25.2898 22.5886 24.8298 21.2378 24.3698 19.887" fill="#755BFF"/>
<path d="M27.1298 19.887C26.6698 21.2378 26.2098 22.5886 25.7498 23.9394C25.2898 22.5886 24.8298 21.2378 24.3698 19.887" stroke="white" stroke-width="1.05" stroke-linecap="round" stroke-linejoin="round"/>
<path d="M29.8898 19.887C29.4298 21.2378 28.9698 22.5886 28.5098 23.9394C28.0498 22.5886 27.5898 21.2378 27.1298 19.887" fill="#755BFF"/>
<path d="M29.8898 19.887C29.4298 21.2378 28.9698 22.5886 28.5098 23.9394C28.0498 22.5886 27.5898 21.2378 27.1298 19.887" stroke="white" stroke-width="1.05" stroke-linecap="round" stroke-linejoin="round"/>
<path d="M23.8927 21.9131H25.0156" stroke="white" stroke-width="1.05" stroke-linecap="round" stroke-linejoin="round"/>
<path d="M29.3283 21.9131H30.4512" stroke="white" stroke-width="1.05" stroke-linecap="round" stroke-linejoin="round"/>
</svg>
