<svg width="42" height="42" viewBox="0 0 42 42" fill="none" xmlns="http://www.w3.org/2000/svg">
<rect width="42" height="42" rx="21" fill="#EFE7FF"/>
<path d="M12.1587 23.0535C13.2929 23.0535 14.2123 22.1341 14.2123 20.9999C14.2123 19.8657 13.2929 18.9463 12.1587 18.9463C11.0245 18.9463 10.1051 19.8657 10.1051 20.9999C10.1051 22.1341 11.0245 23.0535 12.1587 23.0535Z" fill="#735BF2"/>
<path d="M21 23.0535C22.1342 23.0535 23.0536 22.1341 23.0536 20.9999C23.0536 19.8657 22.1342 18.9463 21 18.9463C19.8658 18.9463 18.9464 19.8657 18.9464 20.9999C18.9464 22.1341 19.8658 23.0535 21 23.0535Z" fill="#735BF2"/>
<path d="M29.8413 23.0535C30.9755 23.0535 31.8949 22.1341 31.8949 20.9999C31.8949 19.8657 30.9755 18.9463 29.8413 18.9463C28.7071 18.9463 27.7877 19.8657 27.7877 20.9999C27.7877 22.1341 28.7071 23.0535 29.8413 23.0535Z" fill="#735BF2"/>
</svg>
