<svg width="42" height="42" viewBox="0 0 42 42" fill="none" xmlns="http://www.w3.org/2000/svg">
<rect width="42" height="42" rx="21" fill="#F4E2EC"/>
<path d="M31.8864 29.6378C31.9021 29.5382 31.9228 29.4391 31.9228 29.3378C31.9228 29.2366 31.9021 29.1374 31.8864 29.0378V13.6836H10.0771V29.638H10.1135C10.4869 32.0056 15.2112 33.8794 21 33.8794C26.7888 33.8794 31.513 32.0054 31.8864 29.6378Z" fill="#FFA800"/>
<mask id="mask0_4925_34216" style="mask-type:luminance" maskUnits="userSpaceOnUse" x="10" y="13" width="22" height="21">
<path d="M31.8864 29.6378C31.9021 29.5382 31.9228 29.4391 31.9228 29.3378C31.9228 29.2366 31.9021 29.1374 31.8864 29.0378V13.6836H10.0771V29.638H10.1135C10.4869 32.0056 15.2112 33.8794 21 33.8794C26.7888 33.8794 31.513 32.0054 31.8864 29.6378Z" fill="white"/>
</mask>
<g mask="url(#mask0_4925_34216)">
<path d="M32.6769 16.4734C32.6769 19.3114 27.449 21.6121 21 21.6121C14.551 21.6121 9.32312 19.3114 9.32312 16.4734" stroke="#FF8039" stroke-width="1.2" stroke-miterlimit="10" stroke-linecap="round"/>
<path d="M32.6769 20.8462C32.6769 23.6842 27.449 25.9849 21 25.9849C14.551 25.9849 9.32312 23.6842 9.32312 20.8462" stroke="#FF8039" stroke-width="1.2" stroke-miterlimit="10" stroke-linecap="round"/>
<path d="M32.6769 25.0386C32.6769 27.8766 27.449 30.1773 21 30.1773C14.551 30.1773 9.32312 27.8766 9.32312 25.0386" stroke="#FF8039" stroke-width="1.2" stroke-miterlimit="10" stroke-linecap="round"/>
</g>
<path d="M21 18.2251C27.0326 18.2251 31.9229 16.1917 31.9229 13.6835C31.9229 11.1752 27.0326 9.14185 21 9.14185C14.9675 9.14185 10.0772 11.1752 10.0772 13.6835C10.0772 16.1917 14.9675 18.2251 21 18.2251Z" fill="#FFD541"/>
<path d="M22.4655 11.752C20.4516 12.8216 18.4376 13.8911 16.4237 14.9607C17.0193 13.7358 17.6149 12.511 18.2106 11.2861" stroke="white" stroke-width="1.05" stroke-linecap="round" stroke-linejoin="round"/>
<path d="M26.7204 12.2178C24.7065 13.2874 22.6925 14.3569 20.6786 15.4265C21.2742 14.2016 21.8699 12.9768 22.4655 11.752" stroke="white" stroke-width="1.05" stroke-linecap="round" stroke-linejoin="round"/>
<path d="M15.5178 12.9263L17.2489 13.1158" stroke="white" stroke-width="1.05" stroke-linecap="round" stroke-linejoin="round"/>
<path d="M23.8977 13.844L26.4116 14.0335" stroke="white" stroke-width="1.05" stroke-linecap="round" stroke-linejoin="round"/>
</svg>
