<svg width="42" height="42" viewBox="0 0 42 42" fill="none" xmlns="http://www.w3.org/2000/svg">
<rect width="42" height="42" rx="21" fill="#EFE7FF"/>
<g clip-path="url(#clip0_4925_32338)">
<path d="M30.0113 25.0179C29.4541 24.7699 27.1484 23.8178 24.3498 24.616C21.3327 25.4766 19.9417 27.7442 19.6687 28.2118C16.6931 27.0968 13.7176 25.9819 10.7421 24.867C10.0464 24.6374 9.33501 24.9181 9.09046 25.4259C8.83373 25.959 9.20238 26.5122 9.22809 26.5495C10.2484 27.6197 14.0619 31.3589 20.3225 32.0763C24.7995 32.5893 28.3013 31.302 29.8472 30.6242C29.9019 28.7554 29.9566 26.8867 30.0113 25.0179Z" fill="#FFB762"/>
<path d="M20.7992 24.4069C25.0537 24.4069 28.5027 20.958 28.5027 16.7035C28.5027 12.449 25.0537 9 20.7992 9C16.5447 9 13.0958 12.449 13.0958 16.7035C13.0958 20.958 16.5447 24.4069 20.7992 24.4069Z" fill="#755BFF"/>
<path d="M20.8055 14.521C20.2861 16.0464 19.7666 17.5718 19.2472 19.0971C18.7277 17.5718 18.2083 16.0464 17.6888 14.521" fill="#755BFF"/>
<path d="M20.8055 14.521C20.2861 16.0464 19.7666 17.5718 19.2472 19.0971C18.7277 17.5718 18.2083 16.0464 17.6888 14.521" stroke="white" stroke-width="1.05" stroke-linecap="round" stroke-linejoin="round"/>
<path d="M23.9222 14.521C23.4027 16.0464 22.8833 17.5718 22.3639 19.0971C21.8444 17.5718 21.325 16.0464 20.8055 14.521" fill="#755BFF"/>
<path d="M23.9222 14.521C23.4027 16.0464 22.8833 17.5718 22.3639 19.0971C21.8444 17.5718 21.325 16.0464 20.8055 14.521" stroke="white" stroke-width="1.05" stroke-linecap="round" stroke-linejoin="round"/>
<path d="M17.15 16.8091H18.418" stroke="white" stroke-width="1.05" stroke-linecap="round" stroke-linejoin="round"/>
<path d="M23.2882 16.8091H24.5562" stroke="white" stroke-width="1.05" stroke-linecap="round" stroke-linejoin="round"/>
<path d="M24.856 24.9104H18.5911C17.715 24.9104 17.0048 25.6206 17.0048 26.4968V26.4968C17.0048 27.3729 17.715 28.0831 18.5911 28.0831H24.856C25.7321 28.0831 26.4423 27.3729 26.4423 26.4968C26.4423 25.6206 25.7321 24.9104 24.856 24.9104Z" fill="#FFB762"/>
<path d="M23.1649 28.4441C21.6403 28.3238 20.1157 28.2034 18.5912 28.0831C17.7187 28.0831 17.0048 27.3693 17.0048 26.4968C17.0048 25.6243 17.7187 24.9104 18.5912 24.9104H24.856" stroke="#EFE7FF" stroke-width="0.75" stroke-linecap="round" stroke-linejoin="round"/>
<path d="M29.8352 30.5469C29.8939 28.6 29.9526 26.6532 30.0113 24.7064C29.4474 24.4531 26.914 23.3861 23.9375 24.2877C21.8393 24.9232 20.6128 26.2062 20.137 26.7655" fill="#FFB762"/>
<path d="M32.9649 24.0073H28.9953C28.7232 24.0073 28.5027 24.2279 28.5027 24.4999V30.9844C28.5027 31.2565 28.7232 31.477 28.9953 31.477H32.9649C33.2369 31.477 33.4575 31.2565 33.4575 30.9844V24.4999C33.4575 24.2279 33.2369 24.0073 32.9649 24.0073Z" fill="#B14D15"/>
</g>
<defs>
<clipPath id="clip0_4925_32338">
<rect width="24.4575" height="23.1941" fill="white" transform="translate(9 9)"/>
</clipPath>
</defs>
</svg>
