<svg width="42" height="42" viewBox="0 0 42 42" fill="none" xmlns="http://www.w3.org/2000/svg">
<rect width="42" height="42" rx="21" fill="#F4E2EC"/>
<path d="M21 33C27.6274 33 33 27.6274 33 21C33 14.3726 27.6274 9 21 9C14.3726 9 9 14.3726 9 21C9 27.6274 14.3726 33 21 33Z" fill="white"/>
<path d="M29.8956 35.2074C32.7246 35.2074 35.0179 32.914 35.0179 30.085C35.0179 27.256 32.7246 24.9626 29.8956 24.9626C27.0666 24.9626 24.7732 27.256 24.7732 30.085C24.7732 32.914 27.0666 35.2074 29.8956 35.2074Z" fill="#EE7DC1"/>
<path d="M29.8955 26.8936V30.5917C30.5505 31.2467 31.2055 31.9017 31.8605 32.5567" stroke="white" stroke-width="0.9" stroke-linecap="round" stroke-linejoin="round"/>
<path d="M17.8543 19.5883C18.812 19.5883 19.5884 18.8119 19.5884 17.8542C19.5884 16.8965 18.812 16.1201 17.8543 16.1201C16.8966 16.1201 16.1202 16.8965 16.1202 17.8542C16.1202 18.8119 16.8966 19.5883 17.8543 19.5883Z" stroke="#EE7DC1" stroke-width="1.5" stroke-linecap="round" stroke-linejoin="round"/>
<path d="M24.1455 25.8795C25.1032 25.8795 25.8796 25.1032 25.8796 24.1455C25.8796 23.1878 25.1032 22.4114 24.1455 22.4114C23.1878 22.4114 22.4114 23.1878 22.4114 24.1455C22.4114 25.1032 23.1878 25.8795 24.1455 25.8795Z" stroke="#EE7DC1" stroke-width="1.5" stroke-linecap="round" stroke-linejoin="round"/>
<path d="M25.3279 16.3364L16.3365 25.3279" stroke="#EE7DC1" stroke-width="1.5" stroke-linecap="round" stroke-linejoin="round"/>
</svg>
