<svg width="42" height="42" viewBox="0 0 42 42" fill="none" xmlns="http://www.w3.org/2000/svg">
<rect width="42" height="42" rx="21" fill="#FFCBBF"/>
<path d="M10.1489 22.2385C10.1489 25.2869 12.578 27.7581 15.5744 27.7581C18.5709 27.7581 21 25.2869 21 22.2385" stroke="#675F4F" stroke-width="1.8" stroke-miterlimit="10" stroke-linecap="round"/>
<path d="M21 22.2385C21 25.2869 23.4291 27.7581 26.4256 27.7581C29.422 27.7581 31.8511 25.2869 31.8511 22.2385" stroke="#675F4F" stroke-width="1.8" stroke-miterlimit="10" stroke-linecap="round"/>
<path d="M21 23.2326V16.7712" stroke="#675F4F" stroke-width="1.8" stroke-miterlimit="10"/>
<path d="M20.043 20.7575L14.5765 17.8435C12.3962 16.6813 13.1251 12.9653 15.5335 12.9653L26.4665 12.9653C28.8748 12.9653 29.6038 16.6813 27.4235 17.8435L21.9569 20.7575C21.3507 21.0807 20.6493 21.0807 20.043 20.7575Z" fill="#FF5E5E"/>
</svg>
