<svg width="42" height="42" viewBox="0 0 42 42" fill="none" xmlns="http://www.w3.org/2000/svg">
<rect width="42" height="42" rx="21" fill="#DFEDF9"/>
<path d="M10.658 33.3652H21.1536C21.517 33.3652 21.8116 33.0706 21.8116 32.7072L21.8116 16.7734C21.8116 16.41 21.517 16.1154 21.1536 16.1154H10.658C10.2946 16.1154 9.99994 16.41 9.99994 16.7734L9.99994 32.7072C9.99994 33.0706 10.2946 33.3652 10.658 33.3652Z" fill="#15C69B"/>
<path d="M17.0388 10.5449H14.7769V16.1154H17.0388V10.5449Z" fill="#3F3F3F"/>
<path d="M20.317 9.12588V9.38684C20.317 10.2202 19.6405 10.8967 18.8071 10.8967H14.2518C13.9807 10.8967 13.7607 10.6767 13.7607 10.4056V9.12588C13.7607 8.85483 13.9807 8.63477 14.2518 8.63477H19.8259C20.097 8.63477 20.317 8.85483 20.317 9.12588Z" fill="#3F3F3F"/>
<path d="M21.8117 18.7893H10V23.8159H21.8117V18.7893Z" fill="#7CE6C6"/>
<path d="M12.8748 13.489H18.937C19.1695 13.489 19.3583 13.6778 19.3583 13.9103V16.1154H12.4535V13.9103C12.4535 13.6778 12.6423 13.489 12.8748 13.489Z" fill="#3F3F3F"/>
<path d="M24.0919 22.6431H31.0227C31.7968 22.6431 32.4252 23.2715 32.4252 24.0456V26.1413H22.6893V24.0456C22.6893 23.2715 23.3178 22.6431 24.0919 22.6431Z" fill="#15C69B"/>
<path d="M31.7239 33.3652H23.3906C23.0035 33.3652 22.6893 33.051 22.6893 32.664V26.1414H32.4252V32.664C32.4252 33.051 32.1109 33.3652 31.7239 33.3652Z" fill="#7CE6C6"/>
</svg>
