<svg width="42" height="42" viewBox="0 0 42 42" fill="none" xmlns="http://www.w3.org/2000/svg">
<rect width="42" height="42" rx="21" fill="#D6F5E4"/>
<path d="M29.3213 17.9009H25.3726C24.6335 17.9009 24.0344 18.5 24.0344 19.239V29.8861C24.0344 30.6252 24.6335 31.2243 25.3726 31.2243H29.3213C30.0604 31.2243 30.6595 30.6252 30.6595 29.8861V19.239C30.6595 18.5 30.0604 17.9009 29.3213 17.9009Z" fill="#FF9B26"/>
<path d="M27.9999 20.428H25.7248C25.4853 20.428 25.2911 20.6221 25.2911 20.8616V28.2634C25.2911 28.5029 25.4853 28.697 25.7248 28.697H27.9999C28.2394 28.697 28.4335 28.5029 28.4335 28.2634V20.8616C28.4335 20.6221 28.2394 20.428 27.9999 20.428Z" fill="#D6F5E4"/>
<path d="M26.4151 13.6345H13.5449C13.1307 13.6345 12.7949 13.9703 12.7949 14.3845V32.6968C12.7949 33.111 13.1307 33.4468 13.5449 33.4468H26.4151C26.8293 33.4468 27.1651 33.111 27.1651 32.6968V14.3845C27.1651 13.9703 26.8293 13.6345 26.4151 13.6345Z" fill="#FF9B26"/>
<path d="M17.4508 19.7515V29.3738" stroke="#E1772A" stroke-width="1.66454" stroke-linecap="round" stroke-linejoin="round"/>
<path d="M22.5093 19.7515V29.3738" stroke="#E1772A" stroke-width="1.66454" stroke-linecap="round" stroke-linejoin="round"/>
<mask id="path-7-inside-1_4925_32734" fill="white">
<path fill-rule="evenodd" clip-rule="evenodd" d="M12.8149 11.7378V11.7376C12.8149 10.067 14.1693 8.71265 15.8399 8.71265C16.9176 8.71265 17.8638 9.2763 18.3995 10.1249C18.7514 9.84484 19.1969 9.67749 19.6816 9.67749C20.8194 9.67749 21.7417 10.5998 21.7417 11.7376V11.7378H27.1851V15.5317H18V22.1411C18 23.0297 17.497 23.75 16.8765 23.75H16.1235C15.503 23.75 15 23.0297 15 22.1411V15.5317H12.8149V11.7378Z"/>
</mask>
<path fill-rule="evenodd" clip-rule="evenodd" d="M12.8149 11.7378V11.7376C12.8149 10.067 14.1693 8.71265 15.8399 8.71265C16.9176 8.71265 17.8638 9.2763 18.3995 10.1249C18.7514 9.84484 19.1969 9.67749 19.6816 9.67749C20.8194 9.67749 21.7417 10.5998 21.7417 11.7376V11.7378H27.1851V15.5317H18V22.1411C18 23.0297 17.497 23.75 16.8765 23.75H16.1235C15.503 23.75 15 23.0297 15 22.1411V15.5317H12.8149V11.7378Z" fill="white"/>
<path d="M18.3995 10.1249L17.9768 10.3918L18.2745 10.8635L18.7109 10.5161L18.3995 10.1249ZM21.7417 11.7378H21.2417V12.2378H21.7417V11.7378ZM27.1851 11.7378H27.6851V11.2378H27.1851V11.7378ZM27.1851 15.5317V16.0317H27.6851V15.5317H27.1851ZM18 15.5317V15.0317H17.5V15.5317H18ZM15 15.5317H15.5V15.0317H15V15.5317ZM12.8149 15.5317H12.3149V16.0317H12.8149V15.5317ZM12.3149 11.7376V11.7378H13.3149V11.7376H12.3149ZM15.8399 8.21265C13.8931 8.21265 12.3149 9.79081 12.3149 11.7376H13.3149C13.3149 10.3431 14.4454 9.21265 15.8399 9.21265V8.21265ZM18.8223 9.85799C18.1988 8.8704 17.0963 8.21265 15.8399 8.21265V9.21265C16.739 9.21265 17.5287 9.68221 17.9768 10.3918L18.8223 9.85799ZM19.6816 9.17749C19.0798 9.17749 18.5253 9.38574 18.0881 9.73372L18.7109 10.5161C18.9775 10.3039 19.3141 10.1775 19.6816 10.1775V9.17749ZM22.2417 11.7376C22.2417 10.3237 21.0955 9.17749 19.6816 9.17749V10.1775C20.5432 10.1775 21.2417 10.876 21.2417 11.7376H22.2417ZM22.2417 11.7378V11.7376H21.2417V11.7378H22.2417ZM27.1851 11.2378H21.7417V12.2378H27.1851V11.2378ZM27.6851 15.5317V11.7378H26.6851V15.5317H27.6851ZM18 16.0317H27.1851V15.0317H18V16.0317ZM18.5 22.1411V15.5317H17.5V22.1411H18.5ZM16.8765 24.25C17.3952 24.25 17.8133 23.9483 18.0809 23.565C18.3497 23.1801 18.5 22.6751 18.5 22.1411H17.5C17.5 22.4956 17.3988 22.7951 17.261 22.9925C17.122 23.1916 16.9783 23.25 16.8765 23.25V24.25ZM16.1235 24.25H16.8765V23.25H16.1235V24.25ZM14.5 22.1411C14.5 22.6751 14.6503 23.1801 14.9191 23.565C15.1867 23.9483 15.6048 24.25 16.1235 24.25V23.25C16.0217 23.25 15.878 23.1916 15.739 22.9925C15.6012 22.7951 15.5 22.4956 15.5 22.1411H14.5ZM14.5 15.5317V22.1411H15.5V15.5317H14.5ZM12.8149 16.0317H15V15.0317H12.8149V16.0317ZM12.3149 11.7378V15.5317H13.3149V11.7378H12.3149Z" fill="#F7F7F8" mask="url(#path-7-inside-1_4925_32734)"/>
</svg>
