<svg width="42" height="42" viewBox="0 0 42 42" fill="none" xmlns="http://www.w3.org/2000/svg">
<rect width="42" height="42" rx="21" fill="#D6F5E4"/>
<path d="M15.9492 19.5718H15.9492C15.1934 19.5718 14.5807 20.1845 14.5807 20.9404V32.6604C14.5807 33.4163 15.1934 34.029 15.9492 34.029C16.7051 34.029 17.3178 33.4163 17.3178 32.6604V20.9404C17.3178 20.1845 16.7051 19.5718 15.9492 19.5718Z" fill="#069751"/>
<path d="M15.9492 21.3942C18.2494 21.3942 20.1141 18.7279 20.1141 15.4389C20.1141 12.1499 18.2494 9.48364 15.9492 9.48364C13.649 9.48364 11.7843 12.1499 11.7843 15.4389C11.7843 18.7279 13.649 21.3942 15.9492 21.3942Z" fill="#069751"/>
<path d="M15.9492 21.3943C18.2494 21.3943 20.1141 18.8931 20.1141 15.8076C20.1141 12.7222 18.2494 10.2209 15.9492 10.2209C13.649 10.2209 11.7843 12.7222 11.7843 15.8076C11.7843 18.8931 13.649 21.3943 15.9492 21.3943Z" fill="#069751"/>
<path d="M26.0008 19.5718H26.0008C25.2449 19.5718 24.6322 20.1845 24.6322 20.9404V32.6604C24.6322 33.4163 25.2449 34.029 26.0008 34.029C26.7566 34.029 27.3693 33.4163 27.3693 32.6604V20.9404C27.3693 20.1845 26.7566 19.5718 26.0008 19.5718Z" fill="#12771C"/>
<path d="M26.0906 21.3942H25.9109C23.6422 21.3942 21.7859 19.538 21.7859 17.2692L22.2027 9.48364H29.7989L30.2157 17.2692C30.2157 19.538 28.3594 21.3942 26.0906 21.3942Z" fill="#12771C"/>
<path d="M28.1129 8.57234C28.1129 8.2402 27.8436 7.97095 27.5115 7.97095C27.1793 7.97095 26.9101 8.2402 26.9101 8.57234V16.3995C26.9101 16.7316 27.1793 17.0009 27.5115 17.0009C27.8436 17.0009 28.1129 16.7316 28.1129 16.3995V8.57234Z" fill="#D6F5E4"/>
<path d="M24.4901 7.97095H24.4901C24.158 7.97095 23.8887 8.2402 23.8887 8.57234V16.3995C23.8887 16.7316 24.158 17.0009 24.4901 17.0009C24.8222 17.0009 25.0915 16.7316 25.0915 16.3995V8.57234C25.0915 8.2402 24.8222 7.97095 24.4901 7.97095Z" fill="#D6F5E4"/>
<path d="M15.9492 21.3942C18.2494 21.3942 20.1141 18.7279 20.1141 15.4389C20.1141 12.1499 18.2494 9.48364 15.9492 9.48364C13.649 9.48364 11.7843 12.1499 11.7843 15.4389C11.7843 18.7279 13.649 21.3942 15.9492 21.3942Z" fill="#069751"/>
</svg>
