<svg width="42" height="42" viewBox="0 0 42 42" fill="none" xmlns="http://www.w3.org/2000/svg">
<rect width="42" height="42" rx="21" fill="#DFEDF9"/>
<path d="M27.0127 10.8118H14.954V18.7341H27.0127V10.8118Z" stroke="#717273" stroke-width="1.66454" stroke-linecap="round" stroke-linejoin="round"/>
<path d="M13.8154 34.4722C13.0239 34.4722 12.3813 33.8296 12.3813 33.0381V28.6039C12.3813 28.0182 12.8569 27.5426 13.4426 27.5426H14.1882C14.774 27.5426 15.2495 28.0182 15.2495 28.6039V33.0381C15.2495 33.8296 14.6069 34.4722 13.8154 34.4722Z" fill="#2B4963"/>
<path d="M28.145 34.4722C27.3535 34.4722 26.7109 33.8296 26.7109 33.0381V28.6039C26.7109 28.0182 27.1864 27.5426 27.7722 27.5426H28.5178C29.1035 27.5426 29.579 28.0182 29.579 28.6039V33.0381C29.579 33.8296 28.9365 34.4722 28.145 34.4722Z" fill="#2B4963"/>
<path d="M11.6981 32.0852H30.3019C30.9989 32.0852 31.5638 31.5202 31.5638 30.8233L31.5638 16.7407C31.5638 16.0438 30.9989 15.4788 30.3019 15.4788L11.6981 15.4788C11.0012 15.4788 10.4362 16.0438 10.4362 16.7407L10.4362 30.8233C10.4362 31.5202 11.0012 32.0852 11.6981 32.0852Z" fill="#FF778F"/>
<path d="M17.7965 20.4607V27.103" stroke="#D44761" stroke-width="1.66454" stroke-linecap="round" stroke-linejoin="round"/>
<path d="M24.2034 20.4607V27.103" stroke="#D44761" stroke-width="1.66454" stroke-linecap="round" stroke-linejoin="round"/>
<path d="M27.0378 9.5H14.9622C14.4308 9.5 14 9.90099 14 10.3956V10.6044C14 11.099 14.4308 11.5 14.9622 11.5H27.0378C27.5692 11.5 28 11.099 28 10.6044V10.3956C28 9.90099 27.5692 9.5 27.0378 9.5Z" fill="#2B4963"/>
</svg>
