<svg width="42" height="42" viewBox="0 0 42 42" fill="none" xmlns="http://www.w3.org/2000/svg">
<rect width="42" height="42" rx="21" fill="#DFEDF9"/>
<path d="M27.0927 13.1121C26.3956 12.3213 26.4715 11.1152 27.2622 10.4181L24.3563 7.12175C24.0824 6.81099 23.6085 6.78116 23.2978 7.05512L7.97198 20.5657C7.66129 20.8396 7.63139 21.3135 7.90534 21.6242L10.8113 24.9206C11.602 24.2235 12.8082 24.2994 13.5053 25.0901C14.2024 25.8809 14.1265 27.0871 13.3357 27.7842L16.2416 31.0805C16.5155 31.3912 16.9895 31.4211 17.3002 31.1472L32.626 17.6366C32.9367 17.3627 32.9665 16.8888 32.6926 16.5781L29.7867 13.2817C28.9959 13.9788 27.7898 13.9029 27.0927 13.1121Z" fill="#5AA0E1" fill-opacity="0.4"/>
<path d="M28.0574 17.0562C27.3603 16.2654 27.4362 15.0593 28.227 14.3622L25.3211 11.0658C25.0471 10.7551 24.5733 10.7253 24.2625 10.9992L8.9367 24.5098C8.62601 24.7837 8.59611 25.2576 8.87007 25.5683L11.776 28.8647C12.5667 28.1676 13.7729 28.2434 14.47 29.0342C15.1672 29.825 15.0912 31.0312 14.3004 31.7283L17.2063 35.0246C17.4802 35.3353 17.9542 35.3652 18.2649 35.0913L33.5907 21.5807C33.9015 21.3068 33.9312 20.8329 33.6573 20.5222L30.7514 17.2258C29.9607 17.9229 28.7545 17.847 28.0574 17.0562Z" fill="white"/>
<path d="M24.2625 10.9992L18.9754 15.6601L28.3036 26.2416L33.5907 21.5807C33.9015 21.3068 33.9312 20.8329 33.6573 20.5222L30.7514 17.2258C29.9607 17.9229 28.7546 17.847 28.0574 17.0562C27.3603 16.2654 27.4362 15.0593 28.227 14.3622L25.3211 11.0658C25.0471 10.7551 24.5733 10.7253 24.2625 10.9992Z" fill="#FF8C06"/>
<path d="M18.6356 20.3148L14.1942 24.23C13.9226 24.4695 13.8966 24.8838 14.136 25.1554L18.475 30.0773C18.7144 30.3489 19.1287 30.375 19.4003 30.1355L23.8416 26.2203C24.1132 25.9808 24.1393 25.5665 23.8998 25.2949L19.5609 20.373C19.3215 20.1014 18.9072 20.0753 18.6356 20.3148Z" fill="#FF8C06"/>
<path d="M23.3515 16.138L23.3515 16.138C22.8847 16.5495 22.8399 17.2614 23.2514 17.7282L26.9674 21.9434C27.3788 22.4102 28.0908 22.455 28.5575 22.0435C29.0243 21.6321 29.0691 20.9201 28.6576 20.4534L24.9416 16.2381C24.5301 15.7714 23.8182 15.7266 23.3515 16.138Z" fill="white"/>
</svg>
