<svg width="42" height="42" viewBox="0 0 42 42" fill="none" xmlns="http://www.w3.org/2000/svg">
<rect width="42" height="42" rx="21" fill="#DFEDF9"/>
<path d="M23.5561 10.197H12.9799C11.9816 10.197 11.1723 11.0063 11.1723 12.0046V29.9951C11.1723 30.9934 11.9816 31.8027 12.9799 31.8027H23.5561C24.5544 31.8027 25.3637 30.9934 25.3637 29.9951V12.0046C25.3637 11.0063 24.5544 10.197 23.5561 10.197Z" fill="#FDFDFF"/>
<path d="M23.5558 10.9468C24.139 10.9468 24.6135 11.4213 24.6135 12.0045V29.9955C24.6135 30.5787 24.139 31.0532 23.5558 31.0532H12.9799C12.3967 31.0532 11.9222 30.5787 11.9222 29.9955V12.0045C11.9222 11.4213 12.3967 10.9468 12.9799 10.9468H23.5558ZM23.5558 9.44678H12.9799C11.5673 9.44678 10.4222 10.5919 10.4222 12.0045V29.9955C10.4222 31.408 11.5673 32.5532 12.9799 32.5532H23.5558C24.9684 32.5532 26.1135 31.408 26.1135 29.9955V12.0045C26.1135 10.5919 24.9684 9.44678 23.5558 9.44678Z" fill="#6484A1"/>
<path d="M27.1242 28.6414C30.8918 28.6414 33.946 25.5872 33.946 21.8196C33.946 18.052 30.8918 14.9978 27.1242 14.9978C23.3566 14.9978 20.3024 18.052 20.3024 21.8196C20.3024 25.5872 23.3566 28.6414 27.1242 28.6414Z" fill="#0085FF"/>
<path d="M27.1298 19.887C26.6698 21.2378 26.2098 22.5886 25.7498 23.9394C25.2898 22.5886 24.8298 21.2378 24.3698 19.887" fill="#0085FF"/>
<path d="M27.1298 19.887C26.6698 21.2378 26.2098 22.5886 25.7498 23.9394C25.2898 22.5886 24.8298 21.2378 24.3698 19.887" stroke="white" stroke-width="1.05" stroke-linecap="round" stroke-linejoin="round"/>
<path d="M29.8898 19.887C29.4298 21.2378 28.9698 22.5886 28.5098 23.9394C28.0498 22.5886 27.5898 21.2378 27.1298 19.887" fill="#0085FF"/>
<path d="M29.8898 19.887C29.4298 21.2378 28.9698 22.5886 28.5098 23.9394C28.0498 22.5886 27.5898 21.2378 27.1298 19.887" stroke="white" stroke-width="1.05" stroke-linecap="round" stroke-linejoin="round"/>
<path d="M23.8927 21.9131H25.0156" stroke="white" stroke-width="1.05" stroke-linecap="round" stroke-linejoin="round"/>
<path d="M29.3283 21.9131H30.4512" stroke="white" stroke-width="1.05" stroke-linecap="round" stroke-linejoin="round"/>
<path d="M20.0939 11.4653H16.4418C16.118 11.4653 15.8556 11.7278 15.8556 12.0515V12.0515C15.8556 12.3753 16.118 12.6377 16.4418 12.6377H20.0939C20.4176 12.6377 20.6801 12.3753 20.6801 12.0515C20.6801 11.7278 20.4176 11.4653 20.0939 11.4653Z" fill="#575FA0"/>
<path d="M20.0939 11.4653H16.4418C16.1194 11.4653 15.8556 11.7291 15.8556 12.0515C15.8556 12.3739 16.1194 12.6377 16.4418 12.6377H20.0939C20.4163 12.6377 20.6801 12.3739 20.6801 12.0515C20.6801 11.7291 20.4163 11.4653 20.0939 11.4653Z" fill="#6484A1"/>
</svg>
