<svg width="42" height="42" viewBox="0 0 42 42" fill="none" xmlns="http://www.w3.org/2000/svg">
<rect width="42" height="42" rx="21" fill="#EFE7FF"/>
<path d="M26.0663 12.3394L16.8964 8.8274C16.5003 8.67571 16.0563 8.87382 15.9046 9.26991L12.1986 18.9464C12.0469 19.3425 12.245 19.7865 12.6411 19.9382L21.811 23.4502C22.2071 23.6019 22.6511 23.4038 22.8028 23.0077L26.5088 13.3312C26.6605 12.9351 26.4624 12.491 26.0663 12.3394Z" fill="#477C6E"/>
<path d="M27.9534 14.8063L19.1223 11.4241C18.7713 11.2896 18.3778 11.4652 18.2434 11.8162L15.2494 19.6336C15.115 19.9845 15.2906 20.378 15.6416 20.5124L24.4727 23.8947C24.8237 24.0291 25.2171 23.8535 25.3516 23.5025L28.3455 15.6852C28.4799 15.3342 28.3044 14.9407 27.9534 14.8063Z" fill="#00B383"/>
<path d="M12.317 17.4207H29.2695C29.6365 17.4207 29.9346 17.7187 29.9346 18.0858V32.5584C29.9346 32.9255 29.6365 33.2235 29.2695 33.2235H12.317C11.5828 33.2235 10.9867 32.6275 10.9867 31.8933V18.7509C10.9867 18.0167 11.5828 17.4207 12.317 17.4207Z" fill="#BB9878"/>
<path d="M29.4119 22.0403H22.6014C21.717 22.0403 21 22.7573 21 23.6417V26.1558C21 27.0402 21.717 27.7572 22.6014 27.7572H29.4119C30.2963 27.7572 31.0133 27.0402 31.0133 26.1558V23.6417C31.0133 22.7573 30.2963 22.0403 29.4119 22.0403Z" fill="#896340"/>
<path d="M23.4973 26.1465C24.1864 26.1465 24.745 25.5879 24.745 24.8988C24.745 24.2097 24.1864 23.6511 23.4973 23.6511C22.8083 23.6511 22.2497 24.2097 22.2497 24.8988C22.2497 25.5879 22.8083 26.1465 23.4973 26.1465Z" fill="#EFF25B"/>
</svg>
