<svg width="42" height="42" viewBox="0 0 42 42" fill="none" xmlns="http://www.w3.org/2000/svg">
<rect width="42" height="42" rx="21" fill="#FFCBBF"/>
<path d="M30.4665 25.5834C32.9703 25.5834 35 23.5537 35 21.0499C35 18.5461 32.9703 16.5164 30.4665 16.5164C27.9627 16.5164 25.933 18.5461 25.933 21.0499C25.933 23.5537 27.9627 25.5834 30.4665 25.5834Z" fill="white"/>
<path d="M11.5336 25.5834C14.0374 25.5834 16.0671 23.5537 16.0671 21.0499C16.0671 18.5461 14.0374 16.5164 11.5336 16.5164C9.02976 16.5164 7.00003 18.5461 7.00003 21.0499C7.00003 23.5537 9.02976 25.5834 11.5336 25.5834Z" fill="white"/>
<path d="M21.101 31.8696C27.0766 31.8696 31.9208 27.0254 31.9208 21.0498C31.9208 15.0742 27.0766 10.23 21.101 10.23C15.1254 10.23 10.2812 15.0742 10.2812 21.0498C10.2812 27.0254 15.1254 31.8696 21.101 31.8696Z" fill="white"/>
<path d="M25.2241 26.4462C24.7288 28.2068 22.7443 29.2108 21.0435 29.2162C19.356 29.2216 17.2851 28.2462 16.818 26.4221C16.5965 25.5573 16.6076 24.0146 17.7852 23.1812C18.7123 22.5251 20.034 22.5407 21.0889 23.244C22.3061 22.5645 23.727 22.6905 24.5857 23.4953C25.7244 24.5625 25.2759 26.2622 25.2241 26.4462Z" fill="#FFA700"/>
<path d="M17.0561 21.7552C17.6848 21.7552 18.1945 21.2456 18.1945 20.6169C18.1945 19.9882 17.6848 19.4785 17.0561 19.4785C16.4274 19.4785 15.9178 19.9882 15.9178 20.6169C15.9178 21.2456 16.4274 21.7552 17.0561 21.7552Z" fill="#644C1C"/>
<path d="M24.7338 21.7552C25.3625 21.7552 25.8721 21.2456 25.8721 20.6169C25.8721 19.9882 25.3625 19.4785 24.7338 19.4785C24.1051 19.4785 23.5954 19.9882 23.5954 20.6169C23.5954 21.2456 24.1051 21.7552 24.7338 21.7552Z" fill="#644C1C"/>
<path d="M17.1895 8.11963C15.6602 8.33926 14.4461 9.42123 14.1559 10.7953C13.7923 12.5166 15.0664 13.8072 15.2376 13.9749C16.3249 15.0401 17.7026 15.022 18.2636 15.016C19.5337 15.0025 21.3658 14.4879 21.4982 13.5589C21.5794 12.9891 21.0275 12.2211 20.3928 12.1896C19.8347 12.162 19.2729 12.7069 19.212 13.2322C19.0998 14.2007 20.6416 15.5181 22.1263 15.3552C22.2218 15.3447 23.495 15.1849 23.9352 14.1493C24.3329 13.2136 23.8901 11.941 22.7481 11.2287" stroke="#675F4F" stroke-miterlimit="10" stroke-linecap="round"/>
<path d="M21.0304 30.3288C22.1393 30.3288 23.0382 29.4299 23.0382 28.321C23.0382 27.2121 22.1393 26.3132 21.0304 26.3132C19.9216 26.3132 19.0226 27.2121 19.0226 28.321C19.0226 29.4299 19.9216 30.3288 21.0304 30.3288Z" stroke="#D79414" stroke-width="0.787201" stroke-miterlimit="10"/>
<path d="M21.1011 28.6204C22.3482 28.6204 23.3592 27.6093 23.3592 26.3622C23.3592 25.115 22.3482 24.104 21.1011 24.104C19.8539 24.104 18.8429 25.115 18.8429 26.3622C18.8429 27.6093 19.8539 28.6204 21.1011 28.6204Z" fill="#FFDFA2"/>
</svg>
