<svg width="42" height="42" viewBox="0 0 42 42" fill="none" xmlns="http://www.w3.org/2000/svg">
<rect width="42" height="42" rx="21" fill="#FFCBBF"/>
<path d="M15.8677 23.1666C18.9203 23.1666 21.3949 20.459 21.3949 17.1191C21.3949 13.7791 18.9203 11.0715 15.8677 11.0715C12.8151 11.0715 10.3404 13.7791 10.3404 17.1191C10.3404 20.459 12.8151 23.1666 15.8677 23.1666Z" fill="#FF5B5B"/>
<path d="M26.1323 23.1666C29.1849 23.1666 31.6596 20.459 31.6596 17.1191C31.6596 13.7791 29.1849 11.0715 26.1323 11.0715C23.0797 11.0715 20.6051 13.7791 20.6051 17.1191C20.6051 20.459 23.0797 23.1666 26.1323 23.1666Z" fill="#FF5B5B"/>
<path d="M21 32.9287C21 32.9287 9.23831 25.6474 10.4245 16.0669H31.5755C32.7617 25.6474 21 32.9287 21 32.9287Z" fill="#FF5B5B"/>
<path d="M8.56787 19.0121H13.2354C13.7261 20.179 14.2168 21.3458 14.7075 22.5127C15.3119 19.8558 15.9163 17.1989 16.5207 14.542C16.9096 18.4556 17.2986 22.3691 17.6875 26.2827L19.9675 17.3246C20.3504 17.8871 20.7334 18.4496 21.1164 19.0121H28.8648" stroke="white" stroke-width="1.125" stroke-linecap="round" stroke-linejoin="round"/>
</svg>
