<svg width="42" height="42" viewBox="0 0 42 42" fill="none" xmlns="http://www.w3.org/2000/svg">
<rect width="42" height="42" rx="21" fill="#FFEFD0"/>
<rect x="13.875" y="11" width="15" height="9" fill="#D4F7FF"/>
<path d="M30.7915 32.2932H26.9588C26.6865 32.2932 26.4654 32.0721 26.4654 31.7998V25.0694H31.2849V31.7998C31.2849 32.0721 31.0639 32.2932 30.7915 32.2932Z" fill="#3B384A"/>
<path d="M15.0411 32.2932H11.2084C10.9361 32.2932 10.715 32.0721 10.715 31.7998V25.0694H15.5345V31.7998C15.5345 32.0721 15.3135 32.2932 15.0411 32.2932Z" fill="#3B384A"/>
<path d="M31.1893 19.1941H10.8106C9.9822 19.1941 9.31062 19.8657 9.31062 20.6941V27.1814C9.31062 28.0098 9.9822 28.6814 10.8106 28.6814H31.1893C32.0178 28.6814 32.6893 28.0098 32.6893 27.1814V20.6941C32.6893 19.8657 32.0178 19.1941 31.1893 19.1941Z" fill="#57BCF4"/>
<path d="M29.8134 11.0336C29.7267 10.2775 29.0867 9.70679 28.3257 9.70679H13.6744C12.9133 9.70679 12.2734 10.2775 12.1866 11.0336L11.25 19.1941H13.6436L14.3502 13.1115C14.4157 12.5479 14.8985 12.1225 15.4728 12.1225H26.5272C27.1014 12.1225 27.5843 12.5479 27.6497 13.1115L28.3563 19.1941H30.75L29.8134 11.0336Z" fill="#57BCF4"/>
<path d="M11.3094 23.7744L11.3094 24.6428C11.3094 25.1764 11.7419 25.6089 12.2754 25.6089L13.9742 25.6089C14.5077 25.6089 14.9402 25.1764 14.9402 24.6428L14.9402 23.7744C14.9402 23.2409 14.5077 22.8084 13.9742 22.8084L12.2754 22.8084C11.7419 22.8084 11.3094 23.2409 11.3094 23.7744Z" fill="white"/>
<path d="M27.0598 23.7744L27.0598 24.6428C27.0598 25.1764 27.4923 25.6089 28.0258 25.6089L29.7245 25.6089C30.2581 25.6089 30.6906 25.1764 30.6906 24.6428L30.6906 23.7744C30.6906 23.2409 30.2581 22.8084 29.7245 22.8084L28.0258 22.8084C27.4923 22.8084 27.0598 23.2409 27.0598 23.7744Z" fill="white"/>
<path d="M17.1858 24.2086V24.2086C17.1858 24.982 17.8127 25.6089 18.5861 25.6089L23.4139 25.6089C24.1873 25.6089 24.8142 24.982 24.8142 24.2086C24.8142 23.4353 24.1873 22.8084 23.4139 22.8084L18.5861 22.8084C17.8127 22.8084 17.1858 23.4353 17.1858 24.2086Z" fill="#D6D4D0"/>
</svg>
