<svg width="42" height="42" viewBox="0 0 42 42" fill="none" xmlns="http://www.w3.org/2000/svg">
<rect width="42" height="42" rx="21" fill="#FFCBBF"/>
<path d="M27.8188 21.8311H31.0442C31.2232 21.8311 31.3683 21.6859 31.3683 21.5069V11.7815C31.3683 11.6024 31.2232 11.4573 31.0442 11.4573H27.8188C27.6398 11.4573 27.4947 11.6024 27.4947 11.7815V21.5069C27.4947 21.6859 27.6398 21.8311 27.8188 21.8311Z" fill="white"/>
<path d="M21 11.4573L10.6317 20.9999H31.3683L21 11.4573Z" fill="white"/>
<path d="M11.3817 31.3738L30.6183 31.3738C31.0326 31.3738 31.3683 31.038 31.3683 30.6238V21.75C31.3683 21.3358 31.0326 21 30.6183 21H11.3817C10.9674 21 10.6317 21.3358 10.6317 21.75V30.6238C10.6317 31.038 10.9674 31.3738 11.3817 31.3738Z" fill="white"/>
<path d="M30.8097 22.0602L21.5079 13.4987C21.2209 13.2345 20.7792 13.2345 20.4921 13.4987L11.1903 22.0602C10.8855 22.3407 10.411 22.321 10.1305 22.0163L9.11462 20.9125C8.8341 20.6077 8.85378 20.1332 9.15857 19.8527L20.4921 9.42202C20.7792 9.15783 21.2208 9.15783 21.5079 9.42202L32.8415 19.8527C33.1462 20.1332 33.1659 20.6077 32.8854 20.9125L31.8695 22.0163C31.589 22.321 31.1145 22.3407 30.8097 22.0602Z" fill="#CE3707"/>
<path d="M24.0798 31.3738H17.9202V23.676C17.9202 22.8936 18.5555 22.2583 19.3379 22.2583H22.6621C23.4446 22.2583 24.0798 22.8936 24.0798 23.676V31.3738Z" fill="#DA6349"/>
</svg>
