<svg width="42" height="42" viewBox="0 0 42 42" fill="none" xmlns="http://www.w3.org/2000/svg">
<rect width="42" height="42" rx="21" fill="#D6F5E4"/>
<path d="M26.3098 31.8245H15.6902C15.2973 31.8245 14.9711 31.4803 14.9422 31.0354L13.8464 14.1171C13.8145 13.6235 14.1585 13.2031 14.5944 13.2031H27.4056C27.8415 13.2031 28.1855 13.6235 28.1536 14.1171L27.0577 31.0354C27.0289 31.4803 26.7026 31.8245 26.3098 31.8245Z" fill="white"/>
<path d="M26.3098 31.5745H15.6902C15.4553 31.5745 15.2138 31.3604 15.1917 31.0193L14.0959 14.1009C14.0711 13.7178 14.3347 13.4531 14.5944 13.4531H27.4056C27.6653 13.4531 27.9289 13.7178 27.9041 14.1009L26.8083 31.0193C26.7862 31.3604 26.5447 31.5745 26.3098 31.5745Z" stroke="#79540C" stroke-opacity="0.3" stroke-width="0.5"/>
<path d="M21 26.8468C23.2606 26.8468 25.0931 25.0143 25.0931 22.7537C25.0931 20.4932 23.2606 18.6606 21 18.6606C18.7395 18.6606 16.9069 20.4932 16.9069 22.7537C16.9069 25.0143 18.7395 26.8468 21 26.8468Z" fill="#00B383"/>
<path d="M28.6566 12.3955H13.3435C13.0532 12.3955 12.8178 12.6308 12.8178 12.9211V14.8977C12.8178 15.188 13.0532 15.4233 13.3435 15.4233H28.6566C28.9469 15.4233 29.1822 15.188 29.1822 14.8977V12.9211C29.1822 12.6308 28.9469 12.3955 28.6566 12.3955Z" fill="#464646"/>
<path d="M26.0369 10.1753H15.9631C15.1382 10.1753 14.4694 10.844 14.4694 11.669V13.1216C14.4694 13.9465 15.1382 14.6153 15.9631 14.6153H26.0369C26.8618 14.6153 27.5306 13.9465 27.5306 13.1216V11.669C27.5306 10.844 26.8618 10.1753 26.0369 10.1753Z" fill="#464646"/>
</svg>
