<svg width="48" height="48" viewBox="0 0 48 48" fill="none" xmlns="http://www.w3.org/2000/svg">
<rect width="48" height="48" rx="24" fill="#735BF2"/>
<path d="M13.1771 23.9971C13.1771 23.6006 13.3194 23.26 13.6038 22.9756C13.8883 22.6825 14.2288 22.5359 14.6254 22.5359H22.5521V14.6221C22.5521 14.2256 22.6944 13.885 22.9789 13.6006C23.2633 13.3161 23.6038 13.1738 24.0004 13.1738C24.4056 13.1738 24.7504 13.3161 25.0349 13.6006C25.3194 13.885 25.4616 14.2256 25.4616 14.6221V22.5359H33.3754C33.772 22.5359 34.1125 22.6825 34.397 22.9756C34.6814 23.26 34.8237 23.6006 34.8237 23.9971C34.8237 24.4023 34.6814 24.7471 34.397 25.0316C34.1125 25.3075 33.772 25.4454 33.3754 25.4454H25.4616V33.385C25.4616 33.773 25.3194 34.1092 25.0349 34.3937C24.7504 34.6781 24.4056 34.8204 24.0004 34.8204C23.6038 34.8204 23.2633 34.6781 22.9789 34.3937C22.6944 34.1092 22.5521 33.773 22.5521 33.385V25.4454H14.6254C14.2288 25.4454 13.8883 25.3075 13.6038 25.0316C13.3194 24.7471 13.1771 24.4023 13.1771 23.9971Z" fill="white"/>
</svg>
