<svg width="28" height="28" viewBox="0 0 28 28" fill="none" xmlns="http://www.w3.org/2000/svg">
<path d="M22.0901 12.305C23.043 12.305 23.8096 13.1078 23.8096 14.1055V15.906C23.8096 16.9037 23.043 17.7064 22.0901 17.7064H17.7751C16.3513 17.7064 15.1904 16.4908 15.1904 15C15.1904 13.5092 16.3513 12.2936 17.7751 12.2936H22.0901M22.0901 10H17.7751C15.1466 10 13 12.2477 13 15C13 17.7523 15.1466 20 17.7751 20H22.0901C24.2477 20 26 18.1651 26 15.906V14.1055C26 11.8463 24.2477 10.0115 22.0901 10.0115V10Z" fill="#A9ACB2"/>
<path d="M22.8947 6.3H21.9553C21.3474 6.3 20.85 5.805 20.85 5.2V4.1C20.85 3.495 20.3526 3 19.7447 3H6.31579C4.48105 3 3 4.474 3 6.3V21.337C3 22.272 3.36474 23.174 4.01684 23.856C4.71316 24.582 5.67474 25 6.68053 25H20.6842C22.5189 25 24 23.526 24 21.7V7.4C24 6.795 23.5026 6.3 22.8947 6.3ZM6.83 6.752C6.83 6.147 7.32737 5.652 7.93526 5.652H17.8547C18.4626 5.652 18.96 6.147 18.96 6.752C18.96 7.357 18.4626 7.852 17.8547 7.852H7.93526C7.32737 7.852 6.83 7.357 6.83 6.752ZM23.9337 15.573C23.9337 16.53 23.16 17.3 22.1984 17.3H21.8005H17.8547C16.4179 17.3 15.2463 16.134 15.2463 14.704C15.2463 13.274 16.4179 12.108 17.8547 12.108H21.8005H22.1984C23.16 12.108 23.9337 12.878 23.9337 13.835V15.562V15.573Z" fill="#A9ACB2"/>
</svg>
