<svg width="28" height="28" viewBox="0 0 28 28" fill="none" xmlns="http://www.w3.org/2000/svg">
<path d="M5.65539 20C5.1089 20 4.69505 19.8663 4.41385 19.5989C4.13795 19.3369 4 18.9439 4 18.4198V11.2647C4 10.7406 4.13795 10.3449 4.41385 10.0775C4.69505 9.81016 5.1089 9.67647 5.65539 9.67647H8.0191C8.5709 9.67647 8.98475 9.81016 9.26064 10.0775C9.54185 10.3449 9.68245 10.7406 9.68245 11.2647V18.4198C9.68245 18.9439 9.54185 19.3369 9.26064 19.5989C8.98475 19.8663 8.5709 20 8.0191 20H5.65539ZM12.8102 20C12.2637 20 11.8498 19.8663 11.5686 19.5989C11.2927 19.3369 11.1548 18.9439 11.1548 18.4198V8.93048C11.1548 8.40642 11.2927 8.0107 11.5686 7.74332C11.8498 7.47594 12.2637 7.34225 12.8102 7.34225H15.1819C15.7283 7.34225 16.1395 7.47594 16.4154 7.74332C16.6966 8.0107 16.8372 8.40642 16.8372 8.93048V18.4198C16.8372 18.9439 16.6966 19.3369 16.4154 19.5989C16.1395 19.8663 15.7283 20 15.1819 20H12.8102ZM19.965 20C19.4238 20 19.0126 19.8663 18.7314 19.5989C18.4555 19.3369 18.3175 18.9439 18.3175 18.4198V6.58824C18.3175 6.06417 18.4555 5.66845 18.7314 5.40107C19.0126 5.13369 19.4238 5 19.965 5H22.3366C22.8884 5 23.3023 5.13369 23.5782 5.40107C23.8594 5.66845 24 6.06417 24 6.58824V18.4198C24 18.9439 23.8594 19.3369 23.5782 19.5989C23.3023 19.8663 22.8884 20 22.3366 20H19.965Z" fill="#A9ACB2"/>
<rect x="4" y="21" width="20" height="2" rx="0.5" fill="#A9ACB2"/>
</svg>
