<svg width="28" height="28" viewBox="0 0 28 28" fill="none" xmlns="http://www.w3.org/2000/svg">
<path d="M13.3759 2C12.8475 2 12.3706 2.31691 12.1659 2.80408L11.1841 5.14075C11.0723 5.40692 10.8433 5.60428 10.5835 5.73015C10.3166 5.85947 10.0099 5.88304 9.73646 5.76814L7.42144 4.79545C6.92979 4.58887 6.36203 4.70031 5.98495 5.0774L5.0774 5.98495C4.70031 6.36203 4.58887 6.92979 4.79545 7.42144L5.76276 9.72365C5.88169 10.0067 5.86598 10.3295 5.73548 10.6074C5.61571 10.8625 5.41484 11.0689 5.15505 11.1781L2.80408 12.1659C2.31691 12.3706 2 12.8475 2 13.3759V14.6241C2 15.1525 2.31691 15.6294 2.80408 15.8341L5.15505 16.8219C5.41484 16.9311 5.61571 17.1375 5.73548 17.3926C5.86598 17.6705 5.88169 17.9933 5.76276 18.2763L4.79545 20.5786C4.58887 21.0702 4.70031 21.638 5.0774 22.0151L5.98495 22.9226C6.36203 23.2997 6.92979 23.4111 7.42144 23.2046L9.73671 22.2318C10.0129 22.1157 10.3146 22.1167 10.5841 22.2477C10.8456 22.3748 11.0709 22.5898 11.1835 22.8579L12.1659 25.1959C12.3706 25.6831 12.8475 26 13.3759 26H14.6241C15.1525 26 15.6294 25.6831 15.8341 25.1959L16.8317 22.8216C16.935 22.5758 17.1243 22.3828 17.3682 22.2749C17.662 22.1448 18.0034 22.1226 18.2997 22.2471L20.5786 23.2046C21.0702 23.4111 21.638 23.2997 22.0151 22.9226L22.9226 22.0151C23.2997 21.638 23.4111 21.0702 23.2046 20.5786L22.2365 18.2747C22.1174 17.9912 22.1215 17.6709 22.2531 17.393C22.3746 17.1365 22.5846 16.9313 22.8463 16.8213L25.1959 15.8341C25.6831 15.6294 26 15.1525 26 14.6241V13.3759C26 12.8475 25.6831 12.3706 25.1959 12.1659L22.8505 11.1804C22.5889 11.0705 22.3945 10.8601 22.2738 10.6034C22.1453 10.3299 22.1182 10.0069 22.2353 9.72831L23.2046 7.42144C23.4111 6.92979 23.2997 6.36203 22.9226 5.98495L22.0151 5.0774C21.638 4.70031 21.0702 4.58887 20.5786 4.79545L18.2747 5.76345C17.9912 5.88257 17.6709 5.8785 17.393 5.74687C17.1365 5.62536 16.9313 5.41538 16.8213 5.15367L15.8341 2.80408C15.6294 2.31691 15.1525 2 14.6241 2L13.3759 2ZM14 9.4813C16.4838 9.4813 18.4888 11.4863 18.4888 13.9701C18.4888 16.4539 16.4838 18.4589 14 18.4589C11.5162 18.4589 9.51122 16.4539 9.51122 13.9701C9.51122 11.4863 11.5162 9.4813 14 9.4813Z" fill="#735BF2"/>
</svg>
