<?xml version="1.0" encoding="UTF-8"?>
<!DOCTYPE svg PUBLIC "-//W3C//DTD SVG 1.1//EN" "http://www.w3.org/Graphics/SVG/1.1/DTD/svg11.dtd">
<svg xmlns="http://www.w3.org/2000/svg" version="1.1" width="160px" height="160px" style="shape-rendering:geometricPrecision; text-rendering:geometricPrecision; image-rendering:optimizeQuality; fill-rule:evenodd; clip-rule:evenodd" xmlns:xlink="http://www.w3.org/1999/xlink">
<g><path style="opacity:0.996" fill="#e83e44" d="M 66.5,-0.5 C 75.1667,-0.5 83.8333,-0.5 92.5,-0.5C 128.729,7.39582 151.062,29.3958 159.5,65.5C 159.5,74.8333 159.5,84.1667 159.5,93.5C 151.054,129.613 128.72,151.613 92.5,159.5C 83.8333,159.5 75.1667,159.5 66.5,159.5C 29.8423,151.509 7.50892,129.176 -0.5,92.5C -0.5,83.8333 -0.5,75.1667 -0.5,66.5C 7.5,29.8333 29.8333,7.5 66.5,-0.5 Z"/></g>
<g><path style="opacity:1" fill="#fefafa" d="M 76.5,9.5 C 82.5652,9.2614 88.5652,9.7614 94.5,11C 98.3036,12.0938 100.637,14.5938 101.5,18.5C 100.5,18.8333 99.5,19.1667 98.5,19.5C 85.5062,14.8934 74.3395,17.5601 65,27.5C 57.7039,41.2672 59.5372,53.7672 70.5,65C 81.2683,71.1854 92.6016,72.1854 104.5,68C 108.533,66.6515 111.866,64.3181 114.5,61C 115.167,60.3333 115.833,60.3333 116.5,61C 117.898,65.2042 117.731,69.3709 116,73.5C 102.371,83.5599 87.2043,86.7266 70.5,83C 50.5244,74.8953 42.0244,60.0619 45,38.5C 50.2885,23.0402 60.7885,13.3735 76.5,9.5 Z"/></g>
<g><path style="opacity:1" fill="#fef8f8" d="M 27.5,31.5 C 36.1605,31.4378 39.6605,35.7711 38,44.5C 36.8877,49.3914 34.721,53.7247 31.5,57.5C 43.5192,61.526 48.3526,69.8593 46,82.5C 45.648,89.038 42.8147,94.2046 37.5,98C 30.4026,101.364 23.2359,104.531 16,107.5C 12.599,107.302 10.2657,105.635 9,102.5C 4.08112,86.9702 3.41445,71.3035 7,55.5C 11.5388,45.4671 18.3721,37.4671 27.5,31.5 Z"/></g>
<g><path style="opacity:1" fill="#e84247" d="M 20.5,43.5 C 22.1667,43.5 23.8333,43.5 25.5,43.5C 25.9369,48.4116 25.1036,53.0783 23,57.5C 19.8681,62.2971 16.3681,66.7971 12.5,71C 12.6301,72.0588 13.1301,72.8921 14,73.5C 17.49,69.9527 21.6566,68.786 26.5,70C 31.1515,74.5357 32.6515,80.0357 31,86.5C 28.1084,92.2956 23.4417,95.9622 17,97.5C 16.228,97.3552 15.5613,97.0219 15,96.5C 11.8195,82.3273 10.8195,67.994 12,53.5C 14.6686,50.0003 17.502,46.667 20.5,43.5 Z"/></g>
</svg>
