<svg width="28" height="28" viewBox="0 0 28 28" fill="none" xmlns="http://www.w3.org/2000/svg">
<g clip-path="url(#clip0_2697_8490)">
<path fill-rule="evenodd" clip-rule="evenodd" d="M10.1515 25.6506C9.4666 26.0419 8.84607 26.2654 8.17872 26.2654C6.49277 26.2654 5.08781 24.9408 5 23.3479L8.30165 21.4756L13.418 23.6665L10.1515 25.6506Z" fill="#72A3B6"/>
<path fill-rule="evenodd" clip-rule="evenodd" d="M12.1188 17.591L9.67187 16.5626C8.57718 16.1043 7.54688 15.7074 7.54688 14.5617C7.54688 13.9637 7.72249 13.6507 8.0269 13.3433L13.196 15.5118L11.9257 16.2328C11.5627 16.434 11.3227 16.6185 11.3227 16.8756C11.3227 17.1606 11.6564 17.3954 12.1188 17.5854V17.591Z" fill="#96CE8E"/>
<path fill-rule="evenodd" clip-rule="evenodd" d="M14.5132 6.80964L12.0018 8.27398C11.7794 8.40253 11.4808 8.60373 11.4808 8.9279C11.4808 9.29678 12.0721 9.56506 12.5755 9.7998L9.43775 8.48077C8.51868 8.08954 7.58789 7.65359 7.58789 6.58607C7.58789 6.13336 7.71668 5.78124 7.93913 5.46266L14.7298 1.5C15.5435 1.94154 16.3279 2.8302 16.3279 4.02627C16.3279 5.30617 15.6547 6.15012 14.5132 6.80964Z" fill="#72A3B6"/>
<path fill-rule="evenodd" clip-rule="evenodd" d="M19.8511 11.4934L19.2306 11.8344L14.0381 9.64905L20.0677 6.17822C20.8814 6.63653 21.6775 7.50843 21.6775 8.71008C21.6775 9.98998 21.0102 10.8731 19.8511 11.4934Z" fill="#96CE8E"/>
<path fill-rule="evenodd" clip-rule="evenodd" d="M15.4608 15.6965L18.5342 16.9764C19.6816 17.4682 20.0387 18.0495 20.0387 18.7761C20.0387 19.1897 19.7928 19.6145 19.4415 19.8883L14.2842 17.6974L15.1506 17.2391C15.894 16.8423 16.1399 16.6131 16.1399 16.356C16.1399 16.0989 15.9643 15.9089 15.455 15.6909L15.4608 15.6965Z" fill="#72A3B6"/>
<path fill-rule="evenodd" clip-rule="evenodd" d="M20.9467 26.4998C19.6354 25.5496 18.2422 24.8957 16.5445 24.1691L8.73527 20.8548C6.76247 20.0164 5.45703 18.9098 5.45703 17.0318C5.45703 15.1539 6.38196 14.3267 7.58203 13.6057L8.01523 13.3486C7.71082 13.6504 7.5352 13.969 7.5352 14.5671C7.5352 15.7072 8.5655 16.1041 9.6602 16.5679L18.7397 20.3909C20.332 21.0448 21.7721 22.1626 21.7721 24.0517C21.7721 25.1081 21.3623 26.047 20.935 26.4998H20.9467Z" fill="#4C9847"/>
<path fill-rule="evenodd" clip-rule="evenodd" d="M20.0151 19.5527L19.4531 19.8937C19.8044 19.6198 20.0502 19.195 20.0502 18.7814C20.0502 18.0548 19.6931 17.4792 18.5458 16.9817L8.82812 12.9073C6.86118 12.0689 5.6377 11.0014 5.6377 9.12906C5.6377 7.4188 6.53921 6.28422 7.95002 5.45703C7.72757 5.77561 7.59878 6.12772 7.59878 6.58044C7.59878 7.64795 8.52957 8.0839 9.44865 8.47514L18.897 12.4546C20.6239 13.1867 22.0113 14.2878 22.0113 16.2831C22.0113 17.8369 21.2503 18.8317 20.021 19.5527H20.0151Z" fill="#296085"/>
</g>
<defs>
<clipPath id="clip0_2697_8490">
<rect width="17" height="25" fill="white" transform="translate(5 1.5)"/>
</clipPath>
</defs>
</svg>
