<svg width="28" height="28" viewBox="0 0 28 28" fill="none" xmlns="http://www.w3.org/2000/svg">
<rect width="24" height="24" fill="white"/>
<g clip-path="url(#clip0_2624_9941)">
<path d="M25.4905 12.2503H26.1342C26.1754 12.2503 26.2102 12.2195 26.2102 12.1826V11.0708C26.2102 11.0308 26.1785 11 26.1342 11H25.2274C24.1811 11 23.6262 11.3049 23.3092 11.9578L21.3402 16.3647C21.2198 16.6296 21.0485 16.7527 20.7093 16.7527V11.0708C20.7093 11.0308 20.6744 11 20.6332 11H19.1874C19.1462 11 19.1113 11.0308 19.1113 11.0708V17.8768C19.1113 17.9446 19.1716 18 19.2477 18H20.8678C21.9141 18 22.3929 17.692 22.7099 17.0453L24.6503 12.6938C24.8057 12.3858 25.0308 12.2503 25.4874 12.2503" fill="#D72027"/>
<path d="M7.82118 14.5015C8.4014 14.2829 8.88332 13.784 8.88332 12.9648C8.88332 11.7422 7.73557 11 6.3532 11H2.07609C2.03488 11 2 11.0308 2 11.0708V12.1826C2 12.2195 2.03488 12.2503 2.07609 12.2503H6.05517C6.69879 12.2503 7.12999 12.6106 7.12999 13.051C7.12999 13.4914 6.69562 13.8517 6.05517 13.8517H3.69309V13.0264C3.69309 12.9894 3.65821 12.9586 3.61699 12.9586H2.07609C2.03488 12.9586 2 12.9894 2 13.0264V17.9322C2 17.9723 2.03488 18.0031 2.07609 18.0031H6.28979C7.86557 18.0031 8.99112 17.3317 8.99112 15.9613C8.99112 15.2899 8.55675 14.7325 7.82118 14.5015ZM6.1376 16.7805H3.69309V15.139H6.1376C6.79708 15.139 7.24096 15.5086 7.24096 15.9582C7.24096 16.4078 6.79708 16.7805 6.1376 16.7805Z" fill="#D72027"/>
<path d="M26.9878 17.9197L24.5084 15.0218C24.5084 15.0218 24.4894 15.0156 24.4862 15.0218L23.8172 16.5123C23.8172 16.5123 23.814 16.5339 23.8204 16.54L24.9047 17.8674C24.9808 17.9597 25.0664 17.9967 25.1964 17.9967H26.9434C26.9941 17.9967 27.0163 17.9505 26.9846 17.9166" fill="#D72027"/>
<path d="M11.7047 12.9556H10.2558C10.2146 12.9556 10.1797 12.9864 10.1797 13.0264V17.9292C10.1797 17.9692 10.2146 18 10.2558 18H11.7047C11.746 18 11.7808 17.9692 11.7808 17.9292V13.0264C11.7808 12.9894 11.746 12.9556 11.7047 12.9556Z" fill="#D72027"/>
<path d="M17.6591 11H16.2133C16.1721 11 16.1372 11.0308 16.1372 11.0708V16.7527C15.798 16.7527 15.6267 16.6296 15.5063 16.3647L13.5373 11.9578C13.2203 11.308 12.6654 11 11.6191 11H10.2558C10.2146 11 10.1797 11.0308 10.1797 11.0708V12.1826C10.1797 12.2195 10.2146 12.2503 10.2558 12.2503H11.3591C11.8157 12.2503 12.0376 12.3858 12.1962 12.6938L14.1366 17.0453C14.4536 17.6951 14.9324 18 15.9787 18H17.602C17.6749 18 17.7352 17.9446 17.7352 17.8768V11.0708C17.7352 11.0339 17.7003 11 17.6591 11Z" fill="#D72027"/>
</g>
<defs>
<clipPath id="clip0_2624_9941">
<rect width="25" height="7" fill="white" transform="translate(2 11)"/>
</clipPath>
</defs>
</svg>
