<svg width="28" height="28" viewBox="0 0 28 28" fill="none" xmlns="http://www.w3.org/2000/svg">
<g clip-path="url(#clip0_2624_10641)">
<path d="M26.5779 14.2353L26.3546 14.0966C25.5917 13.3552 24.5187 13.0297 23.0922 13.108C21.9013 13.1804 20.9648 13.6385 20.2391 14.0605C20.2391 14.0484 20.2391 14.0364 20.2391 14.0303C20.2391 13.6687 20.2825 13.2768 20.3259 12.8971C20.3694 12.5113 20.4128 12.1134 20.4128 11.7457C20.4128 11.378 20.3694 11.0042 20.2329 10.6968C20.1957 10.6184 20.1213 10.5702 20.0282 10.5702C19.6437 10.5762 18.8932 10.8354 18.7133 10.9861L18.6141 11.1971C18.6141 11.6131 18.5149 12.7644 18.4218 12.9031L18.3722 13.0417C18.211 14.6874 18.2048 16.1402 18.3598 17.382C18.3784 17.5086 18.6203 17.6954 18.8126 17.7618C19.0235 17.8341 19.6747 17.6653 20.053 17.5267L20.1957 17.5025C20.3135 17.4905 20.3818 17.394 20.3818 17.2614L20.3942 16.9058C20.6671 15.8328 21.7649 14.5488 23.0674 14.3559C23.8054 14.2413 24.3822 14.4282 24.8412 14.9104C24.9032 15.0009 25.0397 15.7725 24.5497 16.6586C24.19 17.3157 23.4705 17.8703 22.5153 18.2139C21.616 18.5454 20.6299 18.678 19.408 18.6419C19.3584 18.6117 18.2668 17.8883 18.2668 17.8883C17.2992 17.2252 16.096 16.4054 15.0044 16.0015C14.8121 15.9292 14.471 15.6519 14.2601 15.4891L14.1485 15.3987C13.5158 14.9104 12.3188 14.1328 11.3574 13.5119C11.3574 13.5119 10.9233 13.2286 10.8364 13.1743C10.8364 13.1382 10.8364 13.0719 10.8364 13.0719C10.8674 13.0417 11.4691 12.6921 11.4691 12.6921C12.3126 12.2098 12.7033 11.9747 12.7902 11.8542C12.7716 11.8723 12.9018 11.7879 12.9018 11.7879C12.908 11.7879 14.9982 10.6365 14.9982 10.6365C17.0139 9.56349 19.2902 8.33978 20.4872 7.13416L20.543 6.94729L20.5678 6.78453C20.6485 6.52532 20.6547 6.33242 20.5864 6.10335C20.5678 6.03704 20.5058 5.95867 20.4252 5.94662C19.4886 5.85619 18.2854 6.39873 17.1876 7.40542C16.9395 7.62846 16.7348 7.743 16.5115 7.85753L16.3441 7.94796C15.1346 8.61708 12.4056 10.2628 10.9791 11.1489C11.0721 9.65392 11.3574 7.53201 11.7048 5.76577L11.6675 5.55479L11.5187 5.28955L11.407 5.09665H11.376C11.0907 4.95197 10.855 5.00623 10.6876 5.04842L10.4023 5.1509L10.0239 5.28352C9.94951 5.29558 9.89369 5.3438 9.86888 5.41614C9.18663 7.01962 8.61602 9.65392 8.48577 11.7577C7.12126 10.9138 5.8622 10.311 5.24817 10.0156L5.22957 10.0035L5.15514 9.99149C4.93186 9.96135 4.65896 9.80462 4.40466 9.65392C4.37985 9.63583 3.88367 9.3284 3.88367 9.3284L3.08978 8.83409L2.8789 8.78587C2.53777 8.84012 1.88653 9.26812 1.69426 9.55747C1.66945 9.59966 1.65705 9.63583 1.65705 9.68406C1.65705 9.74434 1.67565 9.81065 1.69426 9.8649L1.73148 10.0216L1.76869 10.1181C2.14703 10.4979 3.10218 11.1248 4.04493 11.6131L5.13653 12.1737L6.80495 13.0598L7.09025 13.2768L7.28873 13.3853C7.28873 13.3853 7.31354 13.3974 7.32594 13.4094C6.87938 13.6988 4.29302 15.3746 4.29302 15.3746L2.69903 16.3994C2.55018 16.5019 1.91754 16.7731 1.78109 16.8274C1.43377 16.966 1.17327 17.171 1.06783 17.4001L1.02441 17.4905L1.06783 17.5508L1.19188 17.6412L1.35314 17.7437L1.5268 17.8582L1.69426 17.8823C1.97336 17.8944 2.38892 17.7376 3.1642 17.4061C3.87747 17.0987 5.81258 15.9654 6.63749 15.4831L6.99102 15.2782C7.13987 15.2902 7.29493 15.1697 7.43758 15.0672C7.60504 14.9406 7.96478 14.7236 8.18186 14.6271C8.18806 14.6271 8.3121 14.5548 8.43615 14.4945C8.43615 14.5307 8.43615 14.5849 8.43615 14.5849C8.47336 17.0444 8.61602 18.8348 8.89512 20.2092V20.2333L8.92613 20.2875C9.06258 20.4804 9.21764 21.0652 9.35409 21.5776L9.67041 22.6023L9.75724 22.6988C9.93711 22.8194 10.4891 23.0243 10.8488 22.9821L10.9419 22.9701L10.9977 22.8435C11.0287 22.6867 11.0411 22.5421 11.0411 22.3733C11.0411 22.1864 11.0287 21.9754 11.0101 21.7283L10.9853 21.3605C10.8674 19.6425 10.7558 17.165 10.7558 15.5133V15.3806C11.0535 15.5615 12.3684 16.3693 12.3684 16.3693C14.6012 17.7798 17.9815 19.9078 20.022 20.4684C20.1275 20.4985 20.2391 20.4744 20.3197 20.4021L20.6361 20.2031L20.6919 20.179C20.8097 20.1248 20.8903 19.9319 20.9028 19.7269C22.6208 19.6425 25.0211 19.0035 26.3049 17.4302C26.8011 16.8214 27.0244 16.0799 27.0244 15.4409C27.0244 14.9165 26.8756 14.4704 26.6027 14.2172" fill="#FCAF17"/>
</g>
<defs>
<clipPath id="clip0_2624_10641">
<rect width="26" height="18" fill="white" transform="translate(1 5)"/>
</clipPath>
</defs>
</svg>
