<svg width="28" height="28" viewBox="0 0 28 28" fill="none" xmlns="http://www.w3.org/2000/svg">
<g clip-path="url(#clip0_2624_10646)">
<path d="M8.09483 2.3008C7.47583 2.63423 7.00855 3.20955 6.79008 3.92216L2.63308 17.3833C2.41461 18.0894 2.46316 18.8543 2.77873 19.5212C3.08823 20.188 3.62227 20.6849 4.27768 20.9203L17.9138 25.8497C18.5753 26.0851 19.2793 26.0328 19.8983 25.6993C20.5173 25.3594 20.9845 24.7906 21.203 24.078L25.36 10.6168C25.8151 9.15234 25.0748 7.55714 23.7154 7.07335L10.0853 2.1439C9.42385 1.90854 8.71989 1.96084 8.09483 2.29427" fill="white"/>
<path d="M14.759 15.2325C14.0187 16.1216 13.0962 16.8408 12.0221 17.2854L11.4092 17.5403V11.3033L12.016 11.5583C13.0902 11.9963 14.0126 12.7155 14.759 13.6046C15.287 12.6828 15.6147 11.6237 15.6815 10.46C15.8514 7.47222 14.1097 4.72638 11.7247 3.77187L9.7585 3.06579C8.86642 2.74545 7.92578 3.275 7.62842 4.22951L3.45929 17.6972C3.16193 18.6583 3.65956 19.6978 4.55164 20.0116L14.0126 23.4177C14.9775 22.3129 15.6026 20.8484 15.6936 19.214C15.7786 17.7561 15.4266 16.3831 14.753 15.2325M9.27908 10.9307V17.9261H8.33845V10.9307H9.27908Z" fill="#2293C8"/>
<path d="M14.2122 14.4154C13.6842 13.7485 13.047 13.1863 12.3066 12.7744V16.0629C13.0409 15.651 13.6842 15.0822 14.2122 14.4154Z" fill="#E43D30"/>
<path d="M23.4127 7.97562L14.7285 4.85059C15.8937 6.23005 16.6098 8.05407 16.6098 10.0546C16.6098 11.6367 16.1546 13.147 15.3536 14.4153C16.1546 15.6771 16.6159 17.1938 16.6219 18.7694C16.6219 20.6588 15.9908 22.3978 14.9409 23.7512L18.2058 24.9214C19.0979 25.2418 20.0385 24.7122 20.3359 23.7577L24.505 10.29C24.8024 9.33547 24.2987 8.29597 23.4127 7.97562ZM21.1127 17.8999H19.9414L17.5261 14.4087L19.9779 10.9111H21.1612L18.7035 14.4153L21.1127 17.9064V17.8999Z" fill="#215C9C"/>
</g>
<defs>
<clipPath id="clip0_2624_10646">
<rect width="23" height="24" fill="white" transform="translate(2.5 2)"/>
</clipPath>
</defs>
</svg>
