<svg width="28" height="28" viewBox="0 0 28 28" fill="none" xmlns="http://www.w3.org/2000/svg">
<g clip-path="url(#clip0_2624_10812)">
<path d="M13.9971 5C6.1649 5 1 9.02865 1 14.0029C1 18.9771 6.1649 23 13.9971 23C21.8292 23 27 18.9713 27 14.0029C27 9.03438 21.8351 5 13.9971 5Z" fill="white"/>
<path d="M16.3135 17.3611C18.5479 16.9829 26.0818 15.4643 25.1576 11.2522C24.8242 9.73933 23.2332 8.07744 20.8408 6.92558C18.9281 6.07744 16.5943 5.59033 13.968 5.59033C6.69731 5.59033 1.6377 9.35538 1.6377 13.9972C1.6377 17.2293 4.09439 20.0431 8.04264 21.4471C8.87909 19.2866 12.219 18.0545 16.3194 17.3611" fill="#007DC5"/>
<mask id="mask0_2624_10812" style="mask-type:luminance" maskUnits="userSpaceOnUse" x="8" y="12" width="19" height="11">
<path d="M14.0145 18.851C10.7506 19.2521 9.25907 20.2837 8.29395 21.5387C9.95514 22.0945 11.8678 22.4097 13.9677 22.4097C21.2442 22.4097 26.3038 18.6447 26.3038 13.9971C26.3038 13.5845 26.2629 13.1776 26.1869 12.7822C25.947 18.2378 17.5826 18.4155 14.0204 18.851" fill="white"/>
</mask>
<g mask="url(#mask0_2624_10812)">
<path d="M26.3038 12.7881H8.29395V22.4156H26.3038V12.7881Z" fill="url(#paint0_linear_2624_10812)"/>
</g>
<path d="M6.94891 9.60742H4.50977L4.53901 9.67619C4.65015 9.93407 4.63845 10.404 4.6326 10.8166C4.6326 10.9197 4.6326 16.3352 4.6326 16.3352H4.67939C4.67939 16.3352 5.79076 16.3753 6.83193 16.3753C9.0137 16.3753 10.476 14.9312 10.476 12.7765C10.476 10.851 9.08974 9.60742 6.94891 9.60742ZM5.67377 10.2091C5.81415 10.1977 6.247 10.169 6.55701 10.169C8.42293 10.169 9.28862 11.0515 9.28862 12.9541C9.28862 14.8567 8.51651 15.871 6.93136 15.871C5.76736 15.871 5.67377 15.8137 5.67377 15.1432V10.2091Z" fill="white"/>
<path d="M17.021 16.2895C16.9859 15.8941 16.9683 15.6248 16.9683 15.3956V13.0403H15.8102L15.8452 13.1148C15.8452 13.1148 15.9622 13.344 15.9622 13.8368C15.9622 13.854 15.9622 15.4758 15.9213 15.8597C15.6405 15.9285 15.2662 15.9572 15.0264 15.9572C13.1897 15.9572 12.2538 14.9257 12.2538 12.8855C12.2538 11.3325 13.3008 10.1692 14.8041 10.0603C15.5937 10.003 16.36 10.215 16.8338 10.6219L16.9157 10.6907V9.7394H16.8747C16.3951 9.64198 15.8394 9.55029 15.2896 9.55029C12.6398 9.55029 11.0605 10.9142 11.0605 13.2007C11.0605 15.6363 12.9908 16.5016 14.7982 16.5016C15.5645 16.5016 16.3541 16.4443 16.9742 16.3469H17.021V16.2953V16.2895Z" fill="white"/>
<path d="M21.1627 12.6388C21.8237 12.4669 22.4613 11.8938 22.4613 11.0571C22.4613 10.146 21.6248 9.60156 20.2151 9.60156H18.127L18.1387 9.65887C18.1387 9.65887 18.1971 9.92821 18.1971 10.5471V16.3867H18.2498C18.2498 16.3867 19.0687 16.3695 20.0748 16.3695C21.8295 16.3695 22.8356 15.6245 22.8356 14.3236C22.8356 13.5213 22.1571 12.8451 21.1569 12.6331M19.2383 12.9597H19.7764C21.0165 12.9597 21.6482 13.4354 21.6482 14.3809C21.6482 15.3723 21.1042 15.8594 19.987 15.8594C19.4489 15.8594 19.2383 15.6646 19.2383 15.1775V12.9597ZM19.2383 10.1231H19.9227C20.9931 10.1231 21.4552 10.4382 21.4552 11.189C21.4552 12.0371 20.8937 12.4325 19.6829 12.4325H19.2383V10.1231Z" fill="white"/>
</g>
<defs>
<linearGradient id="paint0_linear_2624_10812" x1="7.28442" y1="17.7036" x2="25.7291" y2="17.7036" gradientUnits="userSpaceOnUse">
<stop stop-color="#007DC5"/>
<stop offset="0.1" stop-color="#007DC5"/>
<stop offset="0.23" stop-color="#0083CA"/>
<stop offset="0.4" stop-color="#0095DA"/>
<stop offset="0.75" stop-color="#00B49D"/>
<stop offset="1" stop-color="#72BF44"/>
</linearGradient>
<clipPath id="clip0_2624_10812">
<rect width="26" height="18" fill="white" transform="translate(1 5)"/>
</clipPath>
</defs>
</svg>
