<?xml version="1.0" encoding="UTF-8"?>
<!DOCTYPE svg PUBLIC "-//W3C//DTD SVG 1.1//EN" "http://www.w3.org/Graphics/SVG/1.1/DTD/svg11.dtd">
<svg xmlns="http://www.w3.org/2000/svg" version="1.1" width="842px" height="595px" style="shape-rendering:geometricPrecision; text-rendering:geometricPrecision; image-rendering:optimizeQuality; fill-rule:evenodd; clip-rule:evenodd" xmlns:xlink="http://www.w3.org/1999/xlink">
<g><path style="opacity:0.991" fill="#ed1d24" d="M 417.5,91.5 C 439.796,90.9914 459.463,97.8248 476.5,112C 501.059,135.891 524.893,160.391 548,185.5C 563.176,210.642 565.509,236.975 555,264.5C 552.065,270.427 548.732,276.094 545,281.5C 520.47,307.697 494.97,332.864 468.5,357C 444.937,371.467 419.937,374.467 393.5,366C 385.054,362.946 377.388,358.613 370.5,353C 345.638,328.472 321.138,303.639 297,278.5C 278.481,248.541 277.814,218.208 295,187.5C 297.95,182.882 301.284,178.548 305,174.5C 327.892,150.94 351.392,128.107 375.5,106C 388.475,97.8428 402.475,93.0095 417.5,91.5 Z"/></g>
<g><path style="opacity:1" fill="#fffbfb" d="M 412.5,142.5 C 430.541,140.265 443.374,147.265 451,163.5C 461.445,203.275 456.778,241.275 437,277.5C 432.255,282.743 427.588,282.743 423,277.5C 422.833,276.333 422.667,275.167 422.5,274C 425.57,265.689 429.07,257.522 433,249.5C 441.079,225.633 443.079,201.3 439,176.5C 434.802,160.319 424.969,155.153 409.5,161C 402.562,168.047 398.729,176.547 398,186.5C 395.923,220.517 402.256,252.85 417,283.5C 421.697,291.866 428.531,297.699 437.5,301C 440.5,301.667 443.5,301.667 446.5,301C 456.685,296.829 465.185,290.329 472,281.5C 474.467,277.4 477.301,273.566 480.5,270C 489.152,267.712 492.985,270.879 492,279.5C 482.913,296.588 469.413,308.755 451.5,316C 434.036,319.019 419.869,313.519 409,299.5C 397.777,283.182 390.443,265.182 387,245.5C 382.478,222.648 381.478,199.648 384,176.5C 386.986,159.374 396.486,148.041 412.5,142.5 Z"/></g>
<g><path style="opacity:1" fill="#fff9f9" d="M 384.5,299.5 C 391.391,298.731 395.391,301.731 396.5,308.5C 395.011,315.586 390.677,318.086 383.5,316C 379.673,312.692 378.506,308.526 380,303.5C 381.397,301.93 382.897,300.596 384.5,299.5 Z"/></g>
<g><path style="opacity:0.92" fill="#ec1c23" d="M 382.5,418.5 C 386.5,418.5 390.5,418.5 394.5,418.5C 394.5,443.833 394.5,469.167 394.5,494.5C 390.5,494.5 386.5,494.5 382.5,494.5C 382.831,487.137 382.497,479.803 381.5,472.5C 369.88,473.645 358.213,473.812 346.5,473C 345.667,472.167 344.833,471.333 344,470.5C 343.5,454.17 343.333,437.837 343.5,421.5C 354.5,421.5 365.5,421.5 376.5,421.5C 376.5,423.833 376.5,426.167 376.5,428.5C 369.833,428.5 363.167,428.5 356.5,428.5C 356.178,441.413 356.511,454.246 357.5,467C 365.564,467.863 373.564,467.53 381.5,466C 382.471,460.928 382.805,455.762 382.5,450.5C 377.833,450.5 373.167,450.5 368.5,450.5C 368.5,447.833 368.5,445.167 368.5,442.5C 373.167,442.5 377.833,442.5 382.5,442.5C 382.5,434.5 382.5,426.5 382.5,418.5 Z"/></g>
<g><path style="opacity:0.949" fill="#ec1c23" d="M 400.5,418.5 C 404.5,418.5 408.5,418.5 412.5,418.5C 412.5,443.833 412.5,469.167 412.5,494.5C 408.5,494.5 404.5,494.5 400.5,494.5C 400.5,469.167 400.5,443.833 400.5,418.5 Z"/></g>
<g><path style="opacity:0.891" fill="#ec1c23" d="M 482.5,418.5 C 486.833,418.5 491.167,418.5 495.5,418.5C 495.5,426.167 495.5,433.833 495.5,441.5C 499.5,441.5 503.5,441.5 507.5,441.5C 507.5,443.833 507.5,446.167 507.5,448.5C 503.5,448.5 499.5,448.5 495.5,448.5C 495.5,463.833 495.5,479.167 495.5,494.5C 491.167,494.5 486.833,494.5 482.5,494.5C 482.5,469.167 482.5,443.833 482.5,418.5 Z"/></g>
<g><path style="opacity:0.89" fill="#ec1c23" d="M 262.5,420.5 C 282.833,420.5 303.167,420.5 323.5,420.5C 323.5,426.833 323.5,433.167 323.5,439.5C 307.5,439.5 291.5,439.5 275.5,439.5C 275.5,441.5 275.5,443.5 275.5,445.5C 291.833,445.5 308.167,445.5 324.5,445.5C 324.5,447.833 324.5,450.167 324.5,452.5C 316.167,452.5 307.833,452.5 299.5,452.5C 299.5,454.5 299.5,456.5 299.5,458.5C 309.833,458.5 320.167,458.5 330.5,458.5C 330.5,460.5 330.5,462.5 330.5,464.5C 305.833,464.5 281.167,464.5 256.5,464.5C 256.5,462.5 256.5,460.5 256.5,458.5C 266.5,458.5 276.5,458.5 286.5,458.5C 286.5,456.5 286.5,454.5 286.5,452.5C 279.053,452.929 271.719,452.429 264.5,451C 264,450.5 263.5,450 263,449.5C 262.501,443.843 262.334,438.176 262.5,432.5C 278.5,432.5 294.5,432.5 310.5,432.5C 310.5,430.5 310.5,428.5 310.5,426.5C 294.5,426.5 278.5,426.5 262.5,426.5C 262.5,424.5 262.5,422.5 262.5,420.5 Z"/></g>
<g><path style="opacity:0.895" fill="#ec1c23" d="M 430.5,421.5 C 445.167,421.5 459.833,421.5 474.5,421.5C 472.961,448.71 458.961,465.71 432.5,472.5C 429.363,471.699 427.696,469.699 427.5,466.5C 438.977,463.69 447.977,457.357 454.5,447.5C 446.528,446.502 438.528,446.169 430.5,446.5C 430.5,444.5 430.5,442.5 430.5,440.5C 439.839,440.666 449.173,440.5 458.5,440C 460.068,436.332 461.068,432.499 461.5,428.5C 451.167,428.5 440.833,428.5 430.5,428.5C 430.5,426.167 430.5,423.833 430.5,421.5 Z"/></g>
<g><path style="opacity:0.848" fill="#ec1c23" d="M 516.5,421.5 C 536.833,421.5 557.167,421.5 577.5,421.5C 577.5,423.833 577.5,426.167 577.5,428.5C 561.5,428.5 545.5,428.5 529.5,428.5C 529.183,437.418 529.516,446.251 530.5,455C 546.497,455.5 562.497,455.667 578.5,455.5C 578.5,457.833 578.5,460.167 578.5,462.5C 559.497,462.667 540.497,462.5 521.5,462C 519.508,461.426 518.008,460.259 517,458.5C 516.5,446.171 516.333,433.838 516.5,421.5 Z"/></g>
<g><path style="opacity:0.89" fill="#ec1c23" d="M 285.5,467.5 C 290.5,467.5 295.5,467.5 300.5,467.5C 301.674,472.851 304.341,477.351 308.5,481C 314.039,484.955 320.039,487.955 326.5,490C 325.477,492.862 323.477,494.362 320.5,494.5C 309.872,492.603 300.705,487.936 293,480.5C 284.291,489.446 273.791,493.779 261.5,493.5C 260.167,492.38 259.667,491.047 260,489.5C 269.371,486.989 277.038,481.989 283,474.5C 284.411,472.35 285.245,470.016 285.5,467.5 Z"/></g>
<g><path style="opacity:0.952" fill="#ec1c23" d="M 510.5,478.5 C 535.167,478.5 559.833,478.5 584.5,478.5C 584.5,480.5 584.5,482.5 584.5,484.5C 559.833,484.5 535.167,484.5 510.5,484.5C 510.5,482.5 510.5,480.5 510.5,478.5 Z"/></g>
</svg>
