<?xml version="1.0" standalone="no"?>
<!DOCTYPE svg PUBLIC "-//W3C//DTD SVG 20010904//EN"
 "http://www.w3.org/TR/2001/REC-SVG-20010904/DTD/svg10.dtd">
<svg version="1.0" xmlns="http://www.w3.org/2000/svg"
 width="800.000000pt" height="794.000000pt" viewBox="0 0 800.000000 794.000000"
 preserveAspectRatio="xMidYMid meet">

<g transform="translate(0.000000,794.000000) scale(0.100000,-0.100000)"
fill="#1428A0" stroke="none">
<path d="M5199 6346 c-2 -2 -71 -6 -154 -9 -705 -29 -1614 -176 -2320 -374
-307 -86 -799 -253 -827 -281 -6 -6 8 -12 33 -16 85 -14 134 -67 146 -156 7
-54 -17 -64 -124 -53 -52 5 -53 6 -53 37 0 40 -16 56 -55 56 -38 0 -55 -16
-55 -52 0 -35 16 -49 137 -119 113 -65 153 -108 160 -173 20 -170 -78 -257
-270 -243 -137 11 -201 67 -213 186 l-7 61 97 0 96 0 0 -43 c0 -52 22 -77 66
-77 40 0 54 16 54 60 0 45 -19 63 -125 121 -143 79 -184 138 -172 245 2 24 1
44 -3 44 -13 0 -236 -118 -330 -174 -258 -155 -434 -325 -486 -468 -20 -53
-22 -140 -6 -193 6 -22 31 -63 54 -91 149 -177 509 -293 1048 -339 244 -20
782 -21 1075 0 329 23 840 84 1080 130 44 8 152 29 240 46 551 104 1121 264
1585 445 121 47 123 49 90 57 -183 46 -200 76 -200 346 0 97 5 193 11 214 15
56 62 103 121 123 73 24 199 16 258 -17 58 -31 92 -94 88 -159 l-3 -45 -76 -3
c-85 -3 -95 3 -101 58 -4 48 -41 69 -84 49 l-29 -14 0 -200 0 -199 27 -15 c20
-12 34 -13 55 -5 27 9 28 13 31 82 l3 72 -31 0 c-29 0 -30 1 -30 50 l0 50 120
0 120 0 0 -119 c0 -66 -4 -131 -10 -145 -5 -14 -7 -26 -5 -26 9 0 147 71 230
118 356 203 568 420 583 597 15 181 -138 321 -463 424 -216 68 -466 106 -855
131 -157 9 -512 14 -521 6z m-1096 -687 c22 -6 55 -25 75 -43 32 -30 36 -39
40 -95 2 -33 0 -61 -4 -61 -5 -1 -34 -2 -64 -4 -86 -5 -100 0 -100 40 0 36
-20 54 -62 54 -31 0 -48 -18 -48 -51 0 -34 33 -63 136 -120 140 -77 173 -128
161 -246 -11 -110 -91 -166 -236 -166 -155 0 -231 57 -239 179 l-4 64 91 0 91
0 0 -40 c0 -64 48 -98 101 -70 14 8 19 21 19 49 0 45 -18 64 -110 116 -94 53
-157 104 -172 139 -18 43 -15 134 5 173 32 60 105 92 212 93 39 0 87 -5 108
-11z m-1494 -13 c6 -7 22 -74 35 -147 13 -74 39 -216 57 -317 28 -157 31 -185
18 -193 -15 -10 -141 -10 -156 0 -6 3 -15 35 -22 71 -11 61 -71 466 -71 478 0
3 -3 2 -6 -1 -4 -4 -15 -62 -25 -129 -35 -240 -61 -413 -62 -414 -8 -7 -165
-11 -175 -5 -10 6 -10 19 -3 57 6 27 22 112 36 189 62 340 77 410 88 417 7 4
71 8 143 8 100 0 134 -3 143 -14z m539 -1 c6 -5 24 -104 42 -220 17 -115 35
-216 39 -223 4 -8 25 89 45 214 21 126 43 232 49 236 7 5 68 7 137 6 l125 -3
7 -195 c5 -107 7 -258 5 -335 l-2 -140 -70 -1 c-38 0 -76 2 -82 4 -10 3 -13
65 -13 265 0 144 -4 257 -8 252 -8 -9 -24 -87 -76 -383 -14 -76 -28 -127 -37
-133 -19 -12 -148 -8 -159 6 -5 5 -15 46 -24 90 -8 44 -30 159 -48 255 l-33
175 -3 -257 c-2 -233 -4 -258 -20 -266 -14 -8 -72 -9 -145 -3 -18 1 -18 16
-11 324 3 177 10 327 15 332 10 13 255 13 267 0z m1405 6 c4 -1 7 -116 7 -257
0 -146 4 -263 10 -274 14 -26 57 -34 86 -15 l24 15 0 258 c0 187 3 261 12 270
15 15 107 16 143 2 l26 -10 -3 -273 c-4 -318 -5 -322 -97 -369 -47 -24 -66
-28 -140 -28 -62 0 -97 6 -126 19 -48 22 -90 66 -99 103 -5 22 -9 341 -6 534
l0 32 78 -3 c42 -2 80 -3 85 -4z m731 -1 c4 -5 50 -155 116 -382 13 -43 26
-75 30 -73 4 2 5 104 2 226 -4 170 -2 223 8 229 15 9 117 12 142 4 17 -5 18
-27 18 -330 0 -209 -4 -324 -10 -325 -5 0 -30 0 -55 0 -25 0 -76 0 -113 0
l-68 1 -75 243 -74 242 -3 -242 c-2 -184 -5 -243 -15 -244 -72 -3 -138 -1
-143 4 -8 7 -7 634 0 645 5 8 233 9 240 2z"/>
<path d="M2547 3044 c-4 -4 -7 -155 -7 -336 l0 -328 80 0 79 0 3 133 3 132 68
3 67 3 0 64 0 64 -67 3 -68 3 -5 130 -5 130 -70 3 c-39 1 -74 0 -78 -4z"/>
<path d="M3667 3043 c-4 -3 -7 -64 -7 -135 l0 -128 -32 -1 c-18 0 -57 0 -85 1
-87 2 -93 -2 -93 -71 l0 -59 104 0 c85 0 105 -3 110 -16 3 -9 6 -69 6 -135 l0
-119 75 0 75 0 0 335 0 335 -73 0 c-41 0 -77 -3 -80 -7z"/>
<path d="M4755 3038 c-3 -7 -4 -294 -3 -638 l3 -625 78 -3 77 -3 0 376 c0 350
1 375 18 376 9 1 42 2 72 3 l55 1 3 67 3 67 -73 3 -73 3 -5 190 -5 190 -73 3
c-52 2 -74 -1 -77 -10z"/>
<path d="M1995 2953 c-20 -187 -99 -329 -240 -430 l-29 -21 34 -51 c19 -28 42
-51 51 -51 25 0 180 151 219 214 19 30 38 56 42 56 3 0 20 -24 36 -53 33 -58
195 -217 221 -217 9 0 32 24 51 52 l35 51 -30 21 c-140 100 -219 239 -233 411
l-7 80 -72 3 -71 3 -7 -68z"/>
<path d="M3092 2926 c-14 -110 -41 -190 -90 -264 -31 -48 -57 -73 -131 -130
l-24 -18 38 -52 c20 -29 41 -52 46 -52 21 0 150 124 188 181 22 34 41 65 41
70 0 23 22 5 41 -33 24 -47 190 -218 211 -218 8 0 31 24 51 53 l37 52 -22 15
c-130 85 -213 236 -225 408 l-6 82 -71 0 -72 0 -12 -94z"/>
<path d="M4273 3003 l-243 -3 0 -60 0 -60 203 -2 202 -3 -3 -75 c-1 -41 -7
-91 -13 -112 l-10 -38 -184 0 -185 0 0 -60 0 -60 160 0 c130 0 162 -3 166 -14
3 -8 -8 -44 -25 -79 -65 -136 -169 -246 -294 -308 -52 -27 -58 -33 -53 -54 11
-42 47 -95 66 -95 27 0 134 61 192 110 168 140 276 353 313 615 15 105 24 280
14 289 -10 9 -79 11 -306 9z"/>
<path d="M5263 3003 l-23 -4 0 -360 0 -359 380 0 380 0 0 65 0 65 -300 0 -300
0 0 230 c0 177 3 230 13 232 6 0 136 2 287 4 151 1 281 2 288 3 8 1 12 20 12
61 l0 60 -344 0 c-189 0 -350 2 -358 4 -7 2 -23 1 -35 -1z"/>
<path d="M3250 2327 c-85 -29 -150 -68 -190 -113 -94 -108 -94 -234 1 -338 86
-95 203 -140 359 -139 186 1 325 68 398 193 22 37 27 57 27 116 0 61 -4 77
-30 120 -37 60 -109 115 -195 151 -56 23 -82 27 -185 30 -103 2 -129 0 -185
-20z m265 -122 c117 -31 180 -94 172 -175 -4 -38 -12 -51 -50 -86 -117 -106
-344 -100 -447 12 -31 34 -40 52 -40 79 0 132 182 217 365 170z"/>
<path d="M1930 2040 l0 -270 385 0 385 0 0 270 0 270 -385 0 -385 0 0 -270z
m615 0 l0 -135 -230 0 -230 0 -3 124 c-1 69 0 131 2 138 4 11 52 13 233 11
l228 -3 0 -135z"/>
<path d="M5163 2023 c-9 -3 -13 -27 -13 -69 l0 -64 470 0 470 0 0 64 c0 49 -4
65 -16 70 -19 7 -893 7 -911 -1z"/>
</g>
</svg>
