<svg width="28" height="28" viewBox="0 0 28 28" fill="none" xmlns="http://www.w3.org/2000/svg">
<g clip-path="url(#clip0_2624_10661)">
<path d="M13.4649 2.17281C6.93249 2.46634 1.8735 8.00303 2.17278 14.5354C2.4663 21.0678 8.003 26.121 14.5354 25.8275C21.0677 25.534 26.121 19.9973 25.8275 13.4649C25.5339 6.93252 19.9972 1.87929 13.4649 2.17281Z" fill="url(#paint0_radial_2624_10661)"/>
<path d="M13.459 2.0115C6.83452 2.31078 1.71222 7.92229 2.0115 14.541C2.31078 21.1655 7.92229 26.2878 14.541 25.9885C21.1597 25.6892 26.282 20.0777 25.9827 13.459C25.6892 6.83452 20.0777 1.71222 13.459 2.0115ZM14.8633 13.6547C16.9985 15.623 18.1669 16.682 18.1669 16.682C21.9252 19.8129 20.6417 22.6734 19.2086 23.6691C18.1093 24.4288 16.9007 24.7856 15.3065 24.8662C15.1626 24.8834 14.9036 24.8029 14.8863 24.5496C14.8748 24.2791 15.2719 24.2101 15.2719 24.2101C18.823 23.5137 17.7813 21.1827 16.5266 19.9971C16.0029 19.4964 11.059 15.2374 11.059 15.2374C6.35107 11.1798 6.72517 8.01438 6.72517 8.01438C6.94963 4.11797 10.3626 3.15107 12.9468 3.37553C13.2518 3.4043 13.4187 3.58848 13.3611 3.83596C13.3036 4.11222 12.9065 4.12948 12.9065 4.12948C12.0834 4.17553 11.3525 4.26186 10.7942 4.63596C8.71653 6.03452 9.32661 8.41725 12.1007 11.0647C12.446 11.3985 12.8201 11.7496 13.2 12.1065C13.2 12.1065 13.7583 12.5957 14.8691 13.6489L14.8633 13.6547ZM13.2518 23.7266C13.2748 24.1065 12.3482 24.2734 11.295 24.1698C9.97121 24.0374 8.38848 23.623 7.00718 22.4316C5.74099 21.3324 4.9525 19.8244 4.57265 18.5007C4.18128 17.1482 4.02013 15.5597 4.66474 15.6863C4.86042 15.7266 5.20574 16.5957 5.57984 17.2288C5.96545 17.8849 6.282 18.2475 6.56977 18.4662C6.70215 18.564 7.15682 17.5568 7.81294 16.987C8.19855 16.6705 8.61294 16.5611 8.682 17.505C8.76258 18.6619 8.55538 20.0374 8.89495 20.0374C9.2115 20.0374 9.92517 19.8014 11.4849 19.6691C12.0719 19.6173 12.4057 19.7324 11.8475 20.5209C11.5655 20.9122 11.1914 21.4705 10.3108 22.1036C11.6403 23.3468 13.2345 23.1971 13.2575 23.7266H13.2518ZM14.2993 11.6345C14.2014 11.2432 14.1784 10.7539 14.2532 10.1266C14.4201 8.82013 14.7712 8.19855 15.1741 7.1856C15.7151 5.82157 14.3971 5.02157 14.6158 4.52085C14.9151 3.84171 15.859 4.70502 16.9065 4.76833C17.8101 4.82013 18.3568 4.76833 19.059 4.86617C19.9914 4.98704 21.1079 5.30358 21.6086 5.89063C22.0633 6.42589 21.3669 7.07625 20.5324 6.66761C19.9223 6.36833 19.1511 6.55251 19.6 7.19135C20.1468 7.79567 20.4057 7.81294 20.9583 7.96258C22.4892 8.36545 22.518 9.82733 21.482 10.587C20.3021 11.4503 19.1165 11.0935 18.6331 9.40143C18.3914 8.56114 17.7985 8.12948 17.1885 8.37121C16.5842 8.61294 16.941 9.71797 17.4014 10.7482C18.328 13.1021 16.0316 13.0273 15.7611 12.9928C14.541 12.7396 14.2935 11.6345 14.2935 11.6345H14.2993Z" fill="url(#paint1_radial_2624_10661)"/>
</g>
<defs>
<radialGradient id="paint0_radial_2624_10661" cx="0" cy="0" r="1" gradientUnits="userSpaceOnUse" gradientTransform="translate(15.7712 10.0627) scale(11.2483)">
<stop stop-color="white"/>
<stop offset="1" stop-color="#CF9C51"/>
</radialGradient>
<radialGradient id="paint1_radial_2624_10661" cx="0" cy="0" r="1" gradientUnits="userSpaceOnUse" gradientTransform="translate(12.749 6.44154) scale(25.1962 25.1962)">
<stop stop-color="#00C0F3"/>
<stop offset="0.22" stop-color="#0097D6"/>
<stop offset="0.28" stop-color="#0085C9"/>
<stop offset="0.37" stop-color="#0074BD"/>
<stop offset="0.46" stop-color="#0069B5"/>
<stop offset="0.57" stop-color="#0066B3"/>
</radialGradient>
<clipPath id="clip0_2624_10661">
<rect width="24" height="24" fill="white" transform="translate(2 2)"/>
</clipPath>
</defs>
</svg>
