<svg width="28" height="28" viewBox="0 0 28 28" fill="none" xmlns="http://www.w3.org/2000/svg">
<g clip-path="url(#clip0_2697_8481)">
<path d="M8.92931 18.9025L8.883 18.9467C8.13139 19.6777 7.26223 20.0653 6.36813 20.0653C4.50158 20.0653 3.1444 18.7257 3.1444 16.8795C3.1444 15.0334 4.50158 13.6972 6.36813 13.6972C7.26223 13.6972 8.13139 14.0848 8.883 14.8158L8.92931 14.86L10.1297 13.4728L10.0977 13.4354C9.09673 12.3067 7.89985 11.7593 6.42513 11.7593C4.9504 11.7593 3.59323 12.2319 2.62077 13.092C1.55925 14.0202 1 15.3292 1 16.8761C1 18.4231 1.55925 19.7389 2.61721 20.6637C3.59323 21.5238 4.94328 21.9964 6.42156 21.9964C7.89985 21.9964 9.09316 21.449 10.0941 20.3203L10.1262 20.2863L8.92574 18.8991L8.92931 18.9025Z" fill="#004785"/>
<path d="M13.4678 11.9229H11.3447V21.8132H13.4678V11.9229Z" fill="#004785"/>
<path d="M21.7815 19.6609C21.2151 19.9907 20.6879 20.1573 20.2142 20.1573C19.5267 20.1573 19.2203 19.8105 19.2203 19.0421V13.7926H21.3825V11.9295H19.2203V8.85254L17.14 9.91331V11.9295H15.3447V13.7926H17.14V19.3753C17.14 20.895 18.084 21.9354 19.4946 21.9626C20.4493 21.9796 21.0263 21.7076 21.379 21.507L21.4004 21.4934L21.9097 19.5861L21.7851 19.6575L21.7815 19.6609Z" fill="#004785"/>
<path d="M25.6611 11.9229H23.5381V21.8132H25.6611V11.9229Z" fill="#004785"/>
<path d="M26.9 10.1853C24.9622 7.56396 21.7421 6 18.4649 6C15.1877 6 11.9676 7.56396 10.0333 10.1853L9.93359 10.3179H12.3772L12.4022 10.2907C14.0657 8.65533 16.235 7.78836 18.4649 7.78836C20.6948 7.78836 22.8641 8.65533 24.5312 10.2907L24.5597 10.3179H26.9998L26.9 10.1853Z" fill="#ED1C2E"/>
</g>
<defs>
<clipPath id="clip0_2697_8481">
<rect width="26" height="16" fill="white" transform="translate(1 6)"/>
</clipPath>
</defs>
</svg>
