<svg width="28" height="28" viewBox="0 0 28 28" fill="none" xmlns="http://www.w3.org/2000/svg">
<g clip-path="url(#clip0_2624_10673)">
<path d="M25.826 13.9972C25.826 20.6318 20.5042 26 13.9567 26C7.40931 26 2.08203 20.6318 2.08203 13.9972C2.08203 7.3627 7.39297 2 13.9622 2C20.5314 2 25.8315 7.37371 25.8315 13.9972H25.826Z" fill="white"/>
<path d="M13.9621 25.4272C20.199 25.4272 25.2649 20.3122 25.2649 13.997C25.2649 7.68183 20.1991 2.56689 13.9512 2.56689C7.70336 2.56689 2.64844 7.68734 2.64844 13.997C2.64844 20.3067 7.70881 25.4272 13.9621 25.4272Z" fill="#0083CA"/>
<mask id="mask0_2624_10673" style="mask-type:luminance" maskUnits="userSpaceOnUse" x="2" y="2" width="24" height="24">
<path d="M13.9621 25.4272C20.199 25.4272 25.2649 20.3122 25.2649 13.997C25.2649 7.68183 20.1991 2.56689 13.9512 2.56689C7.70336 2.56689 2.64844 7.68734 2.64844 13.997C2.64844 20.3067 7.70881 25.4272 13.9621 25.4272Z" fill="white"/>
</mask>
<g mask="url(#mask0_2624_10673)">
<path d="M14 19.5196C18.9678 19.5196 23.2274 20.9181 25.0522 22.9057C25.6677 21.4852 26 19.9215 26 18.2808C26 11.7233 20.6237 6.41016 14 6.41016C7.37631 6.41016 2 11.7233 2 18.2753C2 19.9215 2.33772 21.4797 2.9478 22.9002C4.76714 20.9181 9.02678 19.5141 13.9946 19.5141L14 19.5196Z" fill="#0083CA"/>
<path d="M13.9947 19.5307C18.9515 19.5307 23.2003 20.9182 25.0196 22.8893C25.6297 21.4798 25.9674 19.9272 25.9674 18.2974C25.9674 11.795 20.602 6.50391 13.9947 6.50391C7.38731 6.50391 2.02734 11.795 2.02734 18.2974C2.02734 19.9327 2.36507 21.4743 2.97514 22.8893C4.78903 20.9182 9.03778 19.5307 13.9947 19.5307Z" fill="#0085CB"/>
<path d="M13.9942 19.547C18.9347 19.547 23.1726 20.9235 24.9919 22.878C25.602 21.4796 25.9397 19.9379 25.9397 18.3247C25.9397 11.8719 20.5907 6.61377 13.9997 6.61377C7.40864 6.61377 2.05957 11.8719 2.05957 18.3192C2.05957 19.9379 2.39729 21.4741 3.00192 22.8725C4.81036 20.918 9.05367 19.5415 13.9942 19.5415V19.547Z" fill="#0086CC"/>
<path d="M13.9943 19.558C18.924 19.558 23.1509 20.9235 24.9594 22.8615C25.5694 21.4741 25.9017 19.949 25.9017 18.3468C25.9017 11.949 20.5635 6.71289 13.9889 6.71289C7.4142 6.71289 2.08691 11.949 2.08691 18.3412C2.08691 19.949 2.41919 21.4686 3.02927 22.856C4.83226 20.918 9.06467 19.5525 13.9943 19.5525V19.558Z" fill="#0088CC"/>
<path d="M13.989 19.5691C18.9023 19.5691 23.1238 20.9235 24.9268 22.845C25.5314 21.4686 25.8691 19.9545 25.8691 18.3688C25.8691 12.0205 20.5473 6.81201 13.989 6.81201C7.43065 6.81201 2.11426 12.0205 2.11426 18.3688C2.11426 19.9655 2.44653 21.4686 3.05116 22.845C4.85416 20.9235 9.07023 19.5691 13.989 19.5691Z" fill="#0089CD"/>
<path d="M13.9895 19.5855C18.8919 19.5855 23.0971 20.9289 24.9001 22.8339C25.5047 21.4685 25.837 19.9654 25.837 18.3907C25.837 12.0975 20.526 6.9165 13.9895 6.9165C7.45295 6.9165 2.14746 12.0975 2.14746 18.3907C2.14746 19.9709 2.47974 21.4685 3.08437 22.8339C4.88191 20.9289 9.08709 19.5855 13.9895 19.5855Z" fill="#008BCE"/>
<path d="M13.9886 19.5965C18.8801 19.5965 23.0744 20.9289 24.872 22.8174C25.4766 21.463 25.8089 19.9764 25.8089 18.4127C25.8089 12.1691 20.5143 7.01562 13.9886 7.01562C7.46298 7.01562 2.17383 12.1746 2.17383 18.4127C2.17383 19.9819 2.5061 21.463 3.10529 22.8174C4.89739 20.9289 9.09167 19.5965 13.9832 19.5965H13.9886Z" fill="#008DCF"/>
<path d="M13.9887 19.6075C18.8639 19.6075 23.0527 20.9289 24.8394 22.8009C25.444 21.4575 25.7709 19.9819 25.7709 18.4348C25.7709 12.2462 20.4871 7.11475 13.9833 7.11475C7.47943 7.11475 2.20117 12.2462 2.20117 18.4348C2.20117 19.9874 2.53345 21.4575 3.13263 22.8009C4.91928 20.9289 9.10267 19.6075 13.9833 19.6075H13.9887Z" fill="#008ED0"/>
<path d="M13.9838 19.6189C18.8481 19.6189 23.0206 20.9293 24.8072 22.7848C25.4064 21.4523 25.7387 19.9933 25.7387 18.4572C25.7387 12.3181 20.4713 7.21973 13.9838 7.21973C7.49629 7.21973 2.23438 12.3236 2.23438 18.4572C2.23438 19.9988 2.56665 21.4579 3.16583 22.7848C4.94704 20.9293 9.12498 19.6189 13.9893 19.6189H13.9838Z" fill="#0090D0"/>
<path d="M13.9839 19.6353C18.8373 19.6353 22.9989 20.9347 24.7801 22.7736C25.3793 21.4522 25.7116 20.0042 25.7116 18.4846C25.7116 12.4006 20.4605 7.32422 13.9839 7.32422C7.50729 7.32422 2.26172 12.3951 2.26172 18.4791C2.26172 20.0042 2.59399 21.4522 3.18773 22.7681C4.96349 20.9292 9.13053 19.6298 13.9839 19.6298V19.6353Z" fill="#0092D1"/>
<path d="M13.9835 19.6465C18.8205 19.6465 22.9766 20.9348 24.7524 22.7573C25.3516 21.4469 25.6784 20.0098 25.6784 18.5012C25.6784 12.4668 20.4383 7.41797 13.9835 7.41797C7.52862 7.41797 2.29395 12.4723 2.29395 18.5012C2.29395 20.0154 2.62077 21.4524 3.21996 22.7573C4.99027 20.9348 9.14642 19.6465 13.9835 19.6465Z" fill="#0093D2"/>
<path d="M13.9836 19.6574C18.8097 19.6574 22.9495 20.9292 24.7253 22.7406C25.319 21.4468 25.6513 20.0207 25.6513 18.5231C25.6513 12.5438 20.4275 7.52246 13.989 7.52246C7.55052 7.52246 2.32129 12.5493 2.32129 18.5231C2.32129 20.0262 2.64812 21.4468 3.24185 22.7406C5.01216 20.9292 9.15197 19.6574 13.9781 19.6574H13.9836Z" fill="#0095D3"/>
<path d="M13.9782 19.6738C18.788 19.6738 22.9224 20.9346 24.6927 22.7295C25.2864 21.4466 25.6133 20.0316 25.6133 18.5506C25.6133 12.6263 20.4004 7.62695 13.9782 7.62695C7.55608 7.62695 2.34863 12.6208 2.34863 18.5506C2.34863 20.0371 2.67546 21.4466 3.2692 22.7295C5.03406 20.9346 9.16298 19.6738 13.9782 19.6738Z" fill="#0097D4"/>
<path d="M13.9778 19.6848C18.7767 19.6848 22.9002 20.9346 24.6596 22.713C25.2533 21.4411 25.5801 20.0372 25.5801 18.5726C25.5801 12.6979 20.3836 7.72607 13.9778 7.72607C7.57196 7.72607 2.38086 12.6979 2.38086 18.5726C2.38086 20.0482 2.70769 21.4467 3.29598 22.713C5.05539 20.9346 9.17341 19.6848 13.9778 19.6848Z" fill="#0098D5"/>
<path d="M13.9779 19.6958C18.7659 19.6958 22.8785 20.9346 24.6324 22.6965C25.2207 21.4357 25.5476 20.0482 25.5476 18.5891C25.5476 12.7694 20.3619 7.8252 13.9724 7.8252C7.58296 7.8252 2.4082 12.775 2.4082 18.5946C2.4082 20.0537 2.73503 21.4412 3.32332 22.702C5.07729 20.9401 9.18442 19.7013 13.9779 19.7013V19.6958Z" fill="#009AD5"/>
<path d="M13.978 19.7068C18.7497 19.7068 22.8513 20.9346 24.6053 22.68C25.1936 21.4302 25.5204 20.0537 25.5204 18.6112C25.5204 12.841 20.3511 7.92432 13.978 7.92432C7.60486 7.92432 2.43555 12.8465 2.43555 18.6167C2.43555 20.0647 2.76237 21.4357 3.35066 22.6855C5.09919 20.9401 9.20087 19.7123 13.9725 19.7123L13.978 19.7068Z" fill="#009CD6"/>
<path d="M13.9731 19.7232C18.7338 19.7232 22.8246 20.94 24.5732 22.6689C25.1614 21.43 25.4828 20.0701 25.4828 18.6386C25.4828 12.9235 20.3244 8.02881 13.9731 8.02881C7.62172 8.02881 2.46875 12.9235 2.46875 18.6386C2.46875 20.0701 2.79558 21.4356 3.37842 22.6689C5.1215 20.94 9.21228 19.7232 13.9731 19.7232Z" fill="#009ED7"/>
<path d="M13.9732 19.7343C18.7176 19.7343 22.8029 20.94 24.546 22.6524C25.1343 21.4246 25.4557 20.0756 25.4557 18.6606C25.4557 12.9951 20.3136 8.12793 13.9732 8.12793C7.63272 8.12793 2.49609 13.0006 2.49609 18.6606C2.49609 20.0811 2.81747 21.4301 3.40576 22.6524C5.14884 20.94 9.22328 19.7343 13.9732 19.7343Z" fill="#00A0D8"/>
<path d="M13.9723 19.7453C18.7058 19.7453 22.7748 20.9401 24.5125 22.6359C25.0953 21.4191 25.4221 20.0811 25.4221 18.6772C25.4221 13.0667 20.291 8.22705 13.9723 8.22705C7.65365 8.22705 2.52246 13.0722 2.52246 18.6827C2.52246 20.0866 2.84384 21.4246 3.42668 22.6414C5.16431 20.9456 9.22786 19.7508 13.9669 19.7508L13.9723 19.7453Z" fill="#00A1D9"/>
<path d="M13.9674 19.7617C18.69 19.7617 22.7481 20.9454 24.4803 22.6247C25.0632 21.4189 25.3845 20.0975 25.3845 18.7046C25.3845 13.1437 20.2697 8.33154 13.9674 8.33154C7.66506 8.33154 2.55566 13.1492 2.55566 18.7046C2.55566 20.0975 2.87704 21.4245 3.45989 22.6247C5.19207 20.9454 9.24472 19.7617 13.9728 19.7617H13.9674Z" fill="#00A3DA"/>
<path d="M13.9675 19.7727C18.6738 19.7727 22.7264 20.9455 24.4532 22.6082C25.036 21.4135 25.3574 20.1031 25.3574 18.7266C25.3574 13.2208 20.2589 8.43066 13.9675 8.43066C7.67606 8.43066 2.58301 13.2208 2.58301 18.7266C2.58301 20.1086 2.90439 21.419 3.48178 22.6082C5.20852 20.9455 9.25028 19.7727 13.9675 19.7727Z" fill="#00A5DB"/>
<path d="M13.967 19.784C18.6624 19.784 22.6988 20.9457 24.4255 22.5975C25.0029 21.4137 25.3243 20.1198 25.3243 18.7544C25.3243 13.2981 20.2367 8.54102 13.967 8.54102C7.6974 8.54102 2.61523 13.2981 2.61523 18.7544C2.61523 20.1198 2.93661 21.4192 3.51401 22.5975C5.2353 20.9457 9.26617 19.784 13.967 19.784Z" fill="#00A7DC"/>
<path d="M13.9671 19.8005C18.6462 19.8005 22.6771 20.9512 24.3929 22.5865C24.9703 21.4192 25.2917 20.1308 25.2917 18.7764C25.2917 13.3752 20.2204 8.64014 13.9671 8.64014C7.71384 8.64014 2.64258 13.3752 2.64258 18.7764C2.64258 20.1308 2.96396 21.4192 3.54135 22.5865C5.25719 20.9512 9.28261 19.8005 13.9671 19.8005Z" fill="#00A9DD"/>
<path d="M13.9618 19.8115C18.63 19.8115 22.65 20.9512 24.3603 22.57C24.9377 21.4137 25.2591 20.1364 25.2591 18.7984C25.2591 13.4468 20.1987 8.73926 13.9618 8.73926C7.72485 8.73926 2.66992 13.4468 2.66992 18.7984C2.66992 20.1364 2.9913 21.4137 3.56325 22.57C5.27364 20.9512 9.28817 19.8115 13.9618 19.8115Z" fill="#00ABDE"/>
<path d="M13.9623 19.8224C18.6196 19.8224 22.6232 20.9511 24.3336 22.5533C24.9056 21.4081 25.227 20.1473 25.227 18.8203C25.227 13.5237 20.1829 8.84375 13.9623 8.84375C7.74171 8.84375 2.70312 13.5237 2.70312 18.8203C2.70312 20.1473 3.01906 21.4081 3.59645 22.5533C5.30685 20.9511 9.30503 19.8224 13.9678 19.8224H13.9623Z" fill="#00ADDE"/>
<path d="M13.9614 19.8388C18.6024 19.8388 22.6006 20.9565 24.3055 22.5422C24.8775 21.408 25.1989 20.1582 25.1989 18.8478C25.1989 13.6062 20.1657 8.94824 13.9669 8.94824C7.76807 8.94824 2.72949 13.6007 2.72949 18.8423C2.72949 20.1526 3.04542 21.408 3.61737 22.5367C5.32232 20.951 9.30961 19.8333 13.9614 19.8333V19.8388Z" fill="#00AFDF"/>
<path d="M13.9616 19.8498C18.5916 19.8498 22.5789 20.9565 24.2784 22.5257C24.8503 21.4025 25.1663 20.1637 25.1663 18.8698C25.1663 13.6778 20.1495 9.04736 13.9616 9.04736C7.77363 9.04736 2.75684 13.6723 2.75684 18.8643C2.75684 20.1637 3.07277 21.4025 3.64472 22.5202C5.34422 20.951 9.32061 19.8443 13.9561 19.8443L13.9616 19.8498Z" fill="#00B1E0"/>
<path d="M13.9566 19.8609C18.5758 19.8609 22.5467 20.9565 24.2408 22.5092C24.8073 21.397 25.1287 20.1747 25.1287 18.8863C25.1287 13.7494 20.1228 9.14648 13.9566 9.14648C7.79049 9.14648 2.79004 13.7494 2.79004 18.8863C2.79004 20.1747 3.10597 21.397 3.67247 22.5092C5.36653 20.9565 9.33203 19.8609 13.9566 19.8609Z" fill="#00B3E1"/>
<path d="M13.9567 19.8719C18.5596 19.8719 22.5251 20.951 24.2137 22.4927C24.7802 21.3915 25.0961 20.1802 25.0961 18.9084C25.0961 13.821 20.1065 9.24561 13.9513 9.24561C7.79605 9.24561 2.81738 13.8265 2.81738 18.9084C2.81738 20.1802 3.13332 21.397 3.69982 22.4927C5.38842 20.9565 9.34303 19.8719 13.9567 19.8719Z" fill="#0DB5E2"/>
<path d="M13.9568 19.8883C18.5488 19.8883 22.5034 20.9564 24.1865 22.4816C24.753 21.3914 25.069 20.1966 25.069 18.9358C25.069 13.9034 20.0957 9.3501 13.9568 9.3501C7.81795 9.3501 2.84473 13.8979 2.84473 18.9358C2.84473 20.1966 3.16066 21.3969 3.72171 22.4816C5.40487 20.9619 9.35403 19.8883 13.9514 19.8883H13.9568Z" fill="#19B7E3"/>
<path d="M13.9564 19.8993C18.532 19.8993 22.4757 20.9564 24.1588 22.465C24.7253 21.3859 25.0413 20.2021 25.0413 18.9578C25.0413 13.975 20.0789 9.44922 13.9618 9.44922C7.84472 9.44922 2.87695 13.975 2.87695 18.9578C2.87695 20.2021 3.19289 21.3914 3.75394 22.465C5.43165 20.9564 9.36992 19.8993 13.9564 19.8993Z" fill="#21B9E4"/>
<path d="M13.9511 19.9107C18.5157 19.9107 22.4486 20.9568 24.1263 22.4489C24.6873 21.3808 25.0033 20.208 25.0033 18.9802C25.0033 14.0525 20.0573 9.5542 13.9511 9.5542C7.84483 9.5542 2.9043 14.0525 2.9043 18.9802C2.9043 20.2135 3.21478 21.3918 3.78128 22.4489C5.459 20.9568 9.38092 19.9107 13.9511 19.9107Z" fill="#28BBE5"/>
<path d="M13.9513 19.9434C18.5105 19.9434 22.4379 20.984 24.1102 22.4651C24.6712 21.4025 24.9872 20.2407 24.9872 19.0184C24.9872 14.1237 20.0466 9.64746 13.9513 9.64746C7.85599 9.64746 2.9209 14.1182 2.9209 19.0129C2.9209 20.2352 3.23138 21.408 3.79244 22.4596C5.4647 20.9785 9.38663 19.9379 13.9513 19.9379V19.9434Z" fill="#37BDE6"/>
<path d="M13.9506 19.9711C18.5044 19.9711 22.4263 21.0062 24.0986 22.4762C24.6596 21.4246 24.9756 20.2684 24.9756 19.0516C24.9756 14.1844 20.0405 9.74121 13.956 9.74121C7.87161 9.74121 2.93652 14.1844 2.93652 19.0516C2.93652 20.2684 3.24701 21.4301 3.80806 22.4762C5.48033 21.0062 9.39136 19.9711 13.9506 19.9711Z" fill="#43BFE6"/>
<path d="M13.9514 19.9984C18.4998 19.9984 22.4162 21.028 24.0831 22.487C24.6441 21.4409 24.9546 20.2902 24.9546 19.0844C24.9546 14.2503 20.025 9.8291 13.9514 9.8291C7.87788 9.8291 2.94824 14.2503 2.94824 19.0844C2.94824 20.2957 3.25873 21.4464 3.81978 22.487C5.4866 21.028 9.39763 19.9984 13.9514 19.9984Z" fill="#4DC0E7"/>
<path d="M13.9507 20.0261C18.4936 20.0261 22.4046 21.0447 24.0714 22.4982C24.6325 21.4576 24.943 20.3179 24.943 19.1176C24.943 14.3165 20.0188 9.92285 13.9507 9.92285C7.88261 9.92285 2.96387 14.322 2.96387 19.1176C2.96387 20.3179 3.27435 21.4631 3.83541 22.4982C5.50222 21.0447 9.40781 20.0261 13.9507 20.0261Z" fill="#56C2E8"/>
<path d="M13.951 20.0593C18.4884 20.0593 22.3885 21.0723 24.0554 22.5149C24.611 21.4853 24.9269 20.3511 24.9269 19.1563C24.9269 14.3882 20.0136 10.0166 13.951 10.0166C7.88832 10.0166 2.98047 14.3882 2.98047 19.1563C2.98047 20.3511 3.29095 21.4853 3.84656 22.5149C5.50793 21.0723 9.40807 20.0593 13.951 20.0593Z" fill="#5EC4E8"/>
<path d="M13.9512 20.0865C18.4778 20.0865 22.3779 21.094 24.0393 22.5256C24.5949 21.5015 24.9108 20.3728 24.9108 19.189C24.9108 14.454 20.003 10.1099 13.9512 10.1099C7.89948 10.1099 2.99707 14.454 2.99707 19.189C2.99707 20.3728 3.30756 21.5015 3.86316 22.5256C5.52453 21.094 9.41922 20.0865 13.9567 20.0865H13.9512Z" fill="#65C6E9"/>
<path d="M13.9505 20.1143C18.4716 20.1143 22.3663 21.1163 24.0277 22.5369C24.5833 21.5183 24.8938 20.4006 24.8938 19.2223C24.8938 14.5203 19.9914 10.1982 13.9505 10.1982C7.90965 10.1982 3.0127 14.5203 3.0127 19.2278C3.0127 20.4061 3.32318 21.5238 3.87879 22.5424C5.54016 21.1218 9.4294 20.1198 13.956 20.1198L13.9505 20.1143Z" fill="#6DC7EA"/>
<path d="M13.9513 20.1472C18.467 20.1472 22.3562 21.1382 24.0122 22.5533C24.5678 21.5402 24.8783 20.4335 24.8783 19.2663C24.8783 14.5918 19.9813 10.3027 13.9513 10.3027C7.92137 10.3027 3.02441 14.5863 3.02441 19.2608C3.02441 20.428 3.32945 21.5457 3.88506 22.5477C5.54098 21.1327 9.42478 20.1417 13.9513 20.1417V20.1472Z" fill="#74C9EA"/>
<path d="M13.9506 20.175C18.4608 20.175 22.3446 21.1606 24.0005 22.5645C24.5562 21.5625 24.8666 20.4558 24.8666 19.2996C24.8666 14.6581 19.9751 10.3911 13.9506 10.3911C7.9261 10.3911 3.04004 14.6581 3.04004 19.2941C3.04004 20.4558 3.34508 21.5625 3.90068 22.559C5.55661 21.155 9.43496 20.1695 13.9506 20.1695V20.175Z" fill="#7ACBEB"/>
<path d="M13.9509 20.2022C18.4556 20.2022 22.334 21.1822 23.9845 22.5752C24.5401 21.5787 24.8506 20.483 24.8506 19.3323C24.8506 14.7239 19.9699 10.4844 13.9509 10.4844C7.93181 10.4844 3.05664 14.7239 3.05664 19.3323C3.05664 20.483 3.36168 21.5842 3.91729 22.5752C5.56776 21.1822 9.44611 20.2022 13.9563 20.2022H13.9509Z" fill="#81CDEC"/>
<path d="M13.9511 20.23C18.4505 20.23 22.3234 21.2045 23.9738 22.5865C24.5294 21.5955 24.8399 20.5108 24.8399 19.3656C24.8399 14.7902 19.9648 10.5728 13.9566 10.5728C7.94841 10.5728 3.07324 14.7902 3.07324 19.3656C3.07324 20.5108 3.37828 21.601 3.93389 22.5865C5.58436 21.2045 9.45182 20.23 13.9566 20.23H13.9511Z" fill="#87CFEC"/>
<path d="M13.951 20.2631C18.4449 20.2631 22.3069 21.2266 23.9573 22.6031C24.5075 21.6175 24.818 20.5384 24.818 19.4042C24.818 14.8618 19.9483 10.6719 13.951 10.6719C7.95371 10.6719 3.08398 14.8563 3.08398 19.4042C3.08398 20.5439 3.38902 21.623 3.93918 22.6031C5.58966 21.2266 9.45167 20.2631 13.951 20.2631Z" fill="#8ED1ED"/>
<path d="M13.9512 20.2904C18.4397 20.2904 22.2962 21.2484 23.9413 22.6139C24.4914 21.6393 24.8019 20.5657 24.8019 19.437C24.8019 14.9277 19.9376 10.7598 13.9458 10.7598C7.95397 10.7598 3.10059 14.9277 3.10059 19.437C3.10059 20.5657 3.40562 21.6393 3.95578 22.6139C5.60081 21.2484 9.46282 20.2904 13.9512 20.2904Z" fill="#94D3EE"/>
<path d="M13.9505 20.3181C18.4335 20.3181 22.2846 21.2706 23.9296 22.625C24.4798 21.656 24.7903 20.5934 24.7903 19.4702C24.7903 14.9884 19.9369 10.8535 13.9505 10.8535C7.96415 10.8535 3.11621 14.9939 3.11621 19.4702C3.11621 20.5934 3.42125 21.656 3.97141 22.625C5.61644 21.2706 9.46755 20.3181 13.956 20.3181H13.9505Z" fill="#9AD5EF"/>
<path d="M13.9508 20.3454C18.4283 20.3454 22.274 21.2924 23.9136 22.6358C24.4637 21.6723 24.7742 20.6152 24.7742 19.503C24.7742 15.0543 19.9263 10.9414 13.9508 10.9414C7.9753 10.9414 3.13281 15.0598 3.13281 19.5085C3.13281 20.6207 3.43785 21.6778 3.98801 22.6413C5.62759 21.2979 9.4787 20.3509 13.9562 20.3509L13.9508 20.3454Z" fill="#A0D7F0"/>
<path d="M13.9506 20.3783C18.4227 20.3783 22.2629 21.3143 23.9025 22.6522C24.4527 21.6942 24.7577 20.6481 24.7577 19.5469C24.7577 15.1312 19.9152 11.0459 13.9506 11.0459C7.98604 11.0459 3.14355 15.1257 3.14355 19.5414C3.14355 20.6481 3.44315 21.6942 3.99331 22.6467C5.63289 21.3088 9.47855 20.3728 13.9506 20.3728V20.3783Z" fill="#A6D9F0"/>
<path d="M13.9509 20.4061C18.4121 20.4061 22.2523 21.3366 23.8864 22.6635C24.4311 21.7165 24.7416 20.6759 24.7416 19.5803C24.7416 15.1976 19.9046 11.1343 13.9509 11.1343C7.9972 11.1343 3.16016 15.1976 3.16016 19.5803C3.16016 20.6759 3.45975 21.7165 4.00991 22.6635C5.64949 21.3366 9.48426 20.4061 13.9509 20.4061Z" fill="#ACDCF1"/>
<path d="M13.9512 20.4333C18.4069 20.4333 22.2417 21.3583 23.8758 22.6742C24.4205 21.7327 24.731 20.7031 24.731 19.6129C24.731 15.2633 19.8994 11.2275 13.9512 11.2275C8.0029 11.2275 3.17676 15.2633 3.17676 19.6129C3.17676 20.7031 3.47635 21.7382 4.02651 22.6742C5.66064 21.3583 9.49541 20.4333 13.9566 20.4333H13.9512Z" fill="#B2DEF2"/>
<path d="M13.9514 20.4664C18.4017 20.4664 22.231 21.3858 23.8597 22.6907C24.4044 21.7547 24.7149 20.7307 24.7149 19.6515C24.7149 15.3294 19.8888 11.3267 13.9514 11.3267C8.01406 11.3267 3.19336 15.3294 3.19336 19.646C3.19336 20.7307 3.49295 21.7547 4.04311 22.6852C5.67724 21.3803 9.50657 20.4609 13.9569 20.4609L13.9514 20.4664Z" fill="#B8E0F3"/>
<path d="M13.9513 20.4942C18.3961 20.4942 22.2145 21.4026 23.8487 22.702C24.3934 21.777 24.7039 20.7585 24.7039 19.6848C24.7039 15.3958 19.8886 11.415 13.9567 11.415C8.0248 11.415 3.2041 15.3958 3.2041 19.6848C3.2041 20.7585 3.50369 21.777 4.0484 22.702C5.67709 21.4082 9.50097 20.4942 13.9513 20.4942Z" fill="#BDE2F4"/>
<path d="M13.9505 20.5219C18.3899 20.5219 22.2029 21.4248 23.8316 22.7132C24.3763 21.7937 24.6814 20.7861 24.6814 19.718C24.6814 15.462 19.8716 11.5088 13.9505 11.5088C8.02953 11.5088 3.21973 15.4675 3.21973 19.718C3.21973 20.7861 3.51932 21.7937 4.06403 22.7132C5.69272 21.4248 9.51115 20.5219 13.9505 20.5219Z" fill="#C3E5F5"/>
<path d="M13.9563 20.5492C18.3902 20.5492 22.1977 21.4466 23.821 22.724C24.3657 21.81 24.6707 20.808 24.6707 19.7508C24.6707 15.5279 19.8664 11.5967 13.9563 11.5967C8.04613 11.5967 3.23633 15.5334 3.23633 19.7563C3.23633 20.8135 3.53592 21.8155 4.08063 22.7295C5.70387 21.4522 9.5223 20.5547 13.9563 20.5547V20.5492Z" fill="#C9E7F5"/>
<path d="M13.9565 20.5822C18.385 20.5822 22.1871 21.4742 23.8104 22.7405C24.3496 21.8321 24.6601 20.841 24.6601 19.7894C24.6601 15.5994 19.8612 11.6958 13.9565 11.6958C8.05184 11.6958 3.25293 15.5994 3.25293 19.7894C3.25293 20.841 3.54707 21.8321 4.09723 22.7405C5.72047 21.4742 9.52801 20.5822 13.9565 20.5822Z" fill="#CEE9F6"/>
<path d="M13.9564 20.6099C18.3794 20.6099 22.1761 21.4909 23.7939 22.7517C24.3331 21.8542 24.6436 20.8687 24.6436 19.8281C24.6436 15.6657 19.8556 11.7896 13.9564 11.7896C8.05714 11.7896 3.26367 15.6657 3.26367 19.8226C3.26367 20.8632 3.55782 21.8487 4.10253 22.7462C5.72577 21.4909 9.52786 20.6044 13.9509 20.6044L13.9564 20.6099Z" fill="#D4ECF7"/>
<path d="M13.9566 20.6372C18.3742 20.6372 22.1654 21.5127 23.7832 22.7625C24.3225 21.8706 24.6275 20.8905 24.6275 19.8609C24.6275 15.7315 19.845 11.8774 13.9566 11.8774C8.06829 11.8774 3.28027 15.737 3.28027 19.8609C3.28027 20.896 3.57442 21.8706 4.11913 22.7625C5.73692 21.5127 9.53901 20.6372 13.9512 20.6372H13.9566Z" fill="#DAEEF8"/>
<path d="M13.9569 20.6649C18.3691 20.6649 22.1548 21.5349 23.7671 22.7737C24.3064 21.8872 24.6114 20.9182 24.6114 19.8941C24.6114 15.7978 19.8343 11.9712 13.9569 11.9712C8.07944 11.9712 3.29688 15.8033 3.29688 19.8941C3.29688 20.9182 3.59102 21.8872 4.13573 22.7737C5.75353 21.5349 9.54472 20.6649 13.9569 20.6649Z" fill="#DFF1F9"/>
<path d="M13.9562 20.6976C18.3574 20.6976 22.1432 21.562 23.7555 22.7898C24.2948 21.9089 24.5998 20.9509 24.5998 19.9323C24.5998 15.869 19.8282 12.0645 13.9562 12.0645C8.08418 12.0645 3.3125 15.869 3.3125 19.9268C3.3125 20.9454 3.60664 21.9089 4.15136 22.7843C5.7637 21.5565 9.5549 20.6921 13.9562 20.6921V20.6976Z" fill="#E5F3FA"/>
<path d="M13.956 20.7253C18.3518 20.7253 22.1267 21.5787 23.739 22.801C24.2783 21.9311 24.5833 20.9731 24.5833 19.9655C24.5833 15.9352 19.8171 12.1582 13.956 12.1582C8.09492 12.1582 3.32324 15.9352 3.32324 19.9655C3.32324 20.9786 3.61739 21.9311 4.15665 22.801C5.769 21.5842 9.55475 20.7253 13.9506 20.7253H13.956Z" fill="#EBF6FB"/>
<path d="M13.9563 20.753C18.3467 20.753 22.1161 21.6009 23.7284 22.8122C24.2622 21.9478 24.5673 21.0007 24.5673 19.9987C24.5673 16.0014 19.8065 12.252 13.9563 12.252C8.10607 12.252 3.33984 16.0069 3.33984 19.9987C3.33984 21.0007 3.63399 21.9478 4.17325 22.8122C5.7856 21.6009 9.56045 20.753 13.9508 20.753H13.9563Z" fill="#F1F8FD"/>
<path d="M13.9565 20.7803C18.3415 20.7803 22.1054 21.6227 23.7123 22.823C24.2461 21.9641 24.5512 21.0281 24.5512 20.0315C24.5512 16.0618 19.8013 12.3398 13.9565 12.3398C8.11178 12.3398 3.35645 16.0728 3.35645 20.037C3.35645 21.0336 3.65059 21.9696 4.18985 22.8285C5.79675 21.6282 9.57161 20.7858 13.9565 20.7858V20.7803Z" fill="#F7FBFE"/>
<path d="M13.9568 20.8134C18.3363 20.8134 22.0948 21.6503 23.6962 22.8395C24.2301 21.9861 24.5351 21.0556 24.5351 20.0701C24.5351 16.1334 19.7907 12.439 13.9568 12.439C8.12293 12.439 3.37305 16.1389 3.37305 20.0701C3.37305 21.0556 3.66719 21.9861 4.20646 22.8395C5.81336 21.6503 9.58276 20.8134 13.9568 20.8134Z" fill="white"/>
</g>
<path d="M13.9513 16.8823C10.122 16.8823 6.55961 17.5375 3.61816 18.6442C5.38303 22.6414 9.34308 25.4219 13.9568 25.4219C18.5705 25.4219 22.5142 22.6414 24.2791 18.6442C21.3485 17.532 17.7861 16.8823 13.9513 16.8823Z" fill="#0083CA"/>
</g>
<defs>
<clipPath id="clip0_2624_10673">
<rect width="24" height="24" fill="white" transform="translate(2 2)"/>
</clipPath>
</defs>
</svg>
