<svg width="28" height="28" viewBox="0 0 28 28" fill="none" xmlns="http://www.w3.org/2000/svg">
<rect width="24" height="24" fill="white"/>
<g clip-path="url(#clip0_2624_10565)">
<path d="M26 2H2V26H26V2Z" fill="#0091D0"/>
<path d="M2 2V14L8 8.00704L2 2Z" fill="#179CD8"/>
<path d="M14 14H2L8 20L14 14Z" fill="#1082C5"/>
<path d="M14 2H2L8 8L14 2Z" fill="#1391D0"/>
<path d="M26 2H14L20 8L26 2Z" fill="#0961AE"/>
<path d="M2 14V26L8 20.007L2 14Z" fill="#0872BA"/>
<path d="M14 14L8 8L2 14H14Z" fill="#1391D0"/>
<path d="M14 26L8 20L2 26H14Z" fill="#0961AE"/>
<path d="M14 14V2L8 8L14 14Z" fill="#0082C9"/>
<path d="M14 2V14L20 8.00704L14 2Z" fill="#0071BB"/>
<path d="M14 26V14L8 20L14 26Z" fill="#00529B"/>
<path d="M14 14V26L20 20.007L14 14Z" fill="#0D4D97"/>
<path d="M26 14L20 8L14 14H26Z" fill="#004C98"/>
<path d="M26 26L20 20L14 26H26Z" fill="#273C88"/>
<path d="M14 14L19.993 20L26 14H14Z" fill="#004C98"/>
<path d="M26 14V2L20 8L26 14Z" fill="#00529C"/>
<path d="M26 26V14L20 20L26 26Z" fill="#273C88"/>
<path d="M26.0003 17.0283L18.3172 9.71143L6.65527 21.4016L10.9158 25.6551L18.3172 18.3593L26.0003 26.0002V17.0283Z" fill="white"/>
</g>
<defs>
<clipPath id="clip0_2624_10565">
<rect width="24" height="24" fill="white" transform="translate(2 2)"/>
</clipPath>
</defs>
</svg>
