<svg width="28" height="28" viewBox="0 0 28 28" fill="none" xmlns="http://www.w3.org/2000/svg">
<rect width="24" height="24" fill="white"/>
<g clip-path="url(#clip0_2624_10758)">
<path d="M17.7066 16.0409C17.6511 15.7055 17.5587 15.3824 17.4232 15.0779C17.0042 14.1584 16.4126 13.388 15.5377 12.8724C14.1698 12.0647 12.5184 12.0709 11.1628 12.8972C10.5528 13.27 10.0476 13.8043 9.72098 14.4504C9.61007 14.6679 9.52381 14.8978 9.44987 15.1339C9.09249 16.277 9.10481 17.8116 9.75179 18.8554C9.96129 19.1971 10.2632 19.4891 10.6329 19.632C11.0026 19.7749 11.4463 19.7625 11.779 19.545C12.2103 19.2655 12.2843 18.7311 12.2042 18.2528C12.1056 17.6501 12.0255 17.0474 12.2473 16.451C12.3212 16.2584 12.4198 16.0782 12.5615 15.9353C12.6478 15.8483 12.7526 15.78 12.8635 15.7241C13.0976 15.6123 13.3626 15.5563 13.6152 15.5998C14.065 15.6744 14.4286 16.0223 14.6319 16.4324C14.8291 16.8424 14.8845 17.3084 14.903 17.7681C14.9954 19.7563 14.5271 21.8252 14.0219 23.7388C13.9726 23.9376 13.9171 24.1302 13.8617 24.329C13.8185 24.4781 13.7446 24.6769 13.837 24.8198C13.8802 24.882 13.9418 24.9254 14.0096 24.9565C14.3053 25.0746 14.5395 24.8944 14.7366 24.6956C15.8951 23.5213 16.6345 22.0054 17.1459 20.4459C17.3369 19.8619 17.4971 19.2717 17.608 18.669C17.7559 17.8427 17.8422 16.8983 17.6943 16.0285" fill="#008375"/>
<path d="M26.0002 6.8333C26.0002 6.53508 25.7353 6.33627 25.458 6.3487C25.1746 6.36112 24.9096 6.50402 24.6447 6.60964C19.5489 8.5605 13.8061 8.93328 8.43311 8.15045C7.51501 8.01376 6.58458 7.83359 5.66032 7.68448C5.08112 7.59128 4.50807 7.46081 3.92887 7.41732C3.42977 7.38004 2.81359 7.3614 2.41308 7.70933C1.88317 8.16909 1.92014 9.04511 2.22207 9.62291C2.58561 10.3188 3.21411 10.8344 3.87341 11.2321C4.51424 11.6173 5.27213 12.0211 6.03619 11.9776C8.08805 11.8471 10.1337 11.6483 12.1733 11.3812C15.6547 10.9276 19.2963 10.4927 22.562 9.1383C23.628 8.69097 24.6816 8.13802 25.5997 7.42353C25.7661 7.29927 26.0064 7.08803 26.0064 6.84573" fill="#008375"/>
<path d="M11.3909 5.06877C11.3909 6.1871 12.2905 7.08798 13.3997 7.08798C14.5088 7.08798 15.4022 6.18089 15.4022 5.06877C15.4022 4.90102 15.3653 4.73327 15.2913 4.58416C15.1188 4.2176 14.9278 4.03743 14.9463 3.59631C14.9709 2.99987 14.213 2.99365 13.8063 2.99365C13.3627 2.99365 12.8944 3.05578 12.4939 3.26081C12.1735 3.42234 11.9024 3.67086 11.7052 3.9753C11.5018 4.28594 11.3971 4.65251 11.3848 5.01907C11.3848 5.03771 11.3848 5.05013 11.3848 5.06877" fill="#D50037"/>
</g>
<defs>
<clipPath id="clip0_2624_10758">
<rect width="24" height="22" fill="white" transform="translate(2 3)"/>
</clipPath>
</defs>
</svg>
