<?xml version="1.0" encoding="UTF-8" standalone="no"?>
<!-- Created with Inkscape (http://www.inkscape.org/) -->

<svg
   version="1.1"
   id="svg2"
   width="500"
   height="500"
   viewBox="365 190 400 400"
   sodipodi:docname="HyundaiCard_Logomark.ai"
   xmlns:inkscape="http://www.inkscape.org/namespaces/inkscape"
   xmlns:sodipodi="http://sodipodi.sourceforge.net/DTD/sodipodi-0.dtd"
   xmlns="http://www.w3.org/2000/svg"
   xmlns:svg="http://www.w3.org/2000/svg">
  <defs
     id="defs6">
    <clipPath
       clipPathUnits="userSpaceOnUse"
       id="clipPath16">
      <path
         d="M 0,595.28 H 841.89 V 0 H 0 Z"
         id="path14" />
    </clipPath>
  </defs>
  <sodipodi:namedview
     id="namedview4"
     pagecolor="#ffffff"
     bordercolor="#000000"
     borderopacity="0.25"
     inkscape:showpageshadow="2"
     inkscape:pageopacity="0.0"
     inkscape:pagecheckerboard="0"
     inkscape:deskcolor="#d1d1d1" />
  <g
     id="g8"
     inkscape:groupmode="layer"
     inkscape:label="HyundaiCard_Logomark"
     transform="matrix(1.3333333,0,0,-1.3333333,0,793.70667)">
    <g
       id="g10">
      <g
         id="g12"
         clip-path="url(#clipPath16)">
        <g
           id="g18"
           transform="translate(311.811,322.0005)">
          <path
             d="M 0,0 C -7.324,0 -13.287,-5.961 -13.287,-13.287 V -48.72 h 4.428 v 35.433 c 0,4.892 3.966,8.858 8.859,8.858 h 218.267 c 4.893,0 8.858,-3.966 8.858,-8.858 V -48.72 h 4.429 v 35.433 C 231.554,-5.96 225.591,0 218.267,0 Z"
             style="fill:#231f20;fill-opacity:1;fill-rule:nonzero;stroke:none"
             id="path20" />
        </g>
        <g
           id="g22"
           transform="translate(339.3325,282.6123)">
          <path
             d="m 0,0 c 0,-0.348 -0.221,-0.475 -0.6,-0.475 h -3.285 c -0.379,0 -0.504,0.127 -0.504,0.506 v 8.938 c 0,0.41 -0.285,0.633 -0.695,0.633 h -8.621 c -0.379,0 -0.602,-0.223 -0.602,-0.633 V 0.031 c 0,-0.379 -0.22,-0.506 -0.566,-0.506 h -3.35 c -0.314,0 -0.441,0.127 -0.441,0.475 v 22.201 c 0,0.347 0.127,0.537 0.441,0.537 h 3.35 c 0.346,0 0.566,-0.19 0.566,-0.537 v -8.59 c 0,-0.41 0.223,-0.599 0.602,-0.599 h 8.621 c 0.41,0 0.695,0.189 0.695,0.599 v 8.59 c 0,0.347 0.125,0.537 0.504,0.537 H -0.6 c 0.379,0 0.6,-0.19 0.6,-0.537 z"
             style="fill:#231f20;fill-opacity:1;fill-rule:nonzero;stroke:none"
             id="path24" />
        </g>
        <g
           id="g26"
           transform="translate(347.2603,281.8232)">
          <path
             d="m 0,0 c -2.432,0 -3.695,1.957 -3.695,3.631 v 13.8 c 0,0.411 0.158,0.601 0.537,0.601 H 0 c 0.314,0 0.537,-0.19 0.537,-0.601 V 4.105 c 0,-0.378 0.158,-0.568 0.6,-0.568 h 5.779 c 0.379,0 0.631,0.19 0.631,0.568 v 13.326 c 0,0.411 0.158,0.601 0.537,0.601 h 3.158 c 0.348,0 0.569,-0.19 0.569,-0.601 V -2.686 c 0,-0.503 -0.159,-0.978 -0.379,-1.451 L 9.283,-7.643 C 9.094,-7.959 8.811,-8.148 8.494,-8.148 h -0.41 c -0.379,0 -0.537,0.22 -0.537,0.568 v 8.906 c 0,0.379 -0.221,0.537 -0.568,0.442 L 0.916,0.062 C 0.631,0 0.283,0 0,0"
             style="fill:#231f20;fill-opacity:1;fill-rule:nonzero;stroke:none"
             id="path28" />
        </g>
        <g
           id="g30"
           transform="translate(366.9341,281.8545)">
          <path
             d="M 0,0 C -1.926,0 -3.631,1.58 -3.631,3.631 V 17.4 c 0,0.411 0.156,0.6 0.535,0.6 h 3.19 C 0.379,18 0.6,17.811 0.6,17.4 V 4.074 C 0.6,3.695 0.789,3.537 1.232,3.537 H 7.01 c 0.379,0 0.633,0.158 0.633,0.537 V 17.4 c 0,0.411 0.127,0.6 0.505,0.6 h 3.157 c 0.347,0 0.57,-0.189 0.57,-0.6 V 0.758 c 0,-0.348 -0.223,-0.475 -0.57,-0.475 H 8.148 C 7.77,0.283 7.643,0.41 7.643,0.789 v 0.506 c 0,0.41 -0.254,0.568 -0.6,0.441 L 0.979,0.096 C 0.664,0 0.316,0 0,0"
             style="fill:#231f20;fill-opacity:1;fill-rule:nonzero;stroke:none"
             id="path32" />
        </g>
        <g
           id="g34"
           transform="translate(398.5454,296.4438)">
          <path
             d="m 0,0 v -13.832 c 0,-0.347 -0.221,-0.474 -0.568,-0.474 h -3.159 c -0.378,0 -0.505,0.127 -0.505,0.506 v 13.328 c 0,0.41 -0.252,0.63 -0.631,0.63 h -5.78 c -0.441,0 -0.63,-0.22 -0.63,-0.63 V -13.8 c 0,-0.379 -0.221,-0.506 -0.506,-0.506 h -3.19 c -0.379,0 -0.537,0.127 -0.537,0.474 V 2.811 c 0,0.411 0.158,0.6 0.537,0.6 h 3.19 c 0.285,0 0.506,-0.189 0.506,-0.6 V 2.273 c 0,-0.346 0.158,-0.503 0.63,-0.378 l 6.034,1.642 C -4.295,3.601 -4.01,3.695 -3.695,3.695 -1.609,3.695 0,1.959 0,0"
             style="fill:#231f20;fill-opacity:1;fill-rule:nonzero;stroke:none"
             id="path36" />
        </g>
        <g
           id="g38"
           transform="translate(413.4478,285.9287)">
          <path
             d="m 0,0 v 10.01 c 0,0.443 -0.189,0.663 -0.631,0.663 h -5.842 c -0.443,0 -0.601,-0.22 -0.601,-0.663 V 0 c 0,-0.379 0.158,-0.537 0.601,-0.537 h 5.842 C -0.189,-0.537 0,-0.379 0,0 m -11.305,-0.443 v 7.959 c 0,1.705 0.727,2.999 2.242,3.82 l 3.348,1.958 c 0.695,0.443 1.389,0.632 2.211,0.632 H -0.6 c 0.411,0 0.6,0.158 0.6,0.537 L 0,21 c 0,0.347 0.158,0.6 0.475,0.6 h 3.22 c 0.379,0 0.537,-0.253 0.537,-0.6 V -3.316 c 0,-0.348 -0.158,-0.475 -0.537,-0.475 H 0.475 C 0.158,-3.791 0,-3.664 0,-3.285 v 0.506 c 0,0.41 -0.189,0.568 -0.6,0.441 l -6.093,-1.641 c -0.348,-0.095 -0.633,-0.095 -0.948,-0.095 -1.642,-0.063 -3.664,1.453 -3.664,3.631"
             style="fill:#231f20;fill-opacity:1;fill-rule:nonzero;stroke:none"
             id="path40" />
        </g>
        <g
           id="g42"
           transform="translate(432.582,285.9287)">
          <path
             d="m 0,0 v 10.01 c 0,0.443 -0.221,0.663 -0.631,0.663 h -5.842 c -0.443,0 -0.601,-0.22 -0.601,-0.663 V 0 c 0,-0.379 0.158,-0.537 0.601,-0.537 h 5.842 C -0.221,-0.537 0,-0.379 0,0 m -7.643,-4.074 c -1.988,0 -3.661,1.609 -3.661,3.631 v 7.959 c 0,1.705 0.726,2.999 2.21,3.82 l 3.379,1.958 c 0.695,0.443 1.389,0.632 2.178,0.632 h 7.232 c 0.348,0 0.537,-0.189 0.537,-0.6 V -3.316 c 0,-0.348 -0.189,-0.475 -0.537,-0.475 H 0.475 C 0.127,-3.791 0,-3.664 0,-3.285 v 0.506 c 0,0.41 -0.221,0.568 -0.631,0.441 l -6.064,-1.641 c -0.346,-0.095 -0.631,-0.095 -0.948,-0.095"
             style="fill:#231f20;fill-opacity:1;fill-rule:nonzero;stroke:none"
             id="path44" />
        </g>
        <g
           id="g46"
           transform="translate(445.2773,282.6123)">
          <path
             d="m 0,0 c 0,-0.348 -0.221,-0.475 -0.537,-0.475 h -3.158 c -0.41,0 -0.535,0.127 -0.535,0.475 v 16.642 c 0,0.411 0.125,0.601 0.535,0.601 h 3.158 C -0.221,17.243 0,17.053 0,16.642 Z m 0,21.727 c 0,-0.379 -0.221,-0.505 -0.537,-0.505 h -3.158 c -0.41,0 -0.535,0.126 -0.535,0.505 v 2.59 c 0,0.347 0.125,0.6 0.535,0.6 h 3.158 c 0.316,0 0.537,-0.253 0.537,-0.6 z"
             style="fill:#231f20;fill-opacity:1;fill-rule:nonzero;stroke:none"
             id="path48" />
        </g>
        <g
           id="g50"
           transform="translate(454.1367,286.6865)">
          <path
             d="m 0,0 v 11.968 c 0,1.769 0.758,3.127 2.305,4.043 L 6,18.064 c 0.662,0.41 1.453,0.6 2.18,0.6 h 7.83 c 0.379,0 0.57,-0.19 0.57,-0.569 V 15.79 c 0,-0.348 -0.191,-0.505 -0.57,-0.505 H 5.053 c -0.379,0 -0.537,-0.222 -0.537,-0.632 V -0.568 c 0,-0.411 0.158,-0.6 0.537,-0.6 h 11.273 c 0.348,0 0.569,-0.158 0.569,-0.475 0,-0.347 -0.159,-0.63 -0.506,-0.82 l -2.715,-1.516 c -0.727,-0.412 -1.485,-0.57 -2.242,-0.57 H 4.609 C 2.367,-4.549 0,-2.938 0,0"
             style="fill:#231f20;fill-opacity:1;fill-rule:nonzero;stroke:none"
             id="path52" />
        </g>
        <g
           id="g54"
           transform="translate(484.9629,285.9287)">
          <path
             d="m 0,0 v 10.01 c 0,0.443 -0.221,0.663 -0.633,0.663 h -5.842 c -0.441,0 -0.599,-0.22 -0.599,-0.663 V 0 c 0,-0.379 0.158,-0.537 0.599,-0.537 h 5.842 C -0.221,-0.537 0,-0.379 0,0 m -7.643,-4.074 c -1.99,0 -3.664,1.609 -3.664,3.631 v 7.959 c 0,1.705 0.727,2.999 2.211,3.82 l 3.379,1.958 c 0.696,0.443 1.391,0.632 2.18,0.632 h 7.232 c 0.346,0 0.537,-0.189 0.537,-0.6 V -3.316 c 0,-0.348 -0.191,-0.475 -0.537,-0.475 H 0.473 C 0.125,-3.791 0,-3.664 0,-3.285 v 0.506 c 0,0.41 -0.221,0.568 -0.633,0.441 l -6.062,-1.641 c -0.348,-0.095 -0.633,-0.095 -0.948,-0.095"
             style="fill:#231f20;fill-opacity:1;fill-rule:nonzero;stroke:none"
             id="path56" />
        </g>
        <g
           id="g58"
           transform="translate(505.0469,297.0767)">
          <path
             d="m 0,0 c 0,-0.316 -0.221,-0.475 -0.568,-0.475 h -6.221 c -0.41,0 -0.568,-0.22 -0.568,-0.63 v -13.328 c 0,-0.379 -0.252,-0.506 -0.569,-0.506 h -3.189 c -0.379,0 -0.506,0.127 -0.506,0.475 V 2.178 c 0,0.411 0.127,0.6 0.506,0.6 h 3.189 c 0.317,0 0.569,-0.189 0.569,-0.6 V 1.673 c 0,-0.347 0.158,-0.505 0.568,-0.505 0.096,0 0.221,0 0.348,0.062 l 1.83,1.202 c 0.664,0.346 1.359,0.536 2.179,0.536 h 1.864 C -0.221,2.968 0,2.778 0,2.432 Z"
             style="fill:#231f20;fill-opacity:1;fill-rule:nonzero;stroke:none"
             id="path60" />
        </g>
        <g
           id="g62"
           transform="translate(516.9883,285.9287)">
          <path
             d="m 0,0 v 10.01 c 0,0.443 -0.189,0.663 -0.633,0.663 h -5.842 c -0.441,0 -0.599,-0.22 -0.599,-0.663 V 0 c 0,-0.379 0.158,-0.537 0.599,-0.537 h 5.842 C -0.189,-0.537 0,-0.379 0,0 m -11.307,-0.443 v 7.959 c 0,1.705 0.727,2.999 2.243,3.82 l 3.347,1.958 c 0.696,0.443 1.391,0.632 2.211,0.632 H -0.6 c 0.411,0 0.6,0.158 0.6,0.537 L 0,21 c 0,0.347 0.158,0.6 0.473,0.6 H 3.695 C 4.072,21.6 4.23,21.347 4.23,21 V -3.316 c 0,-0.348 -0.158,-0.475 -0.535,-0.475 H 0.473 C 0.158,-3.791 0,-3.664 0,-3.285 v 0.506 c 0,0.41 -0.189,0.568 -0.6,0.441 l -6.095,-1.641 c -0.348,-0.095 -0.631,-0.095 -0.948,-0.095 -1.642,-0.063 -3.664,1.453 -3.664,3.631"
             style="fill:#231f20;fill-opacity:1;fill-rule:nonzero;stroke:none"
             id="path64" />
        </g>
      </g>
    </g>
  </g>
</svg>
